<?xml version="1.0" encoding="utf-8"?>
<!-- Generator: Adobe Illustrator 18.1.1, SVG Export Plug-In . SVG Version: 6.00 Build 0)  -->
<svg version="1.1" xmlns="http://www.w3.org/2000/svg" xmlns:xlink="http://www.w3.org/1999/xlink" x="0px" y="0px"
	 viewBox="0 0 119.5 95.7" enable-background="new 0 0 119.5 95.7" xml:space="preserve">
<g id="Layer_1">
	<g>
		<g>
			<path fill="#FFFFFF" stroke="#000000" stroke-width="2" d="M54.1,45.3"/>
		</g>
		<g>
			<path fill="#FFFFFF" d="M72.6,85c-2.1-2.1-2.1-5.4,0-7.5l13.6-13.6c2.1-2.1,5.4-2.1,7.5,0c2.1,2.1,2.1,5.4,0,7.5
				c0,0-13.6,13.6-13.6,13.6C78.1,87.1,74.7,87.1,72.6,85z"/>
			<path fill="#FFFFFF" stroke="#000000" stroke-width="2" d="M74.5,83.2c1.1,1.1,2.8,1.1,3.9,0l13.6-13.6c1.1-1.1,1.1-2.8,0-3.9
				l0,0c-1.1-1.1-2.8-1.1-3.9,0L74.5,79.3C73.4,80.4,73.4,82.1,74.5,83.2L74.5,83.2z"/>
			<path fill="#FFFFFF" d="M14.4,26.8c-1-1-1.6-2.3-1.6-3.8c0-1.4,0.6-2.8,1.6-3.8L28,5.7c1-1,2.3-1.6,3.8-1.6
				c1.4,0,2.7,0.6,3.8,1.6c1,1,1.6,2.3,1.6,3.8s-0.6,2.8-1.6,3.8c0,0-13.6,13.6-13.6,13.6C19.8,28.8,16.5,28.8,14.4,26.8z"/>
			<path fill="#FFFFFF" stroke="#000000" stroke-width="2" d="M16.2,25c1.1,1.1,2.8,1.1,3.9,0l13.6-13.6c1.1-1.1,1.1-2.8,0-3.9l0,0
				c-1.1-1.1-2.8-1.1-3.9,0L16.2,21.1C15.1,22.1,15.1,23.9,16.2,25L16.2,25z"/>
			<line fill="#FFFFFF" x1="54.1" y1="45.3" x2="54.1" y2="45.3"/>
			<line fill="#FFFFFF" x1="54.1" y1="45.3" x2="54.1" y2="45.3"/>
			<line fill="#FFFFFF" x1="54.1" y1="45.3" x2="54.1" y2="45.3"/>
			<line fill="#FFFFFF" x1="54.1" y1="45.3" x2="54.1" y2="45.3"/>
			<line fill="#FFFFFF" x1="54.1" y1="45.3" x2="54.1" y2="45.3"/>
			<line fill="#FFFFFF" x1="54.1" y1="45.3" x2="54.1" y2="45.3"/>
			<line fill="#FFFFFF" x1="54.1" y1="45.3" x2="54.1" y2="45.3"/>
			<line fill="#FFFFFF" x1="54.1" y1="45.3" x2="54.1" y2="45.3"/>
		</g>
		<path fill="#FFFFFF" d="M65.9,74.9L24.5,33.5c-2.4-2.4-2.4-6.4,0-8.8l6.1-6.1c1.2-1.2,2.9-1.9,4.6-1.8
			c12.6,0.3,24.4,5.4,33.3,14.3c8.9,8.9,13.9,20.7,14.3,33.2c0,1.7-0.6,3.4-1.8,4.6l-6.1,6.1C72.3,77.4,68.3,77.4,65.9,74.9z"/>
		<path fill="#FFFFFF" stroke="#000000" stroke-width="2" d="M67.7,73.1L26.3,31.7c-1.4-1.4-1.4-3.7,0-5.2l6.1-6.1
			c0.7-0.7,1.7-1.1,2.7-1.1c11.9,0.3,23.1,5.1,31.5,13.5c8.4,8.4,13.2,19.6,13.5,31.5c0,1-0.4,2-1.1,2.7l-6.1,6.1
			C71.4,74.6,69.1,74.6,67.7,73.1z"/>
	</g>
	<g>
		<g>
			<path fill="#FFFFFF" stroke="#000000" d="M54.1,41c-2.4,0-4.4,2-4.4,4.4s2,4.4,4.4,4.4"/>
			<path d="M55.5,49.1c-1-0.3-1.6-0.6-2.4-0.9v3c0.3-0.1,1.4-0.6,2.4-0.9c1.1-0.3,2-0.5,2.6-0.6C57.5,49.6,56.5,49.4,55.5,49.1z"/>
		</g>
	</g>
	<ellipse cx="54.1" cy="45.3" rx="0.9" ry="0.9"/>
	<line fill="#FFFFFF" stroke="#000000" stroke-linecap="round" x1="42.3" y1="57.1" x2="32.8" y2="66.6"/>
	<line fill="#FFFFFF" stroke="#000000" stroke-linecap="round" x1="70.9" y1="85.7" x2="61.4" y2="95.2"/>
	<line fill="#FFFFFF" stroke="#000000" stroke-linecap="round" x1="13.7" y1="28.5" x2="4.2" y2="38"/>
	<g>
		<line fill="#FFFFFF" stroke="#000000" x1="54.1" y1="45.3" x2="70.6" y2="28.8"/>
	</g>
	<g>
		<line fill="none" stroke="#000000" stroke-width="0.5" x1="74.5" y1="25" x2="97.8" y2="1.7"/>
		<path d="M98,0.9c-0.5,0.2-0.8,0.4-1.2,0.5l1.1,1.1c0.1-0.1,0.3-0.7,0.5-1.2c0.3-0.5,0.5-0.9,0.7-1.2C98.9,0.4,98.5,0.7,98,0.9z"/>
	</g>
	<g>
		<g>
			<g>
				<g>
					<line fill="#FFFFFF" stroke="#000000" x1="90.1" y1="82" x2="99.8" y2="91.8"/>
					<path d="M88.7,81.5c0.5,0.9,0.8,1.6,1.1,2.4l2.1-2.1c-0.3-0.1-1.4-0.6-2.4-1.1c-1-0.5-1.8-1-2.3-1.4
						C87.6,79.7,88.1,80.5,88.7,81.5z"/>
				</g>
			</g>
		</g>
		<path d="M90.2,82.1"/>
		<path d="M89.9,81.9"/>
	</g>
	<g>
		<g>
			<g>
				<g>
					<line fill="#FFFFFF" stroke="#000000" x1="11.2" y1="2.9" x2="20.9" y2="12.6"/>
					<path d="M9.8,2.3c0.5,0.9,0.8,1.6,1.1,2.4L13,2.5c-0.3-0.1-1.4-0.6-2.4-1.1c-1-0.5-1.8-1-2.3-1.4C8.7,0.5,9.3,1.3,9.8,2.3z"/>
				</g>
			</g>
		</g>
		<path d="M11.7,2.5"/>
		<path d="M10.9,3.3"/>
	</g>
	<line fill="none" stroke="#000000" stroke-width="0.5" x1="78.2" y1="18.3" x2="104.2" y2="18.3"/>
	<path d="M116.5,7c0.2-0.6,0.4-1.4,0.8-2.2c0.3-0.5,0.6-1.1,1.1-1.1c0.5,0,0.5,0.6,0.5,1.2c0,0.5-0.1,1-0.3,2H116.5z M119.5,5.6
		c0-0.7-0.2-2.1-1.2-2.1c-1.4,0-2.9,2.8-2.9,5.1c0,0.9,0.3,2,1.2,2C118,10.7,119.5,7.8,119.5,5.6z M118.5,7.3
		c-0.1,0.5-0.3,1.3-0.7,2c-0.3,0.7-0.7,1.2-1.2,1.2c-0.3,0-0.5-0.3-0.5-1.2c0-0.4,0.1-1,0.3-2H118.5z"/>
	<path d="M37.7,40.4c-0.1,0-1-0.6-1.6-1.9c-0.5-1.1-0.7-2.3-0.7-3.1c0-0.8,0.1-1.9,0.6-3c0.6-1.3,1.5-1.9,1.6-1.9
		c0.1,0,0.1,0,0.1,0.1c0,0,0,0.1-0.1,0.2c-1.2,1.2-1.6,3-1.6,4.7c0,1.5,0.3,3.4,1.6,4.7C37.8,40.2,37.8,40.2,37.7,40.4
		C37.8,40.3,37.8,40.4,37.7,40.4z"/>
	<path d="M41.4,36.2c-0.1,0.4-0.2,0.7-0.2,0.9c0,0.3,0.2,0.7,0.5,0.7c0.3,0,1-0.2,1.3-1.3c0-0.1,0-0.1,0.1-0.1c0,0,0.1,0,0.1,0.1
		c0,0.2-0.6,1.5-1.6,1.5c-0.6,0-1-0.4-1.1-0.8c0,0.1-0.4,0.8-1,0.8c-0.4,0-0.9-0.2-0.9-0.7c0-0.3,0.2-0.6,0.5-0.6
		c0.1,0,0.4,0.1,0.4,0.3c0,0.3-0.2,0.5-0.5,0.5c0.2,0.1,0.4,0.1,0.5,0.1c0.4,0,0.8-0.4,0.9-1c0.4-1.4,0.5-2.1,0.5-2.4
		c0-0.6-0.3-0.7-0.5-0.7c-0.3,0-1,0.2-1.3,1.3c0,0.1-0.1,0.1-0.1,0.1c0,0-0.1,0-0.1-0.1c0-0.2,0.6-1.5,1.6-1.5
		c0.3,0,0.8,0.1,1.1,0.8c0.1-0.2,0.5-0.8,1-0.8c0.3,0,0.9,0.1,0.9,0.7c0,0.4-0.3,0.6-0.5,0.6c-0.3,0-0.4-0.2-0.4-0.3
		c0-0.2,0.2-0.5,0.5-0.5c-0.2-0.1-0.4-0.1-0.5-0.1c-0.7,0-0.9,0.9-1,1.2L41.4,36.2z"/>
	<path d="M45.2,39.8c0,0-0.1,0-0.1-0.1c0,0,0,0,0.1-0.2c0.3-0.3,0.7-0.9,0.7-1.7c0-0.1,0-0.2,0-0.2c0,0,0,0-0.1,0
		c-0.1,0.1-0.2,0.1-0.3,0.1c-0.3,0-0.5-0.3-0.5-0.5c0-0.3,0.2-0.5,0.5-0.5c0.4,0,0.6,0.4,0.6,1C46.1,39,45.3,39.8,45.2,39.8z"/>
	<path d="M52.4,37.9c-0.3,1.1-1.3,2-2.3,2c-0.6,0-1.1-0.4-1.1-0.9c0-0.5,0.3-0.6,0.6-0.6c0.1,0,0.4,0,0.4,0.3c0,0.2-0.1,0.3-0.2,0.4
		c-0.1,0.1-0.3,0.1-0.4,0.1c0.2,0.4,0.6,0.4,0.8,0.4c0.5,0,0.8-0.3,1.1-0.6c0.4-0.5,0.5-1,0.6-1.5c-0.3,0.3-0.6,0.4-1,0.4
		c-0.6,0-1.2-0.3-1.2-1.2c0-0.5,0.2-1,0.6-2.1c0.1-0.2,0.2-0.4,0.2-0.7c0-0.3-0.2-0.3-0.3-0.3c-0.3,0-0.7,0.3-1,1.2
		c0,0.2-0.1,0.2-0.2,0.2c0,0-0.1,0-0.1-0.1c0-0.1,0.4-1.5,1.3-1.5c0.5,0,0.8,0.4,0.8,0.8c0,0.2,0,0.3-0.2,0.7
		c-0.3,0.9-0.5,1.5-0.5,2c0,0.4,0.1,0.8,0.6,0.8c0.7,0,1.1-0.7,1.1-0.8l0.4-1.8c0.1-0.3,0.1-0.5,0.2-0.8c0-0.2,0.1-0.5,0.1-0.5
		c0.1-0.1,0.2-0.2,0.3-0.2c0.1,0,0.3,0.1,0.3,0.3c0,0.1,0,0.1,0,0.2L52.4,37.9z"/>
	<path d="M56,38.4c-0.6,1.3-1.5,1.9-1.6,1.9c-0.1,0-0.1,0-0.1-0.1c0,0,0,0,0.1-0.2c1.2-1.3,1.6-3,1.6-4.7c0-2.1-0.6-3.7-1.5-4.6
		c-0.2-0.2-0.2-0.2-0.2-0.2c0-0.1,0-0.1,0.1-0.1c0.1,0,1,0.6,1.6,1.9c0.5,1.1,0.7,2.3,0.7,3.1C56.6,36.2,56.5,37.3,56,38.4z"/>
	<path d="M18.5,52.5c0.1-0.2,0.1-0.2,0.1-0.3c0.5-0.6,0.9-0.8,1.2-0.8c0.4,0,0.6,0.3,0.6,0.9c0,0.6-0.3,1.7-0.5,2.1
		c-0.3,0.7-0.8,1-1.2,1c-0.3,0-0.7-0.3-0.7-1c0-0.2,0-0.4,0.2-1L18.5,52.5z M19.5,48.7c0,0,0-0.1-0.1-0.1c-0.2,0-1,0.1-1.2,0.1
		c-0.1,0-0.2,0-0.2,0.2c0,0.1,0.1,0.1,0.2,0.1c0.5,0,0.5,0.1,0.5,0.2c0,0.1-0.1,0.4-0.1,0.6l-0.8,3.3c-0.1,0.5-0.2,0.7-0.2,1
		c0,0.9,0.5,1.6,1.3,1.6c1.2,0,2.4-1.5,2.4-2.9c0-0.9-0.5-1.6-1.3-1.6c-0.5,0-0.9,0.3-1.2,0.6L19.5,48.7z"/>
	<path d="M46.2,79.7c0.1-0.2,0.1-0.2,0.1-0.3c0.5-0.6,0.9-0.8,1.2-0.8c0.4,0,0.6,0.3,0.6,0.9c0,0.6-0.3,1.7-0.5,2.1
		c-0.3,0.7-0.8,1-1.2,1c-0.3,0-0.7-0.3-0.7-1c0-0.2,0-0.4,0.2-1L46.2,79.7z M47.1,75.9c0,0,0-0.1-0.1-0.1c-0.2,0-1,0.1-1.2,0.1
		c-0.1,0-0.2,0-0.2,0.2c0,0.1,0.1,0.1,0.2,0.1c0.5,0,0.5,0.1,0.5,0.2c0,0.1-0.1,0.4-0.1,0.6l-0.8,3.3c-0.1,0.5-0.2,0.7-0.2,1
		c0,0.9,0.5,1.6,1.3,1.6c1.2,0,2.4-1.5,2.4-2.9c0-0.9-0.5-1.6-1.3-1.6c-0.5,0-0.9,0.3-1.2,0.6L47.1,75.9z"/>
	<path d="M68.3,25.8c-0.5,0-1.3-0.2-1.3-1.2c0-0.4,0.1-0.9,0.6-2c0.1-0.2,0.2-0.4,0.2-0.7c0-0.3-0.2-0.3-0.3-0.3
		c-0.3,0-0.7,0.2-1,1.2c0,0.2-0.1,0.2-0.2,0.2c0,0-0.1,0-0.1-0.1c0-0.1,0.4-1.5,1.3-1.5c0.5,0,0.8,0.4,0.8,0.8c0,0.2,0,0.3-0.1,0.5
		c-0.3,0.8-0.6,1.6-0.6,2.1c0,0.5,0.2,0.9,0.7,0.9c1.2,0,1.8-2.3,1.8-2.7c0-0.4-0.1-0.6-0.3-0.8c-0.1-0.1-0.2-0.2-0.2-0.3
		c0-0.2,0.2-0.5,0.5-0.5c0.2,0,0.4,0.2,0.4,0.7C70.5,22.5,70,25.8,68.3,25.8z"/>
	<path d="M1.1,8.1C0.3,8.1,0,7.5,0,6.7c0-0.1,0-0.9,0.4-1.8C0.5,4.6,1,3.7,1.1,3.7c0.1,0,0.1,0,0.1,0.1c0,0,0,0-0.1,0.2
		C0.7,4.7,0.3,5.5,0.3,6.3c0,0.6,0.2,1.1,0.9,1.1c0.3,0,0.8-0.2,1.2-0.8c0.1-0.1,0.1-0.1,0.1-0.3c0.1-0.5,0.2-1,0.2-1
		C2.8,5.2,2.9,5.1,3,5.1c0.1,0,0.2,0.1,0.2,0.2c0,0.1-0.1,0.7-0.3,1.1C2.8,6.6,2.8,6.6,2.8,6.6C2.8,6.8,2.9,7,3,7.2
		c0.2,0.2,0.5,0.2,0.6,0.2c1.1,0,1.9-1.3,1.9-2.2c0-0.2,0-0.5-0.3-0.9C5,4.3,5,4.2,5,4.1c0-0.2,0.2-0.5,0.5-0.5c0.1,0,0.4,0,0.4,0.7
		c0,0.3-0.2,1.8-0.9,2.9C4.6,7.7,4,8.1,3.4,8.1c-0.5,0-0.8-0.3-0.9-0.9C2.2,7.7,1.7,8.1,1.1,8.1z"/>
	<path d="M84.4,91.8c-0.8,0-1.1-0.6-1.1-1.4c0-0.1,0-0.9,0.4-1.8c0.1-0.3,0.6-1.2,0.8-1.2c0.1,0,0.1,0,0.1,0.1c0,0,0,0-0.1,0.2
		c-0.5,0.7-0.8,1.5-0.8,2.2c0,0.6,0.2,1.1,0.9,1.1c0.3,0,0.8-0.2,1.2-0.8c0.1-0.1,0.1-0.1,0.1-0.3c0.1-0.5,0.2-1,0.2-1
		c0.1-0.2,0.2-0.2,0.3-0.2c0.1,0,0.2,0.1,0.2,0.2c0,0.1-0.1,0.7-0.3,1.1c-0.1,0.1-0.1,0.1-0.1,0.2c0,0.2,0.1,0.4,0.2,0.5
		c0.2,0.2,0.5,0.2,0.6,0.2c1.1,0,1.9-1.3,1.9-2.2c0-0.2,0-0.5-0.3-0.9c-0.1-0.1-0.1-0.1-0.1-0.3c0-0.2,0.2-0.5,0.5-0.5
		c0.1,0,0.4,0,0.4,0.7c0,0.3-0.2,1.8-0.9,2.9c-0.4,0.5-0.9,0.9-1.5,0.9c-0.5,0-0.8-0.3-0.9-0.9C85.5,91.3,85,91.8,84.4,91.8z"/>
	<path d="M56.4,56.3c-0.8,0-1.1-0.6-1.1-1.4c0-0.1,0-0.9,0.4-1.8c0.1-0.3,0.6-1.2,0.8-1.2c0.1,0,0.1,0,0.1,0.1c0,0,0,0-0.1,0.2
		c-0.5,0.7-0.8,1.5-0.8,2.2c0,0.6,0.2,1.1,0.9,1.1c0.3,0,0.8-0.2,1.2-0.8c0.1-0.1,0.1-0.1,0.1-0.3c0.1-0.5,0.2-1,0.2-1
		c0.1-0.2,0.2-0.2,0.3-0.2c0.1,0,0.2,0.1,0.2,0.2c0,0.1-0.1,0.7-0.3,1.1c-0.1,0.1-0.1,0.1-0.1,0.2c0,0.2,0.1,0.4,0.2,0.5
		c0.2,0.2,0.5,0.2,0.6,0.2c1.1,0,1.9-1.3,1.9-2.2c0-0.2,0-0.5-0.3-0.9c-0.1-0.1-0.1-0.1-0.1-0.3c0-0.2,0.2-0.5,0.5-0.5
		c0.1,0,0.4,0,0.4,0.7c0,0.3-0.2,1.8-0.9,2.9c-0.4,0.5-0.9,0.9-1.5,0.9c-0.5,0-0.8-0.3-0.9-0.9C57.5,55.9,57.1,56.3,56.4,56.3z"/>
	<g>
		<line fill="none" stroke="#000000" stroke-width="0.5" x1="14.6" y1="39.9" x2="31.2" y2="56.5"/>
		<path d="M32.8,58.1c-1-0.5-2.4-0.9-3.5-1l1.7-0.8l0.8-1.7C31.8,55.7,32.3,57.1,32.8,58.1z"/>
		<path d="M13,38.4c1,0.5,2.4,0.9,3.5,1l-1.7,0.8L14,41.8C14,40.8,13.5,39.4,13,38.4z"/>
	</g>
	<g>
		<line fill="none" stroke="#000000" stroke-width="0.5" x1="43" y1="68.3" x2="59.6" y2="84.9"/>
		<path d="M61.2,86.5c-1-0.5-2.4-0.9-3.5-1l1.7-0.8l0.8-1.7C60.2,84.1,60.7,85.5,61.2,86.5z"/>
		<path d="M41.4,66.8c1,0.5,2.4,0.9,3.5,1l-1.7,0.8l-0.8,1.7C42.4,69.2,41.9,67.8,41.4,66.8z"/>
	</g>
	<g>
		<path fill="none" stroke="#000000" stroke-width="0.5" d="M105.3,16.7c-0.3-4.4-1.8-8.5-4.1-12"/>
		<path d="M101.4,4.9l-0.5,1.1l0,0l-0.4-1.9c-0.2-0.6-0.5-1.2-0.7-1.8c0.5,0.4,0.9,0.9,1.4,1.3l1.6,1.1l0,0L101.4,4.9z"/>
	</g>
	<g>
		<path d="M5.5,10.6l0.2,0c0.2,0,0.3-0.1,0.4-0.1c0.1,0,0.2-0.1,0.2-0.3l1-3.4c0-0.1,0-0.1,0-0.1c0,0,0-0.1,0-0.1
			c0-0.1,0-0.1-0.1-0.2c-0.1,0-0.1,0-0.2,0l-0.3,0V6.2l0.1,0c0.1,0,0.2,0,0.5-0.1C7.5,6,7.7,6,7.9,6L8,6l0.1,0l0,0c0,0,0,0,0,0
			c0,0,0,0,0,0l-1.1,4.2c0,0,0,0,0,0.1c0,0,0,0,0,0.1c0,0.1,0,0.2,0.1,0.2c0.1,0,0.2,0,0.5,0v0.1h-2V10.6z"/>
	</g>
	<g>
		<path d="M89,94.2l1.5-1.6c0.3-0.3,0.5-0.5,0.6-0.7c0.3-0.4,0.4-0.7,0.4-1c0-0.2-0.1-0.4-0.2-0.6c-0.2-0.2-0.4-0.3-0.6-0.3
			c-0.3,0-0.5,0.1-0.7,0.3c-0.1,0.1-0.2,0.2-0.3,0.4l-0.1-0.1c0.2-0.5,0.5-0.8,0.8-1c0.2-0.1,0.4-0.1,0.6-0.1c0.4,0,0.6,0.1,0.8,0.4
			c0.2,0.2,0.3,0.5,0.3,0.8c0,0.3-0.1,0.5-0.2,0.7c-0.2,0.2-0.4,0.5-0.8,0.9l-1.3,1.3v0H91c0.2,0,0.3,0,0.4-0.1
			c0.1-0.1,0.2-0.2,0.3-0.3l0.1,0l-0.3,0.9H89V94.2z"/>
	</g>
</g>
<g id="Layer_2">
</g>
</svg>
