<?xml version="1.0" encoding="utf-8"?>
<!-- Generator: Adobe Illustrator 18.1.1, SVG Export Plug-In . SVG Version: 6.00 Build 0)  -->
<svg version="1.1" xmlns="http://www.w3.org/2000/svg" xmlns:xlink="http://www.w3.org/1999/xlink" x="0px" y="0px"
	 viewBox="0 0 355.1 90.7" enable-background="new 0 0 355.1 90.7" xml:space="preserve">
<g id="Layer_1">
	<circle fill="#FFFFFF" stroke="#000000" stroke-width="0.5" cx="71.7" cy="24.2" r="23.5"/>
	<polygon fill="#C0C0C0" stroke="#000000" stroke-miterlimit="10" points="92.8,30.4 99,29.9 98.1,19.1 94.8,16.2 91.9,19.6 	"/>
</g>
<g id="Layer_2">
	<circle fill="#FFFFFF" stroke="#000000" stroke-width="0.5" cx="23.8" cy="50.7" r="23.5"/>
	<line fill="#FFFFFF" stroke="#000000" stroke-width="0.5" x1="16.6" y1="82.1" x2="97.8" y2="36.8"/>
	<polygon fill="#C0C0C0" stroke="#000000" stroke-miterlimit="10" points="10,66.7 7.2,72.3 17,77.1 21.1,75.7 19.7,71.6 	"/>
	<polygon fill="#C0C0C0" stroke="#000000" stroke-miterlimit="10" points="46.8,61.4 49.8,66.9 59.3,61.6 60.6,57.4 56.4,56.2 	"/>
	<g>
		<path fill="none" stroke="#000000" stroke-width="2" d="M36.4,70.8c-6.7,4.1-15.3,4.8-22.9,1.1"/>
		<line fill="none" stroke="#000000" stroke-width="2" x1="36.4" y1="70.8" x2="84.2" y2="44.3"/>
		<path fill="none" stroke="#000000" stroke-width="2" d="M95.3,25.3c-0.1,3.2-0.9,6.4-2.4,9.4c-2.1,4.2-5.3,7.5-9.1,9.8"/>
	</g>
	<g>
		<g>
			<circle fill="#FFFFFF" stroke="#000000" stroke-width="0.5" cx="290.7" cy="62.8" r="23.5"/>
			<circle fill="#FFFFFF" stroke="#000000" stroke-width="0.5" cx="323.7" cy="29.3" r="23.5"/>
			<circle fill="#FFFFFF" stroke="#000000" stroke-width="0.5" cx="264.2" cy="23.8" r="23.5"/>
			<polygon fill="#C0C0C0" stroke="#000000" stroke-miterlimit="10" points="300.5,13.8 304.7,18.4 312.8,11.2 313.1,6.8 308.7,6.6 
							"/>
			<polygon fill="#C0C0C0" stroke="#000000" stroke-miterlimit="10" points="279.7,80.6 277.7,86.5 287.9,90.1 291.9,88.2 290,84.3 
							"/>
			<polygon fill="#C0C0C0" stroke="#000000" stroke-miterlimit="10" points="290.7,14.8 284.5,15 284.7,25.9 287.9,28.9 290.9,25.7 
							"/>
		</g>
		<g>
			<path fill="none" stroke="#000000" stroke-width="2" d="M306.3,44.9c5.1,4.3,8.3,10.7,8.3,17.9c0,13-10.5,23.5-23.5,23.5
				c-13,0-23.5-10.5-23.5-23.5c0-8.2,4.2-15.5,10.6-19.7"/>
			<path fill="none" stroke="#000000" stroke-width="2" d="M307.3,46c-4.3-4.3-6.9-10.1-6.9-16.6s2.6-12.4,6.9-16.6"/>
			<path fill="none" stroke="#000000" stroke-width="2" d="M287.8,20.8c0.1,1,0.2,2,0.2,3c0,8.1-4.1,15.3-10.4,19.5"/>
		</g>
	</g>
	<g>
		<path d="M17.6,18.4c-0.4,0.2-1.2,0.4-2.1,0.4c-2.3,0-4-1.4-4-4.1c0-2.5,1.7-4.2,4.2-4.2c1,0,1.6,0.2,1.9,0.4l-0.3,0.9
			c-0.4-0.2-1-0.3-1.6-0.3c-1.9,0-3.2,1.2-3.2,3.3c0,2,1.1,3.3,3.1,3.3c0.6,0,1.3-0.1,1.7-0.3L17.6,18.4z"/>
		<path d="M18.9,10.6h1v7.2h3.5v0.9h-4.5V10.6z"/>
		<path d="M29.7,18.4c-0.4,0.2-1.2,0.4-2.1,0.4c-2.3,0-4-1.4-4-4.1c0-2.5,1.7-4.2,4.2-4.2c1,0,1.6,0.2,1.9,0.4l-0.3,0.9
			c-0.4-0.2-1-0.3-1.6-0.3c-1.9,0-3.2,1.2-3.2,3.3c0,2,1.1,3.3,3.1,3.3c0.6,0,1.3-0.1,1.7-0.3L29.7,18.4z"/>
	</g>
	<g>
		<circle fill="#FFFFFF" stroke="#000000" stroke-width="0.5" cx="135.5" cy="47" r="23.5"/>
		<circle fill="#FFFFFF" stroke="#000000" stroke-width="0.5" cx="199.2" cy="38.1" r="23.5"/>
		<line fill="#FFFFFF" stroke="#000000" stroke-width="0.5" x1="140.4" y1="82.1" x2="192.9" y2="5.4"/>
		<polygon fill="#C0C0C0" stroke="#000000" stroke-miterlimit="10" points="130.2,67.4 130.2,73.7 141.1,73.7 144.2,70.6 
			141.1,67.4 		"/>
		<polygon fill="#C0C0C0" stroke="#000000" stroke-miterlimit="10" points="160.9,46.3 166,49.9 172.2,41 171.4,36.6 167.1,37.4 		
			"/>
		<polygon fill="#C0C0C0" stroke="#000000" stroke-miterlimit="10" points="192.3,11.3 192.3,17.5 203.2,17.5 206.3,14.4 
			203.2,11.3 		"/>
		<path fill="none" stroke="#000000" stroke-width="2" d="M155.7,59.4c-4.2,6.7-11.6,11.1-20,11.1"/>
		<path fill="none" stroke="#000000" stroke-width="2" d="M180.5,23.6c4.3-5.5,11-9,18.5-9"/>
		<line fill="#FFFFFF" stroke="#000000" stroke-width="2" x1="155.8" y1="59.6" x2="180.6" y2="23.4"/>
		<g>
			<path d="M102,77.5c-0.4,0.2-1.2,0.4-2.1,0.4c-2.3,0-4-1.4-4-4.1c0-2.5,1.7-4.2,4.2-4.2c1,0,1.6,0.2,1.9,0.4l-0.3,0.9
				c-0.4-0.2-1-0.3-1.6-0.3c-1.9,0-3.2,1.2-3.2,3.3c0,2,1.1,3.3,3.1,3.3c0.6,0,1.3-0.1,1.7-0.3L102,77.5z"/>
			<path d="M103.3,69.6h1v7.2h3.5v0.9h-4.5V69.6z"/>
			<path d="M114.2,77.5c-0.4,0.2-1.2,0.4-2.1,0.4c-2.3,0-4-1.4-4-4.1c0-2.5,1.7-4.2,4.2-4.2c1,0,1.6,0.2,1.9,0.4l-0.3,0.9
				c-0.4-0.2-1-0.3-1.6-0.3c-1.9,0-3.2,1.2-3.2,3.3c0,2,1.1,3.3,3.1,3.3c0.6,0,1.3-0.1,1.7-0.3L114.2,77.5z"/>
		</g>
	</g>
	<g>
		<path d="M244.3,65.9c-0.4,0.2-1.2,0.4-2.1,0.4c-2.3,0-4-1.4-4-4.1c0-2.5,1.7-4.2,4.2-4.2c1,0,1.6,0.2,1.9,0.4l-0.3,0.9
			c-0.4-0.2-1-0.3-1.6-0.3c-1.9,0-3.2,1.2-3.2,3.3c0,2,1.1,3.3,3.1,3.3c0.6,0,1.3-0.1,1.7-0.3L244.3,65.9z"/>
		<path d="M251,65.9c-0.4,0.2-1.2,0.4-2.1,0.4c-2.3,0-4-1.4-4-4.1c0-2.5,1.7-4.2,4.2-4.2c1,0,1.6,0.2,1.9,0.4l-0.3,0.9
			c-0.4-0.2-1-0.3-1.6-0.3c-1.9,0-3.2,1.2-3.2,3.3c0,2,1.1,3.3,3.1,3.3c0.6,0,1.3-0.1,1.7-0.3L251,65.9z"/>
		<path d="M257.7,65.9c-0.4,0.2-1.2,0.4-2.1,0.4c-2.3,0-4-1.4-4-4.1c0-2.5,1.7-4.2,4.2-4.2c1,0,1.6,0.2,1.9,0.4l-0.3,0.9
			c-0.4-0.2-1-0.3-1.6-0.3c-1.9,0-3.2,1.2-3.2,3.3c0,2,1.1,3.3,3.1,3.3c0.6,0,1.3-0.1,1.7-0.3L257.7,65.9z"/>
	</g>
	<line fill="#FFFFFF" stroke="#000000" stroke-width="0.5" x1="230.8" y1="39.4" x2="355.1" y2="50.4"/>
</g>
</svg>
