<?xml version="1.0" encoding="utf-8"?>
<!-- Generator: Adobe Illustrator 18.1.1, SVG Export Plug-In . SVG Version: 6.00 Build 0)  -->
<svg version="1.1" id="Layer_1" xmlns="http://www.w3.org/2000/svg" xmlns:xlink="http://www.w3.org/1999/xlink" x="0px" y="0px"
	 viewBox="-395.3 115.4 475.4 218.9" enable-background="new -395.3 115.4 475.4 218.9" xml:space="preserve">
<g>
	<polyline stroke="#FFFFFF" stroke-width="0.5" points="51.7,256.5 51.7,258.1 32,258.1 32,256.5 	"/>
	<line fill="none" stroke="#000000" stroke-width="0.5" x1="35.2" y1="258.2" x2="33.8" y2="263.8"/>
	<line fill="none" stroke="#000000" stroke-width="0.5" x1="47.8" y1="258.2" x2="46.4" y2="263.8"/>
	<line fill="none" stroke="#000000" stroke-width="0.5" x1="43.6" y1="258.2" x2="42.2" y2="263.8"/>
	<line fill="none" stroke="#000000" stroke-width="0.5" x1="39.4" y1="258.2" x2="38" y2="263.8"/>
</g>
<g>
	<polyline stroke="#FFFFFF" stroke-width="0.5" points="-375.4,256 -375.4,257.6 -395.1,257.6 -395.1,256 	"/>
	<line fill="none" stroke="#000000" stroke-width="0.5" x1="-391.9" y1="257.6" x2="-393.4" y2="263.3"/>
	<line fill="none" stroke="#000000" stroke-width="0.5" x1="-379.3" y1="257.6" x2="-380.7" y2="263.3"/>
	<line fill="none" stroke="#000000" stroke-width="0.5" x1="-383.5" y1="257.6" x2="-384.9" y2="263.3"/>
	<line fill="none" stroke="#000000" stroke-width="0.5" x1="-387.7" y1="257.6" x2="-389.1" y2="263.3"/>
</g>
<path fill="none" stroke="#000000" d="M-385.9,236.8"/>
<line fill="none" stroke="#000000" x1="-385.9" y1="236.8" x2="-385.9" y2="255.8"/>
<polyline fill="none" stroke="#000000" points="-385.9,236.8 -362.9,177.9 -323.7,187 "/>
<g>
	<polyline stroke="#FFFFFF" stroke-width="0.5" points="-279.1,257.3 -279.1,258.9 -298.8,258.9 -298.8,257.3 	"/>
	<line fill="none" stroke="#000000" stroke-width="0.5" x1="-295.7" y1="259" x2="-297.1" y2="264.6"/>
	<line fill="none" stroke="#000000" stroke-width="0.5" x1="-283" y1="259" x2="-284.4" y2="264.6"/>
	<line fill="none" stroke="#000000" stroke-width="0.5" x1="-287.2" y1="259" x2="-288.7" y2="264.6"/>
	<line fill="none" stroke="#000000" stroke-width="0.5" x1="-291.5" y1="259" x2="-292.9" y2="264.6"/>
</g>
<path fill="none" stroke="#000000" d="M-289.7,238.1"/>
<line fill="none" stroke="#000000" x1="-289.7" y1="238.1" x2="-289.7" y2="257.1"/>
<line fill="none" stroke="#000000" x1="-289.7" y1="238.1" x2="-266.7" y2="179.2"/>
<g>
	<circle fill="#FFFFFF" stroke="#000000" stroke-width="0.5" cx="-289.7" cy="238.1" r="5.6"/>
	<ellipse cx="-289.7" cy="238.1" rx="1.8" ry="1.9"/>
</g>
<polyline fill="none" stroke="#000000" points="-265.9,187 -259.2,189.8 -242.7,149.3 "/>
<line fill="none" stroke="#000000" x1="-268.9" y1="194.4" x2="-263" y2="180.1"/>
<line fill="none" stroke="#000000" x1="-275.2" y1="191.8" x2="-269.2" y2="177.5"/>
<line fill="none" stroke="#000000" x1="-275.2" y1="200.4" x2="-263.6" y2="172.3"/>
<polyline fill="none" stroke="#000000" points="71.9,237.3 74.2,170.2 18.3,193 2.9,237.3 "/>
<ellipse fill="none" stroke="#000000" cx="-135.3" cy="137.4" rx="17" ry="21.5"/>
<line fill="none" stroke="#000000" x1="-154" y1="266.9" x2="-117.3" y2="266.9"/>
<line fill="none" stroke="#000000" x1="-166.1" y1="268.1" x2="-173.3" y2="301.4"/>
<line fill="none" stroke="#000000" x1="-109.3" y1="267.9" x2="-102.3" y2="295.4"/>
<circle fill="#FFFFFF" stroke="#000000" stroke-width="0.5" cx="-385.9" cy="236.8" r="5.6"/>
<ellipse cx="-385.9" cy="236.8" rx="1.8" ry="1.9"/>
<circle fill="#FFFFFF" stroke="#000000" stroke-width="0.5" cx="-362.9" cy="177.9" r="5.6"/>
<ellipse cx="-362.9" cy="177.9" rx="1.8" ry="1.9"/>
<path fill="none" stroke="#000000" d="M16.4,231.3"/>
<polyline fill="none" stroke="#000000" points="41.2,256.3 41.2,237.3 71.9,237.3 2.9,237.3 "/>
<circle fill="#FFFFFF" stroke="#000000" stroke-width="0.5" cx="2.9" cy="237.3" r="5.6"/>
<ellipse cx="2.9" cy="237.3" rx="1.8" ry="1.9"/>
<circle fill="#FFFFFF" stroke="#000000" stroke-width="0.5" cx="71.9" cy="237.3" r="5.6"/>
<ellipse cx="71.9" cy="237.3" rx="1.8" ry="1.9"/>
<circle fill="#FFFFFF" stroke="#000000" stroke-width="0.5" cx="74.2" cy="170.2" r="5.6"/>
<ellipse cx="74.2" cy="170.2" rx="1.8" ry="1.9"/>
<circle fill="#FFFFFF" stroke="#000000" stroke-width="0.5" cx="18.3" cy="193" r="5.6"/>
<ellipse cx="18.3" cy="193" rx="1.8" ry="1.9"/>
<polyline fill="#FFFFFF" stroke="#000000" points="-136.3,251.9 -136.3,231.4 -136.3,266.9 "/>
<polygon fill="#FFFFFF" stroke="#000000" points="-140.5,245.4 -132,245.4 -140.5,258.4 -132,258.4 "/>
<polyline fill="#FFFFFF" stroke="#000000" points="-115.8,197.9 -136.3,197.9 -100.8,197.9 "/>
<polygon fill="#FFFFFF" stroke="#000000" points="-122.3,202.1 -122.3,193.6 -109.3,202.1 -109.3,193.6 "/>
<polyline fill="#FFFFFF" stroke="#000000" points="-136.3,179.4 -136.3,158.9 -136.3,194.4 "/>
<polygon fill="#FFFFFF" stroke="#000000" points="-140.5,172.9 -132,172.9 -140.5,185.9 -132,185.9 "/>
<polyline fill="#FFFFFF" stroke="#000000" points="-156.8,197.9 -136.3,197.9 -171.8,197.9 "/>
<polygon fill="#FFFFFF" stroke="#000000" points="-150.3,193.6 -150.3,202.1 -163.3,193.6 -163.3,202.1 "/>
<line fill="none" stroke="#000000" x1="-101.8" y1="198.1" x2="-89.2" y2="198.2"/>
<line fill="none" stroke="#000000" x1="-83.7" y1="199.3" x2="-73.8" y2="214.3"/>
<g>
	<circle fill="#FFFFFF" stroke="#000000" stroke-width="0.5" cx="-83.7" cy="199.3" r="5.6"/>
	<ellipse transform="matrix(-0.7072 -0.707 0.707 -0.7072 -283.8527 281.0535)" cx="-83.7" cy="199.3" rx="1.8" ry="1.9"/>
</g>
<line fill="none" stroke="#000000" x1="-171.8" y1="197.9" x2="-184.3" y2="198.1"/>
<line fill="none" stroke="#000000" x1="-189.8" y1="199.1" x2="-199.7" y2="214.2"/>
<g>
	<circle fill="#FFFFFF" stroke="#000000" stroke-width="0.5" cx="-189.8" cy="199.1" r="5.6"/>
	<ellipse transform="matrix(0.7072 -0.707 0.707 0.7072 -196.3689 -75.9046)" cx="-189.8" cy="199.1" rx="1.8" ry="1.9"/>
</g>
<line fill="none" stroke="#000000" x1="-136.3" y1="190.1" x2="-136.3" y2="234.4"/>
<line fill="none" stroke="#000000" x1="-127.3" y1="266.7" x2="-114.8" y2="266.8"/>
<circle fill="#FFFFFF" stroke="#000000" stroke-width="0.5" cx="-109.3" cy="267.9" r="5.6"/>
<ellipse transform="matrix(-0.7068 -0.7074 0.7074 -0.7068 -376.0115 380.0091)" cx="-109.3" cy="267.9" rx="1.8" ry="1.9"/>
<line fill="none" stroke="#000000" x1="-148" y1="266.9" x2="-160.6" y2="267.1"/>
<circle fill="#FFFFFF" stroke="#000000" stroke-width="0.5" cx="-166.1" cy="268.1" r="5.6"/>
<ellipse transform="matrix(0.7071 -0.7071 0.7071 0.7071 -238.259 -38.9002)" cx="-166.1" cy="268.2" rx="1.8" ry="1.9"/>
<g enable-background="new    ">
	<path d="M-364.4,290.2c0.3,0.7,0.6,1.2,0.9,1.6c0.6,0.7,1.3,1,2.2,1c0.5,0,0.9-0.2,1.2-0.5s0.5-0.7,0.5-1.3c0-0.5-0.2-0.9-0.5-1.3
		c-0.2-0.2-0.7-0.6-1.4-1l-1.3-0.8c-0.4-0.2-0.7-0.5-0.9-0.7c-0.4-0.5-0.6-1-0.6-1.6c0-0.8,0.3-1.4,0.8-1.9c0.5-0.5,1.2-0.8,2-0.8
		c0.3,0,0.8,0.1,1.2,0.3c0.5,0.2,0.8,0.3,0.8,0.3c0.2,0,0.3,0,0.4-0.1s0.1-0.2,0.2-0.4h0.3l0.3,3.2h-0.4c-0.2-1-0.6-1.6-1.2-2
		s-1.1-0.6-1.6-0.6c-0.4,0-0.8,0.1-1.1,0.4c-0.3,0.2-0.5,0.6-0.5,1c0,0.4,0.1,0.7,0.4,1c0.2,0.3,0.6,0.6,1.1,0.9l1.3,0.8
		c0.8,0.5,1.4,1,1.7,1.4c0.3,0.4,0.5,0.9,0.5,1.5c0,0.8-0.3,1.4-0.9,2c-0.6,0.5-1.4,0.8-2.3,0.8c-0.5,0-0.9-0.1-1.5-0.3
		c-0.5-0.2-0.8-0.3-0.9-0.3c-0.2,0-0.3,0.1-0.4,0.2s-0.1,0.2-0.1,0.3h-0.3l-0.4-3.2H-364.4z"/>
	<path d="M-351.8,287c0.5,0.5,0.8,1.2,0.8,2h-4.7c0,1.1,0.3,2,0.8,2.5c0.5,0.5,1,0.8,1.6,0.8c0.5,0,0.9-0.1,1.3-0.4s0.7-0.6,1-1.1
		l0.3,0.1c-0.2,0.6-0.6,1.2-1.1,1.7c-0.5,0.5-1.2,0.8-2,0.8c-0.9,0-1.6-0.3-2.1-1c-0.5-0.7-0.8-1.5-0.8-2.4c0-1,0.3-1.8,0.9-2.5
		s1.3-1.1,2.3-1.1C-352.9,286.3-352.3,286.6-351.8,287z M-355.3,287.6c-0.2,0.3-0.3,0.6-0.3,1h3.1c-0.1-0.5-0.1-0.9-0.3-1.1
		c-0.2-0.4-0.6-0.6-1.2-0.6C-354.6,286.9-355,287.1-355.3,287.6z"/>
	<path d="M-350.3,292.9c0.4,0,0.7-0.1,0.9-0.2c0.1-0.1,0.2-0.4,0.2-0.8v-3.3c0-0.5,0-0.8-0.1-1c-0.1-0.2-0.3-0.3-0.5-0.3
		c0,0-0.1,0-0.2,0c-0.1,0-0.2,0-0.3,0v-0.2c0.3-0.1,0.6-0.2,0.9-0.3c0.3-0.1,0.5-0.2,0.6-0.2c0.2-0.1,0.5-0.2,0.8-0.3
		c0,0,0.1,0,0.1,0c0,0,0,0.1,0,0.2v1.2c0.3-0.4,0.6-0.8,0.9-1c0.3-0.2,0.6-0.4,0.9-0.4c0.2,0,0.5,0.1,0.6,0.2
		c0.2,0.1,0.2,0.3,0.2,0.6c0,0.2-0.1,0.4-0.2,0.5c-0.1,0.1-0.3,0.2-0.5,0.2c-0.2,0-0.4-0.1-0.6-0.3c-0.2-0.2-0.3-0.3-0.4-0.3
		c-0.2,0-0.4,0.1-0.6,0.4c-0.2,0.3-0.4,0.6-0.4,0.9v3.3c0,0.4,0.1,0.7,0.3,0.9c0.2,0.2,0.5,0.2,1,0.2v0.2h-3.6V292.9z"/>
	<path d="M-345.1,293c0.5,0,0.9-0.1,1-0.3c0.1-0.1,0.2-0.5,0.2-1.1v-3.5c0-0.3,0-0.5-0.1-0.7c-0.1-0.2-0.2-0.3-0.5-0.3
		c-0.1,0-0.1,0-0.2,0c-0.1,0-0.2,0-0.4,0.1v-0.2l0.3-0.1c0.9-0.3,1.5-0.5,1.8-0.6c0.1-0.1,0.2-0.1,0.3-0.1c0,0,0,0.1,0,0.1v5.3
		c0,0.6,0.1,0.9,0.2,1c0.1,0.1,0.4,0.2,0.9,0.3v0.2h-3.6V293z M-343.9,283.2c0.1-0.2,0.3-0.2,0.5-0.2c0.2,0,0.4,0.1,0.5,0.2
		c0.1,0.1,0.2,0.3,0.2,0.5c0,0.2-0.1,0.4-0.2,0.5c-0.1,0.1-0.3,0.2-0.5,0.2c-0.2,0-0.4-0.1-0.5-0.2c-0.1-0.1-0.2-0.3-0.2-0.5
		S-344.1,283.3-343.9,283.2z"/>
	<path d="M-339.6,290c0.4-0.3,1.3-0.7,2.7-1.2v-0.6c0-0.5,0-0.8-0.1-1c-0.2-0.3-0.5-0.5-1-0.5c-0.2,0-0.5,0.1-0.7,0.2
		c-0.2,0.1-0.3,0.3-0.3,0.5c0,0.1,0,0.2,0,0.3c0,0.1,0,0.2,0,0.3c0,0.3-0.1,0.5-0.3,0.6c-0.1,0.1-0.2,0.1-0.4,0.1
		c-0.2,0-0.4-0.1-0.5-0.2c-0.1-0.1-0.2-0.3-0.2-0.5c0-0.3,0.2-0.7,0.6-1.1c0.4-0.4,1-0.6,1.9-0.6c0.9,0,1.6,0.3,1.9,0.9
		c0.2,0.3,0.3,0.8,0.3,1.5v2.9c0,0.3,0,0.5,0.1,0.6c0.1,0.2,0.2,0.3,0.4,0.3c0.1,0,0.2,0,0.3-0.1s0.2-0.1,0.4-0.2v0.4
		c-0.2,0.2-0.3,0.3-0.5,0.5c-0.3,0.2-0.6,0.3-0.8,0.3c-0.3,0-0.6-0.1-0.7-0.3s-0.2-0.5-0.2-0.8c-0.4,0.3-0.7,0.6-1,0.7
		c-0.4,0.3-0.9,0.4-1.3,0.4c-0.4,0-0.8-0.1-1.1-0.4c-0.3-0.3-0.5-0.7-0.5-1.1C-340.7,291-340.3,290.4-339.6,290z M-336.9,289.1
		c-0.6,0.2-1,0.4-1.4,0.6c-0.7,0.4-1.1,0.9-1.1,1.5c0,0.4,0.1,0.8,0.4,1c0.2,0.1,0.4,0.2,0.6,0.2c0.3,0,0.6-0.1,0.9-0.3
		c0.3-0.2,0.4-0.4,0.4-0.7V289.1z"/>
	<path d="M-334.3,293c0.5,0,0.8-0.1,0.9-0.3c0.2-0.1,0.2-0.4,0.2-0.8v-7.2c0-0.3,0-0.5-0.1-0.7c-0.1-0.2-0.3-0.3-0.6-0.3
		c-0.1,0-0.1,0-0.2,0c-0.1,0-0.2,0-0.3,0.1v-0.2c0.7-0.2,1.5-0.4,2.4-0.7c0,0,0.1,0,0.1,0c0,0,0,0.1,0,0.2v8.8
		c0,0.4,0.1,0.7,0.2,0.8c0.1,0.1,0.4,0.2,0.9,0.2v0.2h-3.5V293z"/>
	<path d="M-321.3,286.8c0.4,0.3,0.7,0.7,0.7,1c0,0.2-0.1,0.3-0.2,0.4s-0.3,0.2-0.5,0.2c-0.2,0-0.3-0.1-0.5-0.2s-0.2-0.3-0.3-0.5
		l-0.1-0.4c-0.1-0.3-0.2-0.4-0.3-0.5c-0.2-0.1-0.4-0.2-0.6-0.2c-0.6,0-1,0.2-1.4,0.7c-0.4,0.5-0.6,1.1-0.6,1.9c0,0.7,0.2,1.4,0.6,2
		c0.4,0.6,1,0.9,1.7,0.9c0.5,0,1-0.2,1.4-0.5c0.2-0.2,0.5-0.5,0.8-0.9l0.2,0.1c-0.3,0.6-0.6,1.1-0.9,1.4c-0.6,0.7-1.3,1-2.1,1
		c-0.8,0-1.4-0.3-2-0.9s-0.9-1.4-0.9-2.4c0-1,0.3-1.9,1-2.6s1.4-1.1,2.4-1.1C-322.3,286.3-321.8,286.4-321.3,286.8z"/>
	<path d="M-319.9,293c0.4-0.1,0.7-0.2,0.8-0.3c0.1-0.1,0.2-0.5,0.2-1v-7c0-0.3,0-0.5-0.1-0.6c-0.1-0.1-0.2-0.2-0.5-0.2
		c-0.1,0-0.1,0-0.2,0c-0.1,0-0.1,0-0.2,0v-0.3c0.2-0.1,0.5-0.1,0.8-0.2c0.3-0.1,0.5-0.2,0.7-0.2l0.7-0.2l0,0.1v4.5
		c0.3-0.4,0.6-0.6,0.8-0.8c0.4-0.3,0.9-0.4,1.4-0.4c0.8,0,1.3,0.3,1.6,1c0.2,0.4,0.2,0.8,0.2,1.4v3c0,0.5,0.1,0.9,0.2,1
		c0.1,0.2,0.4,0.3,0.7,0.3v0.2h-3.2V293c0.4-0.1,0.7-0.2,0.8-0.3c0.1-0.1,0.2-0.5,0.2-1v-3c0-0.5-0.1-0.9-0.2-1.1
		c-0.2-0.3-0.5-0.4-0.9-0.4c-0.4,0-0.7,0.1-1.1,0.4s-0.5,0.5-0.5,0.5v3.6c0,0.5,0.1,0.9,0.2,1s0.4,0.2,0.8,0.3v0.2h-3.2V293z"/>
	<path d="M-310.9,290c0.4-0.3,1.3-0.7,2.7-1.2v-0.6c0-0.5,0-0.8-0.1-1c-0.2-0.3-0.5-0.5-1-0.5c-0.2,0-0.5,0.1-0.7,0.2
		c-0.2,0.1-0.3,0.3-0.3,0.5c0,0.1,0,0.2,0,0.3c0,0.1,0,0.2,0,0.3c0,0.3-0.1,0.5-0.3,0.6c-0.1,0.1-0.2,0.1-0.4,0.1
		c-0.2,0-0.4-0.1-0.5-0.2c-0.1-0.1-0.2-0.3-0.2-0.5c0-0.3,0.2-0.7,0.6-1.1c0.4-0.4,1-0.6,1.9-0.6c0.9,0,1.6,0.3,1.9,0.9
		c0.2,0.3,0.3,0.8,0.3,1.5v2.9c0,0.3,0,0.5,0.1,0.6c0.1,0.2,0.2,0.3,0.4,0.3c0.1,0,0.2,0,0.3-0.1s0.2-0.1,0.4-0.2v0.4
		c-0.2,0.2-0.3,0.3-0.5,0.5c-0.3,0.2-0.6,0.3-0.8,0.3c-0.3,0-0.6-0.1-0.7-0.3s-0.2-0.5-0.2-0.8c-0.4,0.3-0.7,0.6-1,0.7
		c-0.4,0.3-0.9,0.4-1.3,0.4c-0.4,0-0.8-0.1-1.1-0.4c-0.3-0.3-0.5-0.7-0.5-1.1C-311.9,291-311.6,290.4-310.9,290z M-308.2,289.1
		c-0.6,0.2-1,0.4-1.4,0.6c-0.7,0.4-1.1,0.9-1.1,1.5c0,0.4,0.1,0.8,0.4,1c0.2,0.1,0.4,0.2,0.6,0.2c0.3,0,0.6-0.1,0.9-0.3
		c0.3-0.2,0.4-0.4,0.4-0.7V289.1z"/>
	<path d="M-305.5,293c0.5,0,0.9-0.1,1-0.3c0.1-0.1,0.2-0.5,0.2-1.1v-3.5c0-0.3,0-0.5-0.1-0.7c-0.1-0.2-0.2-0.3-0.5-0.3
		c-0.1,0-0.1,0-0.2,0c-0.1,0-0.2,0-0.4,0.1v-0.2l0.3-0.1c0.9-0.3,1.5-0.5,1.8-0.6c0.1-0.1,0.2-0.1,0.3-0.1c0,0,0,0.1,0,0.1v5.3
		c0,0.6,0.1,0.9,0.2,1c0.1,0.1,0.4,0.2,0.9,0.3v0.2h-3.6V293z M-304.4,283.2c0.1-0.2,0.3-0.2,0.5-0.2c0.2,0,0.4,0.1,0.5,0.2
		c0.1,0.1,0.2,0.3,0.2,0.5c0,0.2-0.1,0.4-0.2,0.5c-0.1,0.1-0.3,0.2-0.5,0.2c-0.2,0-0.4-0.1-0.5-0.2c-0.1-0.1-0.2-0.3-0.2-0.5
		S-304.5,283.3-304.4,283.2z"/>
	<path d="M-301.4,293c0.3,0,0.6-0.1,0.7-0.3c0.1-0.1,0.2-0.4,0.2-0.9v-3.7c0-0.3,0-0.5-0.1-0.7c-0.1-0.2-0.3-0.3-0.6-0.3
		c0,0-0.1,0-0.1,0c0,0-0.1,0-0.2,0V287c0.2-0.1,0.7-0.2,1.4-0.5l0.7-0.2c0,0,0.1,0,0.1,0c0,0,0,0.1,0,0.1v1.1
		c0.4-0.4,0.8-0.7,1.1-0.9c0.4-0.2,0.8-0.4,1.2-0.4c0.3,0,0.6,0.1,0.9,0.3c0.5,0.4,0.8,1,0.8,2v3.4c0,0.4,0.1,0.6,0.2,0.8
		c0.1,0.2,0.4,0.2,0.7,0.2v0.2h-3.1V293c0.4,0,0.6-0.1,0.7-0.3c0.1-0.1,0.2-0.5,0.2-1v-3.1c0-0.4-0.1-0.8-0.2-1
		c-0.2-0.3-0.4-0.4-0.9-0.4c-0.3,0-0.6,0.1-0.9,0.3c-0.2,0.1-0.4,0.3-0.6,0.6v4.1c0,0.4,0.1,0.6,0.2,0.7c0.2,0.1,0.4,0.2,0.7,0.2
		v0.2h-3.2V293z"/>
	<path d="M-293.4,290.9h0.2c0.1,0.6,0.3,1,0.5,1.3c0.3,0.5,0.8,0.8,1.5,0.8c0.4,0,0.7-0.1,0.9-0.3c0.2-0.2,0.3-0.5,0.3-0.8
		c0-0.2-0.1-0.4-0.2-0.6s-0.3-0.4-0.6-0.6l-0.8-0.5c-0.6-0.3-1-0.6-1.3-1c-0.3-0.3-0.4-0.7-0.4-1.2c0-0.5,0.2-1,0.6-1.3
		s0.9-0.5,1.5-0.5c0.3,0,0.5,0,0.9,0.1c0.3,0.1,0.5,0.1,0.5,0.1c0.1,0,0.2,0,0.2,0s0.1-0.1,0.1-0.1h0.2l0.1,2h-0.2
		c-0.1-0.5-0.2-0.8-0.4-1.1c-0.3-0.5-0.7-0.7-1.3-0.7c-0.3,0-0.6,0.1-0.8,0.3s-0.3,0.5-0.3,0.7c0,0.4,0.3,0.8,1,1.2l1,0.5
		c1,0.6,1.6,1.2,1.6,2c0,0.6-0.2,1-0.6,1.4c-0.4,0.4-1,0.5-1.7,0.5c-0.3,0-0.6,0-1-0.1c-0.4-0.1-0.6-0.1-0.7-0.1
		c-0.1,0-0.1,0-0.2,0.1c0,0-0.1,0.1-0.1,0.2h-0.2V290.9z"/>
</g>
<g enable-background="new    ">
	<path d="M-7,295.1c0.6-0.1,0.9-0.2,1.1-0.3s0.2-0.6,0.2-1.2v-6.5c0-0.5-0.1-0.9-0.2-1c-0.2-0.2-0.5-0.3-1-0.3v-0.3h4
		c1.3,0,2.2,0.2,2.9,0.7s1,1.1,1,1.9c0,1-0.4,1.8-1.1,2.2c-0.7,0.5-1.7,0.7-2.8,0.7c-0.2,0-0.4,0-0.6,0c-0.3,0-0.4,0-0.6,0v2.7
		c0,0.6,0.1,0.9,0.3,1.1c0.2,0.1,0.6,0.2,1.2,0.3v0.3H-7V295.1z M-2,286.3c-0.4-0.2-1-0.3-1.6-0.3c-0.3,0-0.5,0-0.6,0.1
		c-0.1,0.1-0.1,0.2-0.1,0.4v3.9c0.3,0,0.4,0,0.5,0s0.2,0,0.2,0c0.7,0,1.2-0.1,1.6-0.3c0.7-0.4,1.1-1,1.1-2
		C-0.8,287.3-1.2,286.6-2,286.3z"/>
	<path d="M2.7,292.2c0.4-0.3,1.3-0.7,2.7-1.2v-0.6c0-0.5,0-0.8-0.1-1c-0.2-0.3-0.5-0.5-1-0.5c-0.2,0-0.5,0.1-0.7,0.2
		c-0.2,0.1-0.3,0.3-0.3,0.5c0,0.1,0,0.2,0,0.3c0,0.1,0,0.2,0,0.3c0,0.3-0.1,0.5-0.3,0.6c-0.1,0.1-0.2,0.1-0.4,0.1
		c-0.2,0-0.4-0.1-0.5-0.2c-0.1-0.1-0.2-0.3-0.2-0.5c0-0.3,0.2-0.7,0.6-1.1c0.4-0.4,1-0.6,1.9-0.6c0.9,0,1.6,0.3,1.9,0.9
		c0.2,0.3,0.3,0.8,0.3,1.5v2.9c0,0.3,0,0.5,0.1,0.6c0.1,0.2,0.2,0.3,0.4,0.3c0.1,0,0.2,0,0.3-0.1s0.2-0.1,0.4-0.2v0.4
		c-0.2,0.2-0.3,0.3-0.5,0.5c-0.3,0.2-0.6,0.3-0.8,0.3c-0.3,0-0.6-0.1-0.7-0.3c-0.1-0.2-0.2-0.5-0.2-0.8c-0.4,0.3-0.7,0.6-1,0.7
		c-0.4,0.3-0.9,0.4-1.3,0.4c-0.4,0-0.8-0.1-1.1-0.4c-0.3-0.3-0.5-0.7-0.5-1.1C1.6,293.2,2,292.6,2.7,292.2z M5.4,291.3
		c-0.6,0.2-1,0.4-1.4,0.6c-0.7,0.4-1.1,0.9-1.1,1.5c0,0.4,0.1,0.8,0.4,1c0.2,0.1,0.4,0.2,0.6,0.2c0.3,0,0.6-0.1,0.9-0.3
		c0.3-0.2,0.4-0.4,0.4-0.7V291.3z"/>
	<path d="M7.8,295.2c0.4,0,0.7-0.1,0.9-0.2c0.1-0.1,0.2-0.4,0.2-0.8v-3.3c0-0.5,0-0.8-0.1-1c-0.1-0.2-0.3-0.3-0.5-0.3
		c0,0-0.1,0-0.2,0c-0.1,0-0.2,0-0.3,0v-0.2c0.3-0.1,0.6-0.2,0.9-0.3s0.5-0.2,0.6-0.2c0.2-0.1,0.5-0.2,0.8-0.3c0,0,0.1,0,0.1,0
		c0,0,0,0.1,0,0.2v1.2c0.3-0.4,0.6-0.8,0.9-1s0.6-0.4,0.9-0.4c0.2,0,0.5,0.1,0.6,0.2c0.2,0.1,0.2,0.3,0.2,0.6c0,0.2-0.1,0.4-0.2,0.5
		c-0.1,0.1-0.3,0.2-0.5,0.2c-0.2,0-0.4-0.1-0.6-0.3c-0.2-0.2-0.3-0.3-0.4-0.3c-0.2,0-0.4,0.1-0.6,0.4c-0.2,0.3-0.4,0.6-0.4,0.9v3.3
		c0,0.4,0.1,0.7,0.3,0.9c0.2,0.2,0.5,0.2,1,0.2v0.2H7.8V295.2z"/>
	<path d="M14.3,292.2c0.4-0.3,1.3-0.7,2.7-1.2v-0.6c0-0.5,0-0.8-0.1-1c-0.2-0.3-0.5-0.5-1-0.5c-0.2,0-0.5,0.1-0.7,0.2
		c-0.2,0.1-0.3,0.3-0.3,0.5c0,0.1,0,0.2,0,0.3c0,0.1,0,0.2,0,0.3c0,0.3-0.1,0.5-0.3,0.6c-0.1,0.1-0.2,0.1-0.4,0.1
		c-0.2,0-0.4-0.1-0.5-0.2c-0.1-0.1-0.2-0.3-0.2-0.5c0-0.3,0.2-0.7,0.6-1.1c0.4-0.4,1-0.6,1.9-0.6c0.9,0,1.6,0.3,1.9,0.9
		c0.2,0.3,0.3,0.8,0.3,1.5v2.9c0,0.3,0,0.5,0.1,0.6c0.1,0.2,0.2,0.3,0.4,0.3c0.1,0,0.2,0,0.3-0.1s0.2-0.1,0.4-0.2v0.4
		c-0.2,0.2-0.3,0.3-0.5,0.5c-0.3,0.2-0.6,0.3-0.8,0.3c-0.3,0-0.6-0.1-0.7-0.3c-0.1-0.2-0.2-0.5-0.2-0.8c-0.4,0.3-0.7,0.6-1,0.7
		c-0.4,0.3-0.9,0.4-1.3,0.4c-0.4,0-0.8-0.1-1.1-0.4c-0.3-0.3-0.5-0.7-0.5-1.1C13.3,293.2,13.6,292.6,14.3,292.2z M17,291.3
		c-0.6,0.2-1,0.4-1.4,0.6c-0.7,0.4-1.1,0.9-1.1,1.5c0,0.4,0.1,0.8,0.4,1c0.2,0.1,0.4,0.2,0.6,0.2c0.3,0,0.6-0.1,0.9-0.3
		c0.3-0.2,0.4-0.4,0.4-0.7V291.3z"/>
	<path d="M19.7,295.2c0.5,0,0.8-0.1,0.9-0.3c0.2-0.1,0.2-0.4,0.2-0.8v-7.2c0-0.3,0-0.5-0.1-0.7c-0.1-0.2-0.3-0.3-0.6-0.3
		c-0.1,0-0.1,0-0.2,0c-0.1,0-0.2,0-0.3,0.1v-0.2c0.7-0.2,1.5-0.4,2.4-0.7c0,0,0.1,0,0.1,0c0,0,0,0.1,0,0.2v8.8
		c0,0.4,0.1,0.7,0.2,0.8c0.1,0.1,0.4,0.2,0.9,0.2v0.2h-3.5V295.2z"/>
	<path d="M23.9,295.2c0.5,0,0.8-0.1,0.9-0.3c0.2-0.1,0.2-0.4,0.2-0.8v-7.2c0-0.3,0-0.5-0.1-0.7c-0.1-0.2-0.3-0.3-0.6-0.3
		c-0.1,0-0.1,0-0.2,0c-0.1,0-0.2,0-0.3,0.1v-0.2c0.7-0.2,1.5-0.4,2.4-0.7c0,0,0.1,0,0.1,0c0,0,0,0.1,0,0.2v8.8
		c0,0.4,0.1,0.7,0.2,0.8c0.1,0.1,0.4,0.2,0.9,0.2v0.2h-3.5V295.2z"/>
	<path d="M33,289.2c0.5,0.5,0.8,1.2,0.8,2h-4.7c0,1.1,0.3,2,0.8,2.5c0.5,0.5,1,0.8,1.6,0.8c0.5,0,0.9-0.1,1.3-0.4s0.7-0.6,1-1.1
		l0.3,0.1c-0.2,0.6-0.6,1.2-1.1,1.7c-0.5,0.5-1.2,0.8-2,0.8c-0.9,0-1.6-0.3-2.1-1c-0.5-0.7-0.8-1.5-0.8-2.4c0-1,0.3-1.8,0.9-2.5
		s1.3-1.1,2.3-1.1C31.8,288.5,32.4,288.8,33,289.2z M29.5,289.8c-0.2,0.3-0.3,0.6-0.3,1h3.1c-0.1-0.5-0.1-0.9-0.3-1.1
		c-0.2-0.4-0.6-0.6-1.2-0.6C30.2,289.1,29.7,289.3,29.5,289.8z"/>
	<path d="M34.7,295.2c0.5,0,0.8-0.1,0.9-0.3c0.2-0.1,0.2-0.4,0.2-0.8v-7.2c0-0.3,0-0.5-0.1-0.7c-0.1-0.2-0.3-0.3-0.6-0.3
		c-0.1,0-0.1,0-0.2,0c-0.1,0-0.2,0-0.3,0.1v-0.2c0.7-0.2,1.5-0.4,2.4-0.7c0,0,0.1,0,0.1,0c0,0,0,0.1,0,0.2v8.8
		c0,0.4,0.1,0.7,0.2,0.8c0.1,0.1,0.4,0.2,0.9,0.2v0.2h-3.5V295.2z"/>
	<path d="M47.6,289c0.4,0.3,0.7,0.7,0.7,1c0,0.2-0.1,0.3-0.2,0.4s-0.3,0.2-0.5,0.2c-0.2,0-0.3-0.1-0.5-0.2c-0.1-0.1-0.2-0.3-0.3-0.5
		l-0.1-0.4c-0.1-0.3-0.2-0.4-0.3-0.5c-0.2-0.1-0.4-0.2-0.6-0.2c-0.6,0-1,0.2-1.4,0.7c-0.4,0.5-0.6,1.1-0.6,1.9c0,0.7,0.2,1.4,0.6,2
		c0.4,0.6,1,0.9,1.7,0.9c0.5,0,1-0.2,1.4-0.5c0.2-0.2,0.5-0.5,0.8-0.9l0.2,0.1c-0.3,0.6-0.6,1.1-0.9,1.4c-0.6,0.7-1.3,1-2.1,1
		c-0.8,0-1.4-0.3-2-0.9s-0.9-1.4-0.9-2.4c0-1,0.3-1.9,1-2.6s1.4-1.1,2.4-1.1C46.6,288.5,47.2,288.6,47.6,289z"/>
	<path d="M49.1,295.2c0.4-0.1,0.7-0.2,0.8-0.3c0.1-0.1,0.2-0.5,0.2-1v-7c0-0.3,0-0.5-0.1-0.6c-0.1-0.1-0.2-0.2-0.5-0.2
		c-0.1,0-0.1,0-0.2,0c-0.1,0-0.1,0-0.2,0v-0.3c0.2-0.1,0.5-0.1,0.8-0.2c0.3-0.1,0.5-0.2,0.7-0.2l0.7-0.2l0,0.1v4.5
		c0.3-0.4,0.6-0.6,0.8-0.8c0.4-0.3,0.9-0.4,1.4-0.4c0.8,0,1.3,0.3,1.6,1c0.2,0.4,0.2,0.8,0.2,1.4v3c0,0.5,0.1,0.9,0.2,1
		c0.1,0.2,0.4,0.3,0.7,0.3v0.2h-3.2v-0.2c0.4-0.1,0.7-0.2,0.8-0.3c0.1-0.1,0.2-0.5,0.2-1v-3c0-0.5-0.1-0.9-0.2-1.1
		c-0.2-0.3-0.5-0.4-0.9-0.4c-0.4,0-0.7,0.1-1.1,0.4s-0.5,0.5-0.5,0.5v3.6c0,0.5,0.1,0.9,0.2,1s0.4,0.2,0.8,0.3v0.2h-3.2V295.2z"/>
	<path d="M58.1,292.2c0.4-0.3,1.3-0.7,2.7-1.2v-0.6c0-0.5,0-0.8-0.1-1c-0.2-0.3-0.5-0.5-1-0.5c-0.2,0-0.5,0.1-0.7,0.2
		c-0.2,0.1-0.3,0.3-0.3,0.5c0,0.1,0,0.2,0,0.3c0,0.1,0,0.2,0,0.3c0,0.3-0.1,0.5-0.3,0.6c-0.1,0.1-0.2,0.1-0.4,0.1
		c-0.2,0-0.4-0.1-0.5-0.2c-0.1-0.1-0.2-0.3-0.2-0.5c0-0.3,0.2-0.7,0.6-1.1c0.4-0.4,1-0.6,1.9-0.6c0.9,0,1.6,0.3,1.9,0.9
		c0.2,0.3,0.3,0.8,0.3,1.5v2.9c0,0.3,0,0.5,0.1,0.6c0.1,0.2,0.2,0.3,0.4,0.3c0.1,0,0.2,0,0.3-0.1s0.2-0.1,0.4-0.2v0.4
		c-0.2,0.2-0.3,0.3-0.5,0.5c-0.3,0.2-0.6,0.3-0.8,0.3c-0.3,0-0.6-0.1-0.7-0.3c-0.1-0.2-0.2-0.5-0.2-0.8c-0.4,0.3-0.7,0.6-1,0.7
		c-0.4,0.3-0.9,0.4-1.3,0.4c-0.4,0-0.8-0.1-1.1-0.4c-0.3-0.3-0.5-0.7-0.5-1.1C57,293.2,57.4,292.6,58.1,292.2z M60.7,291.3
		c-0.6,0.2-1,0.4-1.4,0.6c-0.7,0.4-1.1,0.9-1.1,1.5c0,0.4,0.1,0.8,0.4,1c0.2,0.1,0.4,0.2,0.6,0.2c0.3,0,0.6-0.1,0.9-0.3
		c0.3-0.2,0.4-0.4,0.4-0.7V291.3z"/>
	<path d="M63.4,295.2c0.5,0,0.9-0.1,1-0.3c0.1-0.1,0.2-0.5,0.2-1.1v-3.5c0-0.3,0-0.5-0.1-0.7c-0.1-0.2-0.2-0.3-0.5-0.3
		c-0.1,0-0.1,0-0.2,0c-0.1,0-0.2,0-0.4,0.1v-0.2l0.3-0.1c0.9-0.3,1.5-0.5,1.8-0.6c0.1-0.1,0.2-0.1,0.3-0.1c0,0,0,0.1,0,0.1v5.3
		c0,0.6,0.1,0.9,0.2,1c0.1,0.1,0.4,0.2,0.9,0.3v0.2h-3.6V295.2z M64.6,285.4c0.1-0.2,0.3-0.2,0.5-0.2c0.2,0,0.4,0.1,0.5,0.2
		c0.1,0.1,0.2,0.3,0.2,0.5c0,0.2-0.1,0.4-0.2,0.5c-0.1,0.1-0.3,0.2-0.5,0.2c-0.2,0-0.4-0.1-0.5-0.2c-0.1-0.1-0.2-0.3-0.2-0.5
		S64.4,285.5,64.6,285.4z"/>
	<path d="M67.5,295.2c0.3,0,0.6-0.1,0.7-0.3c0.1-0.1,0.2-0.4,0.2-0.9v-3.7c0-0.3,0-0.5-0.1-0.7c-0.1-0.2-0.3-0.3-0.6-0.3
		c0,0-0.1,0-0.1,0c0,0-0.1,0-0.2,0v-0.3c0.2-0.1,0.7-0.2,1.4-0.5l0.7-0.2c0,0,0.1,0,0.1,0c0,0,0,0.1,0,0.1v1.1
		c0.4-0.4,0.8-0.7,1.1-0.9c0.4-0.2,0.8-0.4,1.2-0.4c0.3,0,0.6,0.1,0.9,0.3c0.5,0.4,0.8,1,0.8,2v3.4c0,0.4,0.1,0.6,0.2,0.8
		c0.1,0.2,0.4,0.2,0.7,0.2v0.2h-3.1v-0.2c0.4,0,0.6-0.1,0.7-0.3c0.1-0.1,0.2-0.5,0.2-1v-3.1c0-0.4-0.1-0.8-0.2-1
		c-0.2-0.3-0.4-0.4-0.9-0.4c-0.3,0-0.6,0.1-0.9,0.3c-0.2,0.1-0.4,0.3-0.6,0.6v4.1c0,0.4,0.1,0.6,0.2,0.7c0.2,0.1,0.4,0.2,0.7,0.2
		v0.2h-3.2V295.2z"/>
</g>
<g enable-background="new    ">
	<path d="M-199.5,327.6c0.6,0,1-0.1,1.2-0.3c0.2-0.2,0.3-0.5,0.3-1.1v-6.7c0-0.6-0.1-0.9-0.3-1.1c-0.2-0.2-0.6-0.3-1.2-0.3V318h4.2
		c1.2,0,2.2,0.2,2.9,0.6c0.7,0.4,1.1,1,1.1,2c0,0.7-0.2,1.2-0.7,1.6c-0.3,0.2-0.7,0.4-1.3,0.5c0.7,0.2,1.3,0.4,1.8,0.8
		c0.5,0.4,0.7,0.9,0.7,1.6c0,1.2-0.5,2-1.6,2.4c-0.6,0.2-1.3,0.3-2.1,0.3h-4.9V327.6z M-193.8,322.2c0.6-0.3,1-0.8,1-1.6
		c0-0.9-0.4-1.5-1.1-1.8c-0.4-0.2-1-0.3-1.8-0.3c-0.3,0-0.5,0-0.6,0.1s-0.1,0.2-0.1,0.4v3.4l1.4,0
		C-194.6,322.4-194.2,322.3-193.8,322.2z M-193.3,326.9c0.5-0.3,0.8-0.9,0.8-1.7c0-0.8-0.3-1.4-0.9-1.7s-1.4-0.5-2.3-0.5
		c-0.2,0-0.4,0-0.4,0c-0.1,0-0.2,0-0.3,0v3.7c0,0.3,0.1,0.4,0.2,0.5c0.1,0.1,0.5,0.1,1,0.1C-194.5,327.4-193.9,327.2-193.3,326.9z"
		/>
	<path d="M-189.7,327.7c0.4,0,0.7-0.1,0.9-0.2c0.1-0.1,0.2-0.4,0.2-0.8v-3.3c0-0.5,0-0.8-0.1-1c-0.1-0.2-0.3-0.3-0.5-0.3
		c0,0-0.1,0-0.2,0c-0.1,0-0.2,0-0.3,0v-0.2c0.3-0.1,0.6-0.2,0.9-0.3c0.3-0.1,0.5-0.2,0.6-0.2c0.2-0.1,0.5-0.2,0.8-0.3
		c0,0,0.1,0,0.1,0c0,0,0,0.1,0,0.2v1.2c0.3-0.4,0.6-0.8,0.9-1c0.3-0.2,0.6-0.4,0.9-0.4c0.2,0,0.5,0.1,0.6,0.2
		c0.2,0.1,0.2,0.3,0.2,0.6c0,0.2-0.1,0.4-0.2,0.5c-0.1,0.1-0.3,0.2-0.5,0.2c-0.2,0-0.4-0.1-0.6-0.3c-0.2-0.2-0.3-0.3-0.4-0.3
		c-0.2,0-0.4,0.1-0.6,0.4c-0.2,0.3-0.4,0.6-0.4,0.9v3.3c0,0.4,0.1,0.7,0.3,0.9c0.2,0.2,0.5,0.2,1,0.2v0.2h-3.6V327.7z"/>
	<path d="M-183.1,324.7c0.4-0.3,1.3-0.7,2.7-1.2v-0.6c0-0.5,0-0.8-0.1-1c-0.2-0.3-0.5-0.5-1-0.5c-0.2,0-0.5,0.1-0.7,0.2
		c-0.2,0.1-0.3,0.3-0.3,0.5c0,0.1,0,0.2,0,0.3c0,0.1,0,0.2,0,0.3c0,0.3-0.1,0.5-0.3,0.6c-0.1,0.1-0.2,0.1-0.4,0.1
		c-0.2,0-0.4-0.1-0.5-0.2c-0.1-0.1-0.2-0.3-0.2-0.5c0-0.3,0.2-0.7,0.6-1.1c0.4-0.4,1-0.6,1.9-0.6c0.9,0,1.6,0.3,1.9,0.9
		c0.2,0.3,0.3,0.8,0.3,1.5v2.9c0,0.3,0,0.5,0.1,0.6c0.1,0.2,0.2,0.3,0.4,0.3c0.1,0,0.2,0,0.3-0.1s0.2-0.1,0.4-0.2v0.4
		c-0.2,0.2-0.3,0.3-0.5,0.5c-0.3,0.2-0.6,0.3-0.8,0.3c-0.3,0-0.6-0.1-0.7-0.3s-0.2-0.5-0.2-0.8c-0.4,0.3-0.7,0.6-1,0.7
		c-0.4,0.3-0.9,0.4-1.3,0.4c-0.4,0-0.8-0.1-1.1-0.4c-0.3-0.3-0.5-0.7-0.5-1.1C-184.2,325.7-183.8,325.2-183.1,324.7z M-180.4,323.9
		c-0.6,0.2-1,0.4-1.4,0.6c-0.7,0.4-1.1,0.9-1.1,1.5c0,0.4,0.1,0.8,0.4,1c0.2,0.1,0.4,0.2,0.6,0.2c0.3,0,0.6-0.1,0.9-0.3
		c0.3-0.2,0.4-0.4,0.4-0.7V323.9z"/>
	<path d="M-177.8,327.7c0.3,0,0.6-0.1,0.7-0.3c0.1-0.1,0.2-0.4,0.2-0.9v-3.7c0-0.3,0-0.5-0.1-0.7c-0.1-0.2-0.3-0.3-0.6-0.3
		c0,0-0.1,0-0.1,0c0,0-0.1,0-0.2,0v-0.3c0.2-0.1,0.7-0.2,1.4-0.5l0.7-0.2c0,0,0.1,0,0.1,0c0,0,0,0.1,0,0.1v1.1
		c0.4-0.4,0.8-0.7,1.1-0.9c0.4-0.2,0.8-0.4,1.2-0.4c0.3,0,0.6,0.1,0.9,0.3c0.5,0.4,0.8,1,0.8,2v3.4c0,0.4,0.1,0.6,0.2,0.8
		c0.1,0.2,0.4,0.2,0.7,0.2v0.2h-3.1v-0.2c0.4,0,0.6-0.1,0.7-0.3c0.1-0.1,0.2-0.5,0.2-1v-3.1c0-0.4-0.1-0.8-0.2-1
		c-0.2-0.3-0.4-0.4-0.9-0.4c-0.3,0-0.6,0.1-0.9,0.3c-0.2,0.1-0.4,0.3-0.6,0.6v4.1c0,0.4,0.1,0.6,0.2,0.7c0.2,0.1,0.4,0.2,0.7,0.2
		v0.2h-3.2V327.7z"/>
	<path d="M-165.3,321.5c0.4,0.3,0.7,0.7,0.7,1c0,0.2-0.1,0.3-0.2,0.4s-0.3,0.2-0.5,0.2c-0.2,0-0.3-0.1-0.5-0.2s-0.2-0.3-0.3-0.5
		l-0.1-0.4c-0.1-0.3-0.2-0.4-0.3-0.5c-0.2-0.1-0.4-0.2-0.6-0.2c-0.6,0-1,0.2-1.4,0.7c-0.4,0.5-0.6,1.1-0.6,1.9c0,0.7,0.2,1.4,0.6,2
		c0.4,0.6,1,0.9,1.7,0.9c0.5,0,1-0.2,1.4-0.5c0.2-0.2,0.5-0.5,0.8-0.9l0.2,0.1c-0.3,0.6-0.6,1.1-0.9,1.4c-0.6,0.7-1.3,1-2.1,1
		c-0.8,0-1.4-0.3-2-0.9s-0.9-1.4-0.9-2.4c0-1,0.3-1.9,1-2.6s1.4-1.1,2.4-1.1C-166.2,321-165.7,321.2-165.3,321.5z"/>
	<path d="M-163.8,327.7c0.4-0.1,0.7-0.2,0.8-0.3c0.1-0.1,0.2-0.5,0.2-1v-7c0-0.3,0-0.5-0.1-0.6c-0.1-0.1-0.2-0.2-0.5-0.2
		c-0.1,0-0.1,0-0.2,0c-0.1,0-0.1,0-0.2,0v-0.3c0.2-0.1,0.5-0.1,0.8-0.2c0.3-0.1,0.5-0.2,0.7-0.2l0.7-0.2l0,0.1v4.5
		c0.3-0.4,0.6-0.6,0.8-0.8c0.4-0.3,0.9-0.4,1.4-0.4c0.8,0,1.3,0.3,1.6,1c0.2,0.4,0.2,0.8,0.2,1.4v3c0,0.5,0.1,0.9,0.2,1
		c0.1,0.2,0.4,0.3,0.7,0.3v0.2h-3.2v-0.2c0.4-0.1,0.7-0.2,0.8-0.3c0.1-0.1,0.2-0.5,0.2-1v-3c0-0.5-0.1-0.9-0.2-1.1
		c-0.2-0.3-0.5-0.4-0.9-0.4c-0.4,0-0.7,0.1-1.1,0.4s-0.5,0.5-0.5,0.5v3.6c0,0.5,0.1,0.9,0.2,1s0.4,0.2,0.8,0.3v0.2h-3.2V327.7z"/>
	<path d="M-156.1,327.7c0.5,0,0.9-0.1,1-0.3c0.1-0.1,0.2-0.5,0.2-1.1v-3.5c0-0.3,0-0.5-0.1-0.7c-0.1-0.2-0.2-0.3-0.5-0.3
		c-0.1,0-0.1,0-0.2,0c-0.1,0-0.2,0-0.4,0.1v-0.2l0.3-0.1c0.9-0.3,1.5-0.5,1.8-0.6c0.1-0.1,0.2-0.1,0.3-0.1c0,0,0,0.1,0,0.1v5.3
		c0,0.6,0.1,0.9,0.2,1c0.1,0.1,0.4,0.2,0.9,0.3v0.2h-3.6V327.7z M-154.9,317.9c0.1-0.2,0.3-0.2,0.5-0.2c0.2,0,0.4,0.1,0.5,0.2
		c0.1,0.1,0.2,0.3,0.2,0.5c0,0.2-0.1,0.4-0.2,0.5c-0.1,0.1-0.3,0.2-0.5,0.2c-0.2,0-0.4-0.1-0.5-0.2c-0.1-0.1-0.2-0.3-0.2-0.5
		S-155.1,318.1-154.9,317.9z"/>
	<path d="M-152,327.7c0.3,0,0.6-0.1,0.7-0.3c0.1-0.1,0.2-0.4,0.2-0.9v-3.7c0-0.3,0-0.5-0.1-0.7c-0.1-0.2-0.3-0.3-0.6-0.3
		c0,0-0.1,0-0.1,0c0,0-0.1,0-0.2,0v-0.3c0.2-0.1,0.7-0.2,1.4-0.5l0.7-0.2c0,0,0.1,0,0.1,0c0,0,0,0.1,0,0.1v1.1
		c0.4-0.4,0.8-0.7,1.1-0.9c0.4-0.2,0.8-0.4,1.2-0.4c0.3,0,0.6,0.1,0.9,0.3c0.5,0.4,0.8,1,0.8,2v3.4c0,0.4,0.1,0.6,0.2,0.8
		c0.1,0.2,0.4,0.2,0.7,0.2v0.2h-3.1v-0.2c0.4,0,0.6-0.1,0.7-0.3c0.1-0.1,0.2-0.5,0.2-1v-3.1c0-0.4-0.1-0.8-0.2-1
		c-0.2-0.3-0.4-0.4-0.9-0.4c-0.3,0-0.6,0.1-0.9,0.3c-0.2,0.1-0.4,0.3-0.6,0.6v4.1c0,0.4,0.1,0.6,0.2,0.7c0.2,0.1,0.4,0.2,0.7,0.2
		v0.2h-3.2V327.7z"/>
	<path d="M-143.4,324.7c-0.2-0.4-0.4-0.8-0.4-1.3c0-0.6,0.2-1.1,0.7-1.6s1.1-0.8,1.9-0.8c0.4,0,0.7,0.1,1.2,0.3
		c0.4,0.2,0.8,0.3,1.2,0.3c0.1,0,0.3,0,0.5,0c0.2,0,0.4,0,0.5,0h0.1v0.6h-1.3c0.1,0.2,0.2,0.4,0.2,0.5c0.1,0.3,0.1,0.6,0.1,0.8
		c0,0.6-0.2,1.1-0.7,1.5c-0.5,0.5-1.1,0.7-1.9,0.7c-0.1,0-0.3,0-0.7-0.1c-0.1,0-0.3,0.1-0.6,0.4s-0.4,0.4-0.4,0.6
		c0,0.2,0.2,0.3,0.5,0.3c0.2,0,0.5,0.1,0.7,0.1c1.3,0,2.1,0.1,2.6,0.2c0.7,0.2,1.1,0.7,1.1,1.5c0,0.8-0.4,1.4-1.3,1.8
		c-0.9,0.5-1.7,0.7-2.6,0.7c-0.8,0-1.4-0.2-1.9-0.5c-0.5-0.3-0.7-0.7-0.7-1c0-0.2,0.1-0.3,0.2-0.5c0.1-0.2,0.4-0.4,0.7-0.8l0.5-0.4
		l0.1-0.1c-0.2-0.1-0.4-0.2-0.5-0.3c-0.2-0.2-0.3-0.3-0.3-0.5c0-0.2,0.1-0.4,0.3-0.6c0.2-0.2,0.5-0.6,1.1-1.1
		C-142.8,325.3-143.1,325-143.4,324.7z M-142.6,330.1c0.5,0.2,1,0.2,1.6,0.2c0.8,0,1.5-0.1,2-0.4c0.5-0.3,0.8-0.6,0.8-1
		c0-0.3-0.2-0.5-0.6-0.7c-0.3-0.1-0.7-0.1-1.4-0.1c-0.2,0-0.4,0-0.6,0c-0.2,0-0.4,0-0.6,0c-0.1,0-0.3,0-0.5-0.1s-0.4-0.1-0.5-0.1
		c-0.1,0-0.2,0.2-0.4,0.5c-0.2,0.3-0.3,0.6-0.3,0.9C-143.3,329.7-143,330-142.6,330.1z M-140.2,325.1c0.3-0.2,0.4-0.6,0.4-1.2
		c0-0.5-0.1-1-0.4-1.6c-0.2-0.6-0.6-0.9-1.2-0.9c-0.5,0-0.8,0.2-1,0.7c-0.1,0.2-0.1,0.5-0.1,0.9c0,0.6,0.1,1.1,0.4,1.6
		c0.3,0.5,0.7,0.7,1.1,0.7C-140.7,325.3-140.4,325.2-140.2,325.1z"/>
	<path d="M-128.2,321.5c0.4,0.3,0.7,0.7,0.7,1c0,0.2-0.1,0.3-0.2,0.4s-0.3,0.2-0.5,0.2c-0.2,0-0.3-0.1-0.5-0.2s-0.2-0.3-0.3-0.5
		l-0.1-0.4c-0.1-0.3-0.2-0.4-0.3-0.5c-0.2-0.1-0.4-0.2-0.6-0.2c-0.6,0-1,0.2-1.4,0.7c-0.4,0.5-0.6,1.1-0.6,1.9c0,0.7,0.2,1.4,0.6,2
		c0.4,0.6,1,0.9,1.7,0.9c0.5,0,1-0.2,1.4-0.5c0.2-0.2,0.5-0.5,0.8-0.9l0.2,0.1c-0.3,0.6-0.6,1.1-0.9,1.4c-0.6,0.7-1.3,1-2.1,1
		c-0.8,0-1.4-0.3-2-0.9s-0.9-1.4-0.9-2.4c0-1,0.3-1.9,1-2.6s1.4-1.1,2.4-1.1C-129.2,321-128.6,321.2-128.2,321.5z"/>
	<path d="M-126.7,327.7c0.4-0.1,0.7-0.2,0.8-0.3c0.1-0.1,0.2-0.5,0.2-1v-7c0-0.3,0-0.5-0.1-0.6c-0.1-0.1-0.2-0.2-0.5-0.2
		c-0.1,0-0.1,0-0.2,0c-0.1,0-0.1,0-0.2,0v-0.3c0.2-0.1,0.5-0.1,0.8-0.2c0.3-0.1,0.5-0.2,0.7-0.2l0.7-0.2l0,0.1v4.5
		c0.3-0.4,0.6-0.6,0.8-0.8c0.4-0.3,0.9-0.4,1.4-0.4c0.8,0,1.3,0.3,1.6,1c0.2,0.4,0.2,0.8,0.2,1.4v3c0,0.5,0.1,0.9,0.2,1
		c0.1,0.2,0.4,0.3,0.7,0.3v0.2h-3.2v-0.2c0.4-0.1,0.7-0.2,0.8-0.3c0.1-0.1,0.2-0.5,0.2-1v-3c0-0.5-0.1-0.9-0.2-1.1
		c-0.2-0.3-0.5-0.4-0.9-0.4c-0.4,0-0.7,0.1-1.1,0.4s-0.5,0.5-0.5,0.5v3.6c0,0.5,0.1,0.9,0.2,1s0.4,0.2,0.8,0.3v0.2h-3.2V327.7z"/>
	<path d="M-117.7,324.7c0.4-0.3,1.3-0.7,2.7-1.2v-0.6c0-0.5,0-0.8-0.1-1c-0.2-0.3-0.5-0.5-1-0.5c-0.2,0-0.5,0.1-0.7,0.2
		c-0.2,0.1-0.3,0.3-0.3,0.5c0,0.1,0,0.2,0,0.3c0,0.1,0,0.2,0,0.3c0,0.3-0.1,0.5-0.3,0.6c-0.1,0.1-0.2,0.1-0.4,0.1
		c-0.2,0-0.4-0.1-0.5-0.2c-0.1-0.1-0.2-0.3-0.2-0.5c0-0.3,0.2-0.7,0.6-1.1c0.4-0.4,1-0.6,1.9-0.6c0.9,0,1.6,0.3,1.9,0.9
		c0.2,0.3,0.3,0.8,0.3,1.5v2.9c0,0.3,0,0.5,0.1,0.6c0.1,0.2,0.2,0.3,0.4,0.3c0.1,0,0.2,0,0.3-0.1s0.2-0.1,0.4-0.2v0.4
		c-0.2,0.2-0.3,0.3-0.5,0.5c-0.3,0.2-0.6,0.3-0.8,0.3c-0.3,0-0.6-0.1-0.7-0.3s-0.2-0.5-0.2-0.8c-0.4,0.3-0.7,0.6-1,0.7
		c-0.4,0.3-0.9,0.4-1.3,0.4c-0.4,0-0.8-0.1-1.1-0.4c-0.3-0.3-0.5-0.7-0.5-1.1C-118.8,325.7-118.4,325.2-117.7,324.7z M-115,323.9
		c-0.6,0.2-1,0.4-1.4,0.6c-0.7,0.4-1.1,0.9-1.1,1.5c0,0.4,0.1,0.8,0.4,1c0.2,0.1,0.4,0.2,0.6,0.2c0.3,0,0.6-0.1,0.9-0.3
		c0.3-0.2,0.4-0.4,0.4-0.7V323.9z"/>
	<path d="M-112.4,327.7c0.5,0,0.9-0.1,1-0.3c0.1-0.1,0.2-0.5,0.2-1.1v-3.5c0-0.3,0-0.5-0.1-0.7c-0.1-0.2-0.2-0.3-0.5-0.3
		c-0.1,0-0.1,0-0.2,0c-0.1,0-0.2,0-0.4,0.1v-0.2l0.3-0.1c0.9-0.3,1.5-0.5,1.8-0.6c0.1-0.1,0.2-0.1,0.3-0.1c0,0,0,0.1,0,0.1v5.3
		c0,0.6,0.1,0.9,0.2,1c0.1,0.1,0.4,0.2,0.9,0.3v0.2h-3.6V327.7z M-111.2,317.9c0.1-0.2,0.3-0.2,0.5-0.2c0.2,0,0.4,0.1,0.5,0.2
		c0.1,0.1,0.2,0.3,0.2,0.5c0,0.2-0.1,0.4-0.2,0.5c-0.1,0.1-0.3,0.2-0.5,0.2c-0.2,0-0.4-0.1-0.5-0.2c-0.1-0.1-0.2-0.3-0.2-0.5
		S-111.4,318.1-111.2,317.9z"/>
	<path d="M-108.2,327.7c0.3,0,0.6-0.1,0.7-0.3c0.1-0.1,0.2-0.4,0.2-0.9v-3.7c0-0.3,0-0.5-0.1-0.7c-0.1-0.2-0.3-0.3-0.6-0.3
		c0,0-0.1,0-0.1,0c0,0-0.1,0-0.2,0v-0.3c0.2-0.1,0.7-0.2,1.4-0.5l0.7-0.2c0,0,0.1,0,0.1,0c0,0,0,0.1,0,0.1v1.1
		c0.4-0.4,0.8-0.7,1.1-0.9c0.4-0.2,0.8-0.4,1.2-0.4c0.3,0,0.6,0.1,0.9,0.3c0.5,0.4,0.8,1,0.8,2v3.4c0,0.4,0.1,0.6,0.2,0.8
		c0.1,0.2,0.4,0.2,0.7,0.2v0.2h-3.1v-0.2c0.4,0,0.6-0.1,0.7-0.3c0.1-0.1,0.2-0.5,0.2-1v-3.1c0-0.4-0.1-0.8-0.2-1
		c-0.2-0.3-0.4-0.4-0.9-0.4c-0.3,0-0.6,0.1-0.9,0.3c-0.2,0.1-0.4,0.3-0.6,0.6v4.1c0,0.4,0.1,0.6,0.2,0.7c0.2,0.1,0.4,0.2,0.7,0.2
		v0.2h-3.2V327.7z"/>
	<path d="M-95,319.7c0.6-0.8,1.4-1.4,2.2-1.9l0.1,0.2c-0.8,0.6-1.3,1.2-1.7,1.8c-0.6,1-0.9,2.4-0.9,4.1c0,1.3,0.1,2.3,0.3,3.1
		c0.4,1.4,1.1,2.5,2.2,3.2l-0.2,0.2c-0.6-0.3-1.2-0.9-1.9-1.7c-1.2-1.4-1.7-3-1.7-4.7C-96.6,322.4-96.1,321-95,319.7z"/>
	<path d="M-90,327.1c0.4,0.3,0.8,0.4,1.1,0.4c0.7,0,1.2-0.2,1.5-0.7c0.3-0.5,0.5-1,0.5-1.5c0-0.5-0.1-1-0.4-1.4
		c-0.5-0.7-1.2-1-2.3-1c-0.1,0-0.1,0-0.2,0c-0.1,0-0.1,0-0.2,0l0-0.2c0.8-0.3,1.4-0.6,1.8-1c0.4-0.4,0.7-0.8,0.7-1.4
		c0-0.5-0.2-0.9-0.5-1.2c-0.4-0.3-0.8-0.4-1.2-0.4c-0.5,0-1,0.2-1.4,0.6c-0.2,0.2-0.5,0.5-0.7,1l-0.2-0.1c0.2-0.7,0.6-1.3,1.1-1.8
		s1.1-0.7,1.8-0.7c0.7,0,1.3,0.2,1.7,0.6s0.6,0.9,0.6,1.4c0,0.5-0.2,0.9-0.5,1.3c-0.2,0.2-0.5,0.5-0.9,0.8c0.5,0.2,0.8,0.4,1.1,0.7
		c0.5,0.5,0.8,1.2,0.8,1.9c0,0.9-0.4,1.7-1.1,2.5c-0.7,0.7-1.8,1.1-3.1,1.1c-0.6,0-1-0.1-1.3-0.3c-0.2-0.2-0.4-0.4-0.4-0.6
		c0-0.1,0-0.2,0.1-0.4c0.1-0.1,0.2-0.2,0.4-0.2C-90.8,326.6-90.5,326.8-90,327.1z"/>
	<path d="M-84.5,327.6c0.5-0.1,0.9-0.2,1.1-0.3s0.2-0.5,0.2-1.1v-6.7c0-0.5-0.1-0.9-0.2-1.1c-0.2-0.2-0.5-0.3-1.1-0.3V318h4
		c1.4,0,2.5,0.2,3.5,0.7c1.7,0.8,2.5,2.2,2.5,4.3c0,0.7-0.2,1.5-0.5,2.1c-0.3,0.7-0.8,1.2-1.4,1.7c-0.4,0.3-0.8,0.5-1.2,0.7
		c-0.8,0.3-1.7,0.4-2.8,0.4h-4.2V327.6z M-81.5,327.2c0.1,0.1,0.4,0.1,0.7,0.1c1.2,0,2.1-0.2,2.9-0.7c1.2-0.7,1.7-1.9,1.7-3.7
		c0-1.5-0.5-2.7-1.4-3.5c-0.8-0.7-1.9-1-3.3-1c-0.3,0-0.6,0-0.7,0.1s-0.2,0.2-0.2,0.5v7.6C-81.7,327-81.6,327.2-81.5,327.2z"/>
	<path d="M-69.9,326.3c-0.2,0.6-0.5,1.3-0.8,1.8c-0.4,0.6-0.9,1.2-1.5,1.7c-0.4,0.4-0.8,0.6-1.1,0.7l-0.1-0.2
		c0.8-0.6,1.3-1.2,1.6-1.8c0.6-1.1,0.9-2.4,0.9-4.2c0-1.4-0.1-2.5-0.4-3.4c-0.4-1.3-1.1-2.2-2.1-3l0.2-0.2c0.8,0.4,1.5,1.1,2.2,1.9
		c1,1.3,1.5,2.8,1.5,4.5C-69.7,324.9-69.8,325.6-69.9,326.3z"/>
</g>
</svg>
