<?xml version="1.0" encoding="utf-8"?>
<!-- Generator: Adobe Illustrator 18.1.1, SVG Export Plug-In . SVG Version: 6.00 Build 0)  -->
<svg version="1.1" xmlns="http://www.w3.org/2000/svg" xmlns:xlink="http://www.w3.org/1999/xlink" x="0px" y="0px"
	 viewBox="0 0 112.4 216.4" enable-background="new 0 0 112.4 216.4" xml:space="preserve">
<g id="Layer_1">
	<g>
		<line fill="none" stroke="#000000" x1="10.3" y1="0.1" x2="7.6" y2="14.8"/>
		<polygon points="10,1.9 9.5,4.7 19.7,6.6 		"/>
		<polygon points="8.4,10.2 18.7,12.2 7.9,13 		"/>
	</g>
	<polyline stroke="#FFFFFF" stroke-width="0.5" points="20.2,28.1 20.2,29.2 7.1,29.2 7.1,28.1 	"/>
	<line fill="#FFFFFF" stroke="#000000" stroke-width="0.5" x1="9.2" y1="29.3" x2="8.3" y2="33"/>
	<line fill="#FFFFFF" stroke="#000000" stroke-width="0.5" x1="17.6" y1="29.3" x2="16.7" y2="33"/>
	<line fill="#FFFFFF" stroke="#000000" stroke-width="0.5" x1="14.8" y1="29.3" x2="13.9" y2="33"/>
	<line fill="#FFFFFF" stroke="#000000" stroke-width="0.5" x1="12" y1="29.3" x2="11.1" y2="33"/>
	<g>
		<path d="M38.7,3.9h5.7l0.1,1.7h-0.2c-0.1-0.5-0.3-0.9-0.4-1s-0.6-0.2-1.1-0.2H42v5.1c0,0.4,0.1,0.6,0.2,0.7s0.4,0.2,0.8,0.2v0.2
			h-2.9v-0.2c0.4,0,0.7-0.1,0.8-0.2S41,9.7,41,9.3v-5h-0.6c-0.6,0-0.9,0.1-1.1,0.2S39,5,38.9,5.6h-0.2L38.7,3.9z"/>
		<path d="M44.8,6.6c0.4-0.4,0.9-0.7,1.6-0.7c0.6,0,1.2,0.2,1.6,0.6s0.6,1,0.6,1.7c0,0.6-0.2,1.2-0.6,1.7s-0.9,0.7-1.6,0.7
			c-0.6,0-1.2-0.2-1.6-0.7s-0.6-1-0.6-1.7C44.2,7.6,44.4,7,44.8,6.6z M45.6,6.4c-0.3,0.3-0.5,0.8-0.5,1.5c0,0.6,0.1,1.1,0.4,1.6
			c0.3,0.5,0.6,0.8,1.1,0.8c0.4,0,0.6-0.2,0.8-0.5s0.3-0.8,0.3-1.3c0-0.6-0.1-1.1-0.4-1.6c-0.3-0.5-0.6-0.7-1.1-0.7
			C46,6.2,45.8,6.3,45.6,6.4z"/>
		<path d="M49.8,6.6c0.4-0.4,0.9-0.7,1.6-0.7c0.6,0,1.2,0.2,1.6,0.6s0.6,1,0.6,1.7c0,0.6-0.2,1.2-0.6,1.7s-0.9,0.7-1.6,0.7
			c-0.6,0-1.2-0.2-1.6-0.7s-0.6-1-0.6-1.7C49.2,7.6,49.4,7,49.8,6.6z M50.6,6.4c-0.3,0.3-0.5,0.8-0.5,1.5c0,0.6,0.1,1.1,0.4,1.6
			c0.3,0.5,0.6,0.8,1.1,0.8c0.4,0,0.6-0.2,0.8-0.5s0.3-0.8,0.3-1.3c0-0.6-0.1-1.1-0.4-1.6c-0.3-0.5-0.6-0.7-1.1-0.7
			C51,6.2,50.8,6.3,50.6,6.4z"/>
		<path d="M54.1,10.3c0.3,0,0.5-0.1,0.6-0.2s0.2-0.3,0.2-0.5V4.8c0-0.2,0-0.4-0.1-0.4c-0.1-0.1-0.2-0.2-0.4-0.2c0,0-0.1,0-0.1,0
			s-0.1,0-0.2,0V4.1c0.4-0.1,1-0.3,1.6-0.5c0,0,0,0,0,0s0,0.1,0,0.1v5.9c0,0.3,0,0.5,0.1,0.5s0.3,0.1,0.6,0.2v0.1h-2.4V10.3z"/>
		<path d="M61.4,3.7h0.5l-2.2,6.9h-0.5L61.4,3.7z"/>
		<path d="M68,6.4c0.3,0.3,0.5,0.8,0.5,1.4h-3.1c0,0.8,0.2,1.3,0.5,1.6c0.3,0.3,0.7,0.5,1.1,0.5c0.3,0,0.6-0.1,0.9-0.3
			s0.5-0.4,0.6-0.8l0.2,0.1c-0.1,0.4-0.4,0.8-0.8,1.1c-0.4,0.4-0.8,0.5-1.3,0.5c-0.6,0-1.1-0.2-1.4-0.7c-0.3-0.5-0.5-1-0.5-1.6
			c0-0.7,0.2-1.2,0.6-1.7s0.9-0.7,1.5-0.7C67.2,5.9,67.6,6.1,68,6.4z M65.6,6.7c-0.1,0.2-0.2,0.4-0.2,0.7h2.1c0-0.3-0.1-0.6-0.2-0.7
			c-0.2-0.3-0.4-0.4-0.8-0.4C66.1,6.3,65.8,6.4,65.6,6.7z"/>
		<path d="M69.1,10.3c0.2,0,0.4-0.1,0.5-0.2c0.1-0.1,0.1-0.3,0.1-0.6V7.1c0-0.2,0-0.4-0.1-0.4c-0.1-0.1-0.2-0.2-0.4-0.2
			c0,0-0.1,0-0.1,0c0,0-0.1,0-0.1,0V6.3c0.1,0,0.4-0.1,0.9-0.3l0.5-0.2c0,0,0,0,0,0c0,0,0,0,0,0.1v0.7c0.3-0.3,0.5-0.5,0.7-0.6
			C71.5,6,71.8,5.9,72,5.9c0.2,0,0.4,0.1,0.6,0.2c0.4,0.2,0.5,0.7,0.5,1.3v2.3c0,0.2,0,0.4,0.1,0.5s0.2,0.2,0.5,0.2v0.1h-2.1v-0.1
			c0.2,0,0.4-0.1,0.5-0.2s0.1-0.3,0.1-0.6V7.4c0-0.3-0.1-0.5-0.2-0.7s-0.3-0.3-0.6-0.3c-0.2,0-0.4,0.1-0.6,0.2
			c-0.1,0.1-0.3,0.2-0.4,0.4v2.7c0,0.2,0.1,0.4,0.2,0.5s0.3,0.1,0.5,0.1v0.1h-2.1V10.3z"/>
		<path d="M77,6c0.1,0.1,0.3,0.2,0.4,0.3V4.8c0-0.2,0-0.3-0.1-0.4c0-0.1-0.1-0.1-0.3-0.1c0,0-0.1,0-0.1,0s-0.1,0-0.2,0V4.1L77,4
			c0.1,0,0.3-0.1,0.4-0.1s0.3-0.1,0.4-0.1c0.1,0,0.1,0,0.3-0.1l0,0l0,0.5c0,0.2,0,0.4,0,0.6s0,0.4,0,0.6l0,4c0,0.2,0,0.4,0.1,0.4
			s0.2,0.1,0.4,0.1c0,0,0.1,0,0.1,0s0.1,0,0.1,0V10c0,0-0.3,0.1-0.7,0.2l-0.8,0.3l0,0V9.9c-0.2,0.2-0.3,0.3-0.5,0.4
			c-0.2,0.1-0.5,0.2-0.8,0.2c-0.6,0-1-0.2-1.3-0.6c-0.3-0.4-0.5-0.9-0.5-1.5c0-0.7,0.2-1.3,0.6-1.8c0.4-0.5,0.9-0.8,1.5-0.8
			C76.5,5.9,76.8,5.9,77,6z M77.1,9.8c0.2-0.1,0.2-0.3,0.2-0.4V7.3c0-0.4-0.1-0.7-0.3-0.9c-0.2-0.2-0.4-0.3-0.7-0.3
			c-0.4,0-0.7,0.2-1,0.5S75,7.5,75,8c0,0.5,0.1,1,0.4,1.4C75.6,9.8,76,10,76.5,10C76.7,10,76.9,10,77.1,9.8z"/>
		<path d="M84.9,6.4c0.3,0.3,0.5,0.8,0.5,1.4h-3.1c0,0.8,0.2,1.3,0.5,1.6c0.3,0.3,0.7,0.5,1.1,0.5c0.3,0,0.6-0.1,0.9-0.3
			s0.5-0.4,0.6-0.8l0.2,0.1c-0.1,0.4-0.4,0.8-0.8,1.1c-0.4,0.4-0.8,0.5-1.3,0.5c-0.6,0-1.1-0.2-1.4-0.7c-0.3-0.5-0.5-1-0.5-1.6
			c0-0.7,0.2-1.2,0.6-1.7s0.9-0.7,1.5-0.7C84.2,5.9,84.6,6.1,84.9,6.4z M82.6,6.7c-0.1,0.2-0.2,0.4-0.2,0.7h2.1
			c0-0.3-0.1-0.6-0.2-0.7c-0.2-0.3-0.4-0.4-0.8-0.4C83.1,6.3,82.8,6.4,82.6,6.7z"/>
		<path d="M86.1,10.3c0.3,0,0.6-0.1,0.7-0.2c0.1-0.1,0.2-0.3,0.2-0.7V6.3h-0.8V6h0.8c0-0.5,0.1-0.9,0.2-1.3c0.3-0.7,0.8-1,1.5-1
			c0.3,0,0.5,0.1,0.8,0.2s0.3,0.3,0.3,0.5c0,0.1,0,0.2-0.1,0.3c-0.1,0.1-0.2,0.1-0.3,0.1c-0.1,0-0.2,0-0.2-0.1
			c-0.1-0.1-0.1-0.2-0.2-0.3l-0.1-0.1c0-0.1-0.1-0.1-0.2-0.2c-0.1,0-0.1-0.1-0.3-0.1c-0.2,0-0.4,0.1-0.5,0.4c0,0.1-0.1,0.3-0.1,0.5
			V6H89v0.3h-1.2v3.1c0,0.4,0,0.6,0.1,0.7c0.1,0.1,0.4,0.2,0.8,0.2v0.1h-2.6V10.3z"/>
		<path d="M89.2,10.3c0.3,0,0.6-0.1,0.7-0.2c0.1-0.1,0.2-0.3,0.2-0.7V6.3h-0.8V6h0.8c0-0.5,0.1-0.9,0.2-1.3c0.3-0.7,0.8-1,1.5-1
			c0.3,0,0.5,0.1,0.8,0.2s0.3,0.3,0.3,0.5c0,0.1,0,0.2-0.1,0.3c-0.1,0.1-0.2,0.1-0.3,0.1c-0.1,0-0.2,0-0.2-0.1
			c-0.1-0.1-0.1-0.2-0.2-0.3l-0.1-0.1c0-0.1-0.1-0.1-0.2-0.2c-0.1,0-0.1-0.1-0.3-0.1c-0.2,0-0.4,0.1-0.5,0.4c0,0.1-0.1,0.3-0.1,0.5
			V6h1.2v0.3h-1.2v3.1c0,0.4,0,0.6,0.1,0.7c0.1,0.1,0.4,0.2,0.8,0.2v0.1h-2.6V10.3z"/>
		<path d="M95.8,6.4c0.3,0.3,0.5,0.8,0.5,1.4h-3.1c0,0.8,0.2,1.3,0.5,1.6c0.3,0.3,0.7,0.5,1.1,0.5c0.3,0,0.6-0.1,0.9-0.3
			s0.5-0.4,0.6-0.8l0.2,0.1c-0.1,0.4-0.4,0.8-0.8,1.1c-0.4,0.4-0.8,0.5-1.3,0.5c-0.6,0-1.1-0.2-1.4-0.7c-0.3-0.5-0.5-1-0.5-1.6
			c0-0.7,0.2-1.2,0.6-1.7s0.9-0.7,1.5-0.7C95.1,5.9,95.5,6.1,95.8,6.4z M93.5,6.7c-0.1,0.2-0.2,0.4-0.2,0.7h2.1
			c0-0.3-0.1-0.6-0.2-0.7c-0.2-0.3-0.4-0.4-0.8-0.4C94,6.3,93.7,6.4,93.5,6.7z"/>
		<path d="M100.3,6.2c0.3,0.2,0.4,0.4,0.4,0.7c0,0.1,0,0.2-0.1,0.3s-0.2,0.1-0.3,0.1c-0.1,0-0.2,0-0.3-0.1c-0.1-0.1-0.1-0.2-0.2-0.3
			l-0.1-0.2c0-0.2-0.1-0.3-0.2-0.4c-0.1-0.1-0.2-0.1-0.4-0.1c-0.4,0-0.7,0.2-0.9,0.5c-0.3,0.3-0.4,0.8-0.4,1.3
			c0,0.5,0.1,0.9,0.4,1.3c0.3,0.4,0.7,0.6,1.1,0.6c0.3,0,0.6-0.1,0.9-0.3c0.1-0.1,0.3-0.3,0.5-0.6l0.1,0.1c-0.2,0.4-0.4,0.7-0.6,0.9
			c-0.4,0.4-0.8,0.7-1.4,0.7c-0.5,0-1-0.2-1.3-0.6S97,9,97,8.3c0-0.7,0.2-1.3,0.6-1.7s1-0.7,1.6-0.7C99.7,5.9,100,6,100.3,6.2z"/>
		<path d="M103.8,6v0.4h-1l0,2.8c0,0.2,0,0.4,0.1,0.6c0.1,0.2,0.2,0.3,0.5,0.3c0.1,0,0.2,0,0.3-0.1c0.1-0.1,0.2-0.1,0.3-0.3l0.1,0.1
			l-0.1,0.1c-0.2,0.2-0.3,0.4-0.5,0.5s-0.4,0.1-0.5,0.1c-0.4,0-0.6-0.2-0.8-0.5c-0.1-0.2-0.1-0.4-0.1-0.8v-3h-0.5c0,0,0,0,0,0
			c0,0,0,0,0,0c0,0,0-0.1,0-0.1c0,0,0.1-0.1,0.1-0.1c0.2-0.2,0.4-0.3,0.5-0.5c0.1-0.1,0.3-0.4,0.7-0.9c0,0,0.1,0,0.1,0
			c0,0,0,0,0,0.1V6H103.8z"/>
		<path d="M104.9,6.6c0.4-0.4,0.9-0.7,1.6-0.7c0.6,0,1.2,0.2,1.6,0.6s0.6,1,0.6,1.7c0,0.6-0.2,1.2-0.6,1.7s-0.9,0.7-1.6,0.7
			c-0.6,0-1.2-0.2-1.6-0.7s-0.6-1-0.6-1.7C104.3,7.6,104.5,7,104.9,6.6z M105.7,6.4c-0.3,0.3-0.5,0.8-0.5,1.5c0,0.6,0.1,1.1,0.4,1.6
			s0.6,0.8,1.1,0.8c0.4,0,0.6-0.2,0.8-0.5s0.3-0.8,0.3-1.3c0-0.6-0.1-1.1-0.4-1.6s-0.6-0.7-1.1-0.7C106.1,6.2,105.8,6.3,105.7,6.4z"
			/>
		<path d="M109.1,10.3c0.3,0,0.5-0.1,0.6-0.2s0.1-0.2,0.1-0.5V7.4c0-0.3,0-0.6-0.1-0.7c-0.1-0.1-0.2-0.2-0.3-0.2c0,0-0.1,0-0.1,0
			c-0.1,0-0.1,0-0.2,0V6.4c0.2-0.1,0.4-0.1,0.6-0.2s0.3-0.1,0.4-0.1c0.2-0.1,0.3-0.1,0.5-0.2c0,0,0,0,0,0c0,0,0,0.1,0,0.1v0.8
			c0.2-0.3,0.4-0.5,0.6-0.7s0.4-0.2,0.6-0.2c0.2,0,0.3,0,0.4,0.1c0.1,0.1,0.2,0.2,0.2,0.4c0,0.1,0,0.2-0.1,0.3
			c-0.1,0.1-0.2,0.1-0.3,0.1c-0.1,0-0.2-0.1-0.4-0.2c-0.1-0.1-0.2-0.2-0.3-0.2c-0.1,0-0.3,0.1-0.4,0.3s-0.2,0.4-0.2,0.6v2.2
			c0,0.3,0.1,0.5,0.2,0.6s0.3,0.2,0.6,0.2v0.2h-2.4V10.3z"/>
	</g>
	<g>
		<path d="M43.4,24.6c0.4,0.1,0.6,0.2,0.6,0.2c0.1,0,0.2,0,0.3-0.1s0.1-0.1,0.2-0.2h0.2l0.1,2.1h-0.2c-0.2-0.5-0.4-0.8-0.6-1.1
			c-0.4-0.4-0.9-0.6-1.5-0.6c-0.6,0-1.2,0.2-1.7,0.7s-0.7,1.3-0.7,2.4c0,0.9,0.2,1.6,0.7,2.2s1.1,0.8,1.8,0.8c0.1,0,0.3,0,0.4,0
			c0.2,0,0.3-0.1,0.5-0.1c0.2-0.1,0.4-0.1,0.4-0.2c0.1-0.1,0.1-0.1,0.1-0.3v-1.6c0-0.4-0.1-0.6-0.2-0.7s-0.3-0.2-0.7-0.2v-0.2h2.5
			v0.2c-0.2,0-0.4,0.1-0.5,0.1c-0.1,0.1-0.2,0.3-0.2,0.6v2c0,0.1-0.3,0.3-0.9,0.5s-1.1,0.3-1.7,0.3c-1,0-1.8-0.3-2.5-0.9
			c-0.7-0.6-1.1-1.5-1.1-2.5c0-0.9,0.3-1.7,0.9-2.4c0.6-0.7,1.5-1.1,2.6-1.1C42.6,24.4,43,24.5,43.4,24.6z"/>
		<path d="M45.8,31c0.3,0,0.5-0.1,0.6-0.2s0.1-0.2,0.1-0.5v-2.2c0-0.3,0-0.6-0.1-0.7s-0.2-0.2-0.3-0.2c0,0-0.1,0-0.1,0s-0.1,0-0.2,0
			v-0.2c0.2-0.1,0.4-0.1,0.6-0.2c0.2-0.1,0.3-0.1,0.4-0.1c0.2-0.1,0.3-0.1,0.5-0.2c0,0,0,0,0,0s0,0.1,0,0.1v0.8
			c0.2-0.3,0.4-0.5,0.6-0.7s0.4-0.2,0.6-0.2c0.2,0,0.3,0,0.4,0.1s0.2,0.2,0.2,0.4c0,0.1,0,0.2-0.1,0.3s-0.2,0.1-0.3,0.1
			c-0.1,0-0.2-0.1-0.4-0.2s-0.2-0.2-0.3-0.2c-0.1,0-0.3,0.1-0.4,0.3s-0.2,0.4-0.2,0.6v2.2c0,0.3,0.1,0.5,0.2,0.6s0.3,0.2,0.6,0.2
			v0.2h-2.4V31z"/>
		<path d="M49.9,27.3c0.4-0.4,0.9-0.7,1.6-0.7c0.6,0,1.2,0.2,1.6,0.6s0.6,1,0.6,1.7c0,0.6-0.2,1.2-0.6,1.7s-0.9,0.7-1.6,0.7
			c-0.6,0-1.2-0.2-1.6-0.7s-0.6-1-0.6-1.7C49.3,28.3,49.5,27.7,49.9,27.3z M50.7,27.1c-0.3,0.3-0.5,0.8-0.5,1.5
			c0,0.6,0.1,1.1,0.4,1.6c0.3,0.5,0.6,0.8,1.1,0.8c0.4,0,0.6-0.2,0.8-0.5s0.3-0.8,0.3-1.3c0-0.6-0.1-1.1-0.4-1.6
			c-0.3-0.5-0.6-0.7-1.1-0.7C51.1,26.9,50.9,27,50.7,27.1z"/>
		<path d="M55.6,26.6v3.1c0,0.2,0,0.4,0.1,0.5c0.1,0.2,0.3,0.4,0.7,0.4c0.2,0,0.4-0.1,0.6-0.2c0.1-0.1,0.2-0.2,0.4-0.3v-2.7
			c0-0.3,0-0.4-0.1-0.5s-0.3-0.1-0.6-0.1v-0.2h1.6v3.4c0,0.2,0,0.4,0.1,0.5c0.1,0.1,0.2,0.1,0.5,0.1v0.1c-0.2,0-0.3,0.1-0.4,0.1
			S58.2,31,58,31c-0.1,0-0.3,0.1-0.6,0.2c0,0,0,0,0,0s0,0,0-0.1v-0.8c-0.2,0.3-0.4,0.5-0.6,0.6c-0.3,0.2-0.6,0.3-0.9,0.3
			c-0.3,0-0.5-0.1-0.8-0.3c-0.3-0.2-0.4-0.5-0.4-1v-2.5c0-0.3-0.1-0.4-0.2-0.5c-0.1-0.1-0.2-0.1-0.5-0.1v-0.1H55.6z"/>
		<path d="M59.3,31c0.2,0,0.4-0.1,0.5-0.2c0.1-0.1,0.1-0.3,0.1-0.6v-2.5c0-0.2,0-0.4-0.1-0.4c-0.1-0.1-0.2-0.2-0.4-0.2
			c0,0-0.1,0-0.1,0c0,0-0.1,0-0.1,0V27c0.1,0,0.4-0.1,0.9-0.3l0.5-0.2c0,0,0,0,0,0c0,0,0,0,0,0.1v0.7c0.3-0.3,0.5-0.5,0.7-0.6
			c0.3-0.2,0.5-0.2,0.8-0.2c0.2,0,0.4,0.1,0.6,0.2c0.4,0.2,0.5,0.7,0.5,1.3v2.3c0,0.2,0,0.4,0.1,0.5s0.2,0.2,0.5,0.2v0.1h-2.1V31
			c0.2,0,0.4-0.1,0.5-0.2s0.1-0.3,0.1-0.6v-2.1c0-0.3-0.1-0.5-0.2-0.7s-0.3-0.3-0.6-0.3c-0.2,0-0.4,0.1-0.6,0.2
			c-0.1,0.1-0.3,0.2-0.4,0.4v2.7c0,0.2,0.1,0.4,0.2,0.5s0.3,0.1,0.5,0.1v0.1h-2.1V31z"/>
		<path d="M67.1,26.7c0.1,0.1,0.3,0.2,0.4,0.3v-1.6c0-0.2,0-0.3-0.1-0.4c0-0.1-0.1-0.1-0.3-0.1c0,0-0.1,0-0.1,0s-0.1,0-0.2,0v-0.2
			l0.4-0.1c0.1,0,0.3-0.1,0.4-0.1s0.3-0.1,0.4-0.1c0.1,0,0.1,0,0.3-0.1l0,0l0,0.5c0,0.2,0,0.4,0,0.6s0,0.4,0,0.6l0,4
			c0,0.2,0,0.4,0.1,0.4s0.2,0.1,0.4,0.1c0,0,0.1,0,0.1,0s0.1,0,0.1,0v0.2c0,0-0.3,0.1-0.7,0.2l-0.8,0.3l0,0v-0.6
			C67.3,30.8,67.1,31,67,31c-0.2,0.1-0.5,0.2-0.8,0.2c-0.6,0-1-0.2-1.3-0.6c-0.3-0.4-0.5-0.9-0.5-1.5c0-0.7,0.2-1.3,0.6-1.8
			c0.4-0.5,0.9-0.8,1.5-0.8C66.7,26.5,66.9,26.6,67.1,26.7z M67.2,30.5c0.2-0.1,0.2-0.3,0.2-0.4V28c0-0.4-0.1-0.7-0.3-0.9
			c-0.2-0.2-0.4-0.3-0.7-0.3c-0.4,0-0.7,0.2-1,0.5s-0.3,0.8-0.3,1.3c0,0.5,0.1,1,0.4,1.4c0.2,0.4,0.6,0.6,1.1,0.6
			C66.9,30.7,67.1,30.7,67.2,30.5z"/>
	</g>
	<g>
		<path d="M38.7,195.8c0.4,0,0.6-0.1,0.7-0.2c0.1-0.1,0.1-0.4,0.1-0.8v-4.3c0-0.3-0.1-0.6-0.2-0.7s-0.3-0.2-0.7-0.2v-0.2h2.6
			c0.8,0,1.5,0.2,1.9,0.5s0.7,0.8,0.7,1.3c0,0.7-0.2,1.2-0.7,1.5s-1.1,0.5-1.9,0.5c-0.1,0-0.2,0-0.4,0c-0.2,0-0.3,0-0.4,0v1.8
			c0,0.4,0.1,0.6,0.2,0.7c0.1,0.1,0.4,0.2,0.8,0.2v0.2h-2.8V195.8z M42.1,189.9c-0.3-0.1-0.6-0.2-1.1-0.2c-0.2,0-0.3,0-0.4,0.1
			c0,0-0.1,0.1-0.1,0.3v2.6c0.2,0,0.3,0,0.4,0s0.1,0,0.2,0c0.5,0,0.8-0.1,1.1-0.2c0.5-0.2,0.7-0.7,0.7-1.3
			C42.8,190.6,42.6,190.2,42.1,189.9z"/>
		<path d="M44.1,195.8c0.3,0,0.5-0.1,0.6-0.2c0.1-0.1,0.1-0.2,0.1-0.5V193c0-0.3,0-0.6-0.1-0.7c-0.1-0.1-0.2-0.2-0.3-0.2
			c0,0-0.1,0-0.1,0c-0.1,0-0.1,0-0.2,0v-0.2c0.2-0.1,0.4-0.1,0.6-0.2c0.2-0.1,0.3-0.1,0.4-0.1c0.2-0.1,0.3-0.1,0.5-0.2c0,0,0,0,0,0
			s0,0.1,0,0.1v0.8c0.2-0.3,0.4-0.5,0.6-0.7s0.4-0.2,0.6-0.2c0.2,0,0.3,0,0.4,0.1c0.1,0.1,0.2,0.2,0.2,0.4c0,0.1,0,0.2-0.1,0.3
			s-0.2,0.1-0.3,0.1c-0.1,0-0.2-0.1-0.4-0.2s-0.2-0.2-0.3-0.2c-0.1,0-0.3,0.1-0.4,0.3c-0.2,0.2-0.2,0.4-0.2,0.6v2.2
			c0,0.3,0.1,0.5,0.2,0.6c0.1,0.1,0.3,0.2,0.6,0.2v0.2h-2.4V195.8z"/>
		<path d="M47.6,195.9c0.3,0,0.6-0.1,0.7-0.2c0.1-0.1,0.1-0.3,0.1-0.7v-2.3c0-0.2,0-0.4,0-0.4c0-0.1-0.2-0.2-0.3-0.2
			c0,0-0.1,0-0.1,0s-0.1,0-0.3,0.1v-0.2l0.2-0.1c0.6-0.2,1-0.3,1.2-0.4c0.1,0,0.1-0.1,0.2-0.1c0,0,0,0,0,0.1v3.5
			c0,0.4,0,0.6,0.1,0.7s0.3,0.2,0.6,0.2v0.1h-2.4V195.9z M48.4,189.3c0.1-0.1,0.2-0.2,0.4-0.2c0.1,0,0.3,0,0.4,0.1s0.1,0.2,0.1,0.4
			c0,0.1,0,0.3-0.1,0.4s-0.2,0.1-0.4,0.1c-0.1,0-0.3,0-0.4-0.1s-0.1-0.2-0.1-0.4C48.2,189.5,48.3,189.4,48.4,189.3z"/>
		<path d="M50.7,194.5h0.2c0.1,0.4,0.2,0.7,0.3,0.9c0.2,0.4,0.6,0.5,1,0.5c0.2,0,0.4-0.1,0.6-0.2c0.1-0.1,0.2-0.3,0.2-0.5
			c0-0.1,0-0.3-0.1-0.4s-0.2-0.3-0.4-0.4l-0.5-0.3c-0.4-0.2-0.7-0.4-0.9-0.6s-0.3-0.5-0.3-0.8c0-0.4,0.1-0.7,0.4-0.9s0.6-0.4,1-0.4
			c0.2,0,0.4,0,0.6,0.1s0.3,0.1,0.3,0.1c0.1,0,0.1,0,0.1,0s0,0,0.1-0.1h0.1l0,1.4h-0.2c-0.1-0.3-0.2-0.6-0.3-0.7
			c-0.2-0.3-0.5-0.5-0.9-0.5c-0.2,0-0.4,0.1-0.5,0.2s-0.2,0.3-0.2,0.5c0,0.3,0.2,0.6,0.7,0.8l0.6,0.3c0.7,0.4,1,0.8,1,1.3
			c0,0.4-0.1,0.7-0.4,0.9s-0.7,0.4-1.1,0.4c-0.2,0-0.4,0-0.7-0.1s-0.4-0.1-0.4-0.1c0,0-0.1,0-0.1,0c0,0-0.1,0.1-0.1,0.1h-0.1V194.5z
			"/>
		<path d="M54.2,195.9c0.3,0,0.4-0.1,0.5-0.1c0.1-0.1,0.2-0.3,0.2-0.6v-2.5c0-0.2,0-0.4-0.1-0.5s-0.2-0.1-0.3-0.1
			c-0.1,0-0.1,0-0.2,0s-0.1,0-0.1,0v-0.2l0.4-0.1c0.1,0,0.3-0.1,0.6-0.2c0.3-0.1,0.4-0.2,0.5-0.2s0,0,0,0s0,0,0,0.1v0.7
			c0.3-0.3,0.6-0.5,0.8-0.6c0.2-0.1,0.5-0.2,0.7-0.2c0.3,0,0.6,0.1,0.8,0.3c0.1,0.1,0.2,0.3,0.3,0.5c0.2-0.2,0.5-0.4,0.6-0.5
			c0.3-0.2,0.6-0.3,0.9-0.3c0.5,0,0.9,0.2,1,0.6c0.1,0.2,0.2,0.6,0.2,1.1v2c0,0.2,0.1,0.4,0.2,0.5c0.1,0.1,0.3,0.1,0.6,0.2v0.1h-2.2
			v-0.1c0.3,0,0.5-0.1,0.6-0.2c0.1-0.1,0.1-0.3,0.1-0.5V193c0-0.3,0-0.5-0.1-0.7c-0.1-0.3-0.4-0.4-0.7-0.4c-0.2,0-0.4,0.1-0.6,0.2
			c-0.1,0.1-0.3,0.2-0.4,0.4v2.5c0,0.3,0,0.5,0.1,0.6c0.1,0.1,0.3,0.2,0.6,0.2v0.1h-2.2v-0.1c0.3,0,0.5-0.1,0.6-0.2s0.1-0.4,0.1-0.8
			v-1.4c0-0.5,0-0.8-0.1-1c-0.1-0.3-0.3-0.5-0.7-0.5c-0.2,0-0.4,0.1-0.6,0.2c-0.2,0.1-0.4,0.3-0.5,0.4v2.7c0,0.2,0,0.4,0.1,0.5
			c0.1,0.1,0.3,0.1,0.6,0.1v0.1h-2.2V195.9z"/>
		<path d="M62.9,193.8c0.3-0.2,0.9-0.5,1.8-0.8v-0.4c0-0.3,0-0.6-0.1-0.7c-0.1-0.2-0.3-0.3-0.7-0.3c-0.2,0-0.3,0-0.5,0.1
			c-0.1,0.1-0.2,0.2-0.2,0.4c0,0,0,0.1,0,0.2c0,0.1,0,0.2,0,0.2c0,0.2-0.1,0.3-0.2,0.4c-0.1,0-0.2,0.1-0.2,0.1c-0.1,0-0.3,0-0.3-0.1
			c-0.1-0.1-0.1-0.2-0.1-0.3c0-0.2,0.1-0.5,0.4-0.7c0.3-0.2,0.7-0.4,1.2-0.4c0.6,0,1.1,0.2,1.3,0.6c0.1,0.2,0.2,0.6,0.2,1v2
			c0,0.2,0,0.3,0,0.4c0,0.1,0.1,0.2,0.3,0.2c0.1,0,0.1,0,0.2,0s0.1-0.1,0.3-0.2v0.3c-0.1,0.1-0.2,0.2-0.3,0.3
			c-0.2,0.1-0.4,0.2-0.6,0.2c-0.2,0-0.4-0.1-0.5-0.2c-0.1-0.1-0.2-0.3-0.2-0.5c-0.2,0.2-0.5,0.4-0.6,0.5c-0.3,0.2-0.6,0.3-0.8,0.3
			c-0.3,0-0.5-0.1-0.7-0.3c-0.2-0.2-0.3-0.4-0.3-0.7C62.2,194.5,62.5,194.2,62.9,193.8z M64.7,193.3c-0.4,0.1-0.7,0.3-0.9,0.4
			c-0.5,0.3-0.7,0.6-0.7,1c0,0.3,0.1,0.5,0.3,0.7c0.1,0.1,0.3,0.1,0.4,0.1c0.2,0,0.4-0.1,0.6-0.2c0.2-0.1,0.3-0.3,0.3-0.5V193.3z"/>
		<path d="M68.8,191.5v0.4h-1l0,2.8c0,0.2,0,0.4,0.1,0.6c0.1,0.2,0.2,0.3,0.5,0.3c0.1,0,0.2,0,0.3-0.1c0.1-0.1,0.2-0.1,0.3-0.3
			l0.1,0.1l-0.1,0.1c-0.2,0.2-0.3,0.4-0.5,0.5s-0.4,0.1-0.5,0.1c-0.4,0-0.6-0.2-0.8-0.5c-0.1-0.2-0.1-0.4-0.1-0.8v-3h-0.5
			c0,0,0,0,0,0c0,0,0,0,0,0c0,0,0-0.1,0-0.1c0,0,0.1-0.1,0.1-0.1c0.2-0.2,0.4-0.3,0.5-0.5c0.1-0.1,0.3-0.4,0.7-0.9c0,0,0.1,0,0.1,0
			c0,0,0,0,0,0.1v1.2H68.8z"/>
		<path d="M69.3,195.9c0.3,0,0.6-0.1,0.7-0.2c0.1-0.1,0.1-0.3,0.1-0.7v-2.3c0-0.2,0-0.4,0-0.4c0-0.1-0.2-0.2-0.3-0.2
			c0,0-0.1,0-0.1,0c0,0-0.1,0-0.3,0.1v-0.2l0.2-0.1c0.6-0.2,1-0.3,1.2-0.4c0.1,0,0.2-0.1,0.2-0.1c0,0,0,0,0,0.1v3.5
			c0,0.4,0,0.6,0.1,0.7c0.1,0.1,0.3,0.2,0.6,0.2v0.1h-2.4V195.9z M70.1,189.3c0.1-0.1,0.2-0.2,0.4-0.2c0.1,0,0.3,0,0.4,0.1
			c0.1,0.1,0.1,0.2,0.1,0.4c0,0.1,0,0.3-0.1,0.4c-0.1,0.1-0.2,0.1-0.4,0.1c-0.1,0-0.3,0-0.4-0.1s-0.1-0.2-0.1-0.4
			C69.9,189.5,70,189.4,70.1,189.3z"/>
		<path d="M75.4,191.7c0.3,0.2,0.4,0.4,0.4,0.7c0,0.1,0,0.2-0.1,0.3s-0.2,0.1-0.3,0.1c-0.1,0-0.2,0-0.3-0.1
			c-0.1-0.1-0.1-0.2-0.2-0.3l-0.1-0.2c0-0.2-0.1-0.3-0.2-0.4c-0.1-0.1-0.2-0.1-0.4-0.1c-0.4,0-0.7,0.2-0.9,0.5
			c-0.3,0.3-0.4,0.8-0.4,1.3c0,0.5,0.1,0.9,0.4,1.3c0.3,0.4,0.7,0.6,1.1,0.6c0.3,0,0.6-0.1,0.9-0.3c0.2-0.1,0.3-0.3,0.5-0.6l0.1,0.1
			c-0.2,0.4-0.4,0.7-0.6,0.9c-0.4,0.4-0.8,0.7-1.4,0.7c-0.5,0-1-0.2-1.3-0.6s-0.6-0.9-0.6-1.6c0-0.7,0.2-1.3,0.6-1.7s1-0.7,1.6-0.7
			C74.7,191.4,75.1,191.5,75.4,191.7z"/>
		<path d="M79.1,197.5c0.2,0.2,0.3,0.3,0.4,0.3c0.2,0,0.3-0.1,0.4-0.4c0-0.1,0.1-0.4,0.1-0.7c0-0.1,0-0.4,0-0.9v-3.2
			c0-0.2,0-0.4-0.1-0.5c0-0.1-0.1-0.2-0.3-0.2c0,0-0.1,0-0.2,0c-0.1,0-0.1,0-0.2,0.1V192l0.4-0.1c0.1,0,0.2-0.1,0.4-0.1
			c0.2-0.1,0.3-0.1,0.5-0.2l0.3-0.1c0,0,0,0,0,0.1v4.5c0,0.6-0.1,1-0.2,1.3c-0.3,0.6-0.8,0.9-1.5,0.9c-0.2,0-0.5,0-0.6-0.1
			c-0.2-0.1-0.3-0.2-0.3-0.4c0-0.1,0-0.2,0.1-0.3c0.1-0.1,0.2-0.1,0.3-0.1C78.8,197.2,79,197.3,79.1,197.5z M80,189.3
			c0.1-0.1,0.2-0.2,0.4-0.2c0.1,0,0.3,0,0.4,0.2c0.1,0.1,0.1,0.2,0.1,0.4c0,0.1,0,0.3-0.1,0.4c-0.1,0.1-0.2,0.1-0.4,0.1
			c-0.1,0-0.3,0-0.4-0.1s-0.1-0.2-0.1-0.4C79.9,189.5,79.9,189.4,80,189.3z"/>
		<path d="M82.4,192.1c0.4-0.4,0.9-0.7,1.6-0.7c0.6,0,1.2,0.2,1.6,0.6s0.6,1,0.6,1.7c0,0.6-0.2,1.2-0.6,1.7s-0.9,0.7-1.6,0.7
			c-0.6,0-1.2-0.2-1.6-0.7s-0.6-1-0.6-1.7C81.8,193.1,82,192.5,82.4,192.1z M83.2,192c-0.3,0.3-0.5,0.8-0.5,1.5
			c0,0.6,0.1,1.1,0.4,1.6s0.6,0.8,1.1,0.8c0.4,0,0.6-0.2,0.8-0.5s0.3-0.8,0.3-1.3c0-0.6-0.1-1.1-0.4-1.6s-0.6-0.7-1.1-0.7
			C83.6,191.7,83.4,191.8,83.2,192z"/>
		<path d="M86.8,195.9c0.3,0,0.6-0.1,0.7-0.2c0.1-0.1,0.1-0.3,0.1-0.7v-2.3c0-0.2,0-0.4,0-0.4c0-0.1-0.2-0.2-0.3-0.2
			c0,0-0.1,0-0.1,0c0,0-0.1,0-0.3,0.1v-0.2l0.2-0.1c0.6-0.2,1-0.3,1.2-0.4c0.1,0,0.1-0.1,0.2-0.1c0,0,0,0,0,0.1v3.5
			c0,0.4,0,0.6,0.1,0.7c0.1,0.1,0.3,0.2,0.6,0.2v0.1h-2.4V195.9z M87.5,189.3c0.1-0.1,0.2-0.2,0.4-0.2c0.1,0,0.3,0,0.4,0.1
			c0.1,0.1,0.1,0.2,0.1,0.4c0,0.1,0,0.3-0.1,0.4c-0.1,0.1-0.2,0.1-0.4,0.1c-0.1,0-0.3,0-0.4-0.1s-0.1-0.2-0.1-0.4
			C87.4,189.5,87.4,189.4,87.5,189.3z"/>
		<path d="M89.5,195.9c0.2,0,0.4-0.1,0.5-0.2c0.1-0.1,0.1-0.3,0.1-0.6v-2.5c0-0.2,0-0.4-0.1-0.4c-0.1-0.1-0.2-0.2-0.4-0.2
			c0,0-0.1,0-0.1,0c0,0-0.1,0-0.1,0v-0.2c0.1,0,0.4-0.1,0.9-0.3l0.5-0.2c0,0,0,0,0,0c0,0,0,0,0,0.1v0.7c0.3-0.3,0.5-0.5,0.7-0.6
			c0.3-0.2,0.5-0.2,0.8-0.2c0.2,0,0.4,0.1,0.6,0.2c0.4,0.2,0.5,0.7,0.5,1.3v2.3c0,0.2,0,0.4,0.1,0.5s0.2,0.2,0.5,0.2v0.1h-2.1v-0.1
			c0.2,0,0.4-0.1,0.5-0.2c0.1-0.1,0.1-0.3,0.1-0.6v-2.1c0-0.3-0.1-0.5-0.2-0.7c-0.1-0.2-0.3-0.3-0.6-0.3c-0.2,0-0.4,0.1-0.6,0.2
			c-0.1,0.1-0.3,0.2-0.4,0.4v2.7c0,0.2,0.1,0.4,0.2,0.5c0.1,0.1,0.3,0.1,0.5,0.1v0.1h-2.1V195.9z"/>
		<path d="M96.9,191.5v0.4h-1l0,2.8c0,0.2,0,0.4,0.1,0.6c0.1,0.2,0.2,0.3,0.5,0.3c0.1,0,0.2,0,0.3-0.1c0.1-0.1,0.2-0.1,0.3-0.3
			l0.1,0.1l-0.1,0.1c-0.2,0.2-0.3,0.4-0.5,0.5s-0.4,0.1-0.5,0.1c-0.4,0-0.6-0.2-0.8-0.5c-0.1-0.2-0.1-0.4-0.1-0.8v-3h-0.5
			c0,0,0,0,0,0c0,0,0,0,0,0c0,0,0-0.1,0-0.1c0,0,0.1-0.1,0.1-0.1c0.2-0.2,0.4-0.3,0.5-0.5c0.1-0.1,0.3-0.4,0.7-0.9c0,0,0.1,0,0.1,0
			c0,0,0,0,0,0.1v1.2H96.9z"/>
		<path d="M97.7,194.5h0.2c0.1,0.4,0.2,0.7,0.3,0.9c0.2,0.4,0.6,0.5,1,0.5c0.2,0,0.4-0.1,0.6-0.2c0.1-0.1,0.2-0.3,0.2-0.5
			c0-0.1,0-0.3-0.1-0.4s-0.2-0.3-0.4-0.4l-0.5-0.3c-0.4-0.2-0.7-0.4-0.9-0.6c-0.2-0.2-0.3-0.5-0.3-0.8c0-0.4,0.1-0.7,0.4-0.9
			s0.6-0.4,1-0.4c0.2,0,0.4,0,0.6,0.1c0.2,0.1,0.3,0.1,0.3,0.1c0.1,0,0.1,0,0.1,0s0,0,0.1-0.1h0.1l0,1.4h-0.2
			c-0.1-0.3-0.2-0.6-0.3-0.7c-0.2-0.3-0.5-0.5-0.9-0.5c-0.2,0-0.4,0.1-0.5,0.2s-0.2,0.3-0.2,0.5c0,0.3,0.2,0.6,0.7,0.8l0.6,0.3
			c0.7,0.4,1,0.8,1,1.3c0,0.4-0.1,0.7-0.4,0.9c-0.3,0.2-0.7,0.4-1.1,0.4c-0.2,0-0.4,0-0.7-0.1s-0.4-0.1-0.4-0.1c0,0-0.1,0-0.1,0
			c0,0-0.1,0.1-0.1,0.1h-0.1V194.5z"/>
	</g>
	<polyline fill="#FFFFFF" stroke="#000000" points="15,94.1 15,80.5 15,104.1 	"/>
	<line fill="#FFFFFF" stroke="#000000" x1="0.2" y1="117.7" x2="29.2" y2="117.7"/>
	<ellipse fill="#FFFFFF" stroke="#000000" cx="14.5" cy="117.7" rx="4.7" ry="2.7"/>
	<line fill="none" stroke="#000000" x1="7" y1="206.7" x2="17" y2="206.7"/>
	<line fill="none" stroke="#000000" x1="17" y1="201.4" x2="17" y2="211.7"/>
	<line fill="none" stroke="#000000" x1="21.5" y1="201.4" x2="21.5" y2="211.7"/>
	<line fill="none" stroke="#000000" x1="19.4" y1="196.1" x2="19.4" y2="216.4"/>
</g>
<g id="Layer_2">
</g>
<g id="Layer_3">
	<g>
		<line fill="none" stroke="#000000" x1="3.4" y1="64.5" x2="9.3" y2="58.7"/>
		<line fill="none" stroke="#000000" x1="12.4" y1="56.6" x2="24.2" y2="59"/>
		<g>
			<circle fill="#FFFFFF" stroke="#000000" stroke-width="0.5" cx="12.4" cy="56.6" r="3.8"/>
			<ellipse cx="12.4" cy="56.6" rx="1.2" ry="1.2"/>
		</g>
	</g>
	<polygon fill="#FFFFFF" stroke="#000000" points="12.2,89.8 17.9,89.8 12.2,98.5 17.9,98.5 	"/>
	<rect x="13" y="114" fill="#FFFFFF" width="2.8" height="2"/>
	<line fill="#FFFFFF" stroke="#000000" x1="14.5" y1="121.7" x2="14.5" y2="124.7"/>
	<line fill="#FFFFFF" stroke="#000000" x1="14.5" y1="110" x2="14.5" y2="119.2"/>
	<polygon fill="#FFFFFF" stroke="#000000" points="17.7,146.9 11.7,146.9 11.7,141.2 11.7,135.6 17.7,135.6 	"/>
	<line fill="#FFFFFF" stroke="#000000" x1="0" y1="141.2" x2="11.7" y2="141.2"/>
	<polyline fill="none" stroke="#000000" points="14.7,146.9 14.7,151.6 30.3,151.6 	"/>
	<line fill="none" stroke="#000000" stroke-dasharray="1" x1="14.7" y1="135.6" x2="14.7" y2="146.9"/>
	<line fill="none" stroke="#000000" x1="14.7" y1="129.9" x2="14.7" y2="135.6"/>
	<g>
		<path d="M38.6,57c0.4,0,0.6-0.1,0.7-0.2s0.1-0.4,0.1-0.8v-4.3c0-0.4-0.1-0.6-0.2-0.7c-0.1-0.1-0.3-0.2-0.7-0.2v-0.2h2.8
			c0.6,0,1.1,0.1,1.4,0.2c0.7,0.3,1.1,0.8,1.1,1.5c0,0.5-0.2,0.9-0.5,1.1s-0.8,0.4-1.3,0.5l2.1,2.5c0.1,0.2,0.3,0.3,0.4,0.3
			s0.3,0.1,0.5,0.1v0.2h-1.6l-2.5-3.1l-0.4,0v2c0,0.4,0.1,0.6,0.2,0.7c0.1,0.1,0.4,0.2,0.7,0.2v0.2h-2.8V57z M42.1,53.5
			c0.5-0.2,0.8-0.6,0.8-1.2c0-0.6-0.2-1-0.7-1.2c-0.3-0.1-0.6-0.2-1-0.2c-0.3,0-0.5,0-0.5,0.1c-0.1,0-0.1,0.1-0.1,0.3v2.5
			C41.2,53.7,41.7,53.6,42.1,53.5z"/>
		<path d="M48.7,53.1c0.3,0.3,0.5,0.8,0.5,1.3h-3.1c0,0.8,0.2,1.3,0.5,1.6c0.3,0.3,0.7,0.5,1.1,0.5c0.3,0,0.6-0.1,0.9-0.3
			s0.5-0.4,0.6-0.8l0.2,0.1c-0.1,0.4-0.4,0.8-0.7,1.1c-0.4,0.4-0.8,0.5-1.3,0.5c-0.6,0-1.1-0.2-1.4-0.7s-0.5-1-0.5-1.6
			c0-0.7,0.2-1.2,0.6-1.7s0.9-0.7,1.5-0.7C47.9,52.6,48.3,52.7,48.7,53.1z M46.4,53.4c-0.1,0.2-0.2,0.4-0.2,0.7h2.1
			c0-0.3-0.1-0.6-0.2-0.7c-0.2-0.3-0.4-0.4-0.8-0.4C46.8,52.9,46.5,53.1,46.4,53.4z"/>
		<path d="M51.8,52.6v0.2c-0.2,0-0.3,0-0.4,0.1s-0.1,0.1-0.1,0.2c0,0.1,0,0.1,0,0.1c0,0,0,0.1,0.1,0.2l1,2.5l0.9-2.2
			c0-0.1,0.1-0.2,0.1-0.3s0.1-0.2,0.1-0.3c0-0.1-0.1-0.2-0.2-0.3c-0.1,0-0.2,0-0.3-0.1v-0.2h1.4v0.2c-0.2,0-0.3,0.1-0.3,0.2
			c-0.1,0.1-0.2,0.3-0.3,0.6l-1.4,3.5c0,0.1,0,0.1-0.1,0.1s0,0-0.1,0c0,0-0.1,0-0.1-0.1c0,0,0-0.1-0.1-0.1l-1.5-3.6
			c-0.1-0.3-0.2-0.5-0.4-0.6c-0.1-0.1-0.2-0.1-0.4-0.1v-0.2H51.8z"/>
		<path d="M55.5,53.3c0.4-0.4,0.9-0.7,1.6-0.7c0.6,0,1.2,0.2,1.6,0.6s0.6,1,0.6,1.7c0,0.6-0.2,1.2-0.6,1.7s-0.9,0.7-1.6,0.7
			c-0.6,0-1.2-0.2-1.6-0.7c-0.4-0.5-0.6-1-0.6-1.7C54.9,54.3,55.1,53.7,55.5,53.3z M56.3,53.1c-0.3,0.3-0.5,0.8-0.5,1.5
			c0,0.6,0.1,1.1,0.4,1.6c0.3,0.5,0.6,0.8,1.1,0.8c0.4,0,0.6-0.2,0.8-0.5s0.3-0.8,0.3-1.3c0-0.6-0.1-1.1-0.4-1.6
			c-0.3-0.5-0.6-0.7-1.1-0.7C56.7,52.9,56.5,53,56.3,53.1z"/>
		<path d="M59.8,57c0.3,0,0.5-0.1,0.6-0.2c0.1-0.1,0.2-0.3,0.2-0.5v-4.8c0-0.2,0-0.4-0.1-0.4c-0.1-0.1-0.2-0.2-0.4-0.2
			c0,0-0.1,0-0.1,0c-0.1,0-0.1,0-0.2,0v-0.2c0.4-0.1,1-0.3,1.6-0.5c0,0,0,0,0,0c0,0,0,0.1,0,0.1v5.9c0,0.3,0,0.5,0.1,0.5
			c0.1,0.1,0.3,0.1,0.6,0.2v0.1h-2.4V57z"/>
		<path d="M64,52.6v3.1c0,0.2,0,0.4,0.1,0.5c0.1,0.2,0.3,0.4,0.7,0.4c0.2,0,0.4-0.1,0.6-0.2c0.1-0.1,0.2-0.2,0.4-0.3v-2.7
			c0-0.3,0-0.4-0.1-0.5s-0.3-0.1-0.6-0.1v-0.2h1.6v3.4c0,0.2,0,0.4,0.1,0.5c0.1,0.1,0.2,0.1,0.5,0.1v0.1c-0.2,0-0.3,0.1-0.4,0.1
			c-0.1,0-0.2,0.1-0.4,0.1c-0.1,0-0.3,0.1-0.6,0.2c0,0,0,0,0,0c0,0,0,0,0-0.1v-0.8c-0.2,0.3-0.4,0.5-0.6,0.6
			c-0.3,0.2-0.6,0.3-0.9,0.3c-0.3,0-0.6-0.1-0.8-0.3c-0.3-0.2-0.4-0.5-0.4-1v-2.5c0-0.3-0.1-0.4-0.2-0.5c-0.1-0.1-0.2-0.1-0.5-0.1
			v-0.1H64z"/>
		<path d="M70,52.7V53h-1l0,2.8c0,0.2,0,0.4,0.1,0.6c0.1,0.2,0.2,0.3,0.5,0.3c0.1,0,0.2,0,0.3-0.1c0.1-0.1,0.2-0.1,0.3-0.3l0.1,0.1
			l-0.1,0.1c-0.2,0.2-0.3,0.4-0.5,0.5s-0.4,0.1-0.5,0.1c-0.4,0-0.6-0.2-0.8-0.5c-0.1-0.2-0.1-0.4-0.1-0.8v-3h-0.5c0,0,0,0,0,0
			c0,0,0,0,0,0c0,0,0-0.1,0-0.1c0,0,0.1-0.1,0.1-0.1c0.2-0.2,0.4-0.3,0.5-0.5c0.1-0.1,0.3-0.4,0.7-0.9c0,0,0.1,0,0.1,0
			c0,0,0,0,0,0.1v1.2H70z"/>
		<path d="M73.7,53.1c0.3,0.3,0.5,0.8,0.5,1.3h-3.1c0,0.8,0.2,1.3,0.5,1.6c0.3,0.3,0.7,0.5,1.1,0.5c0.3,0,0.6-0.1,0.9-0.3
			s0.5-0.4,0.6-0.8l0.2,0.1c-0.1,0.4-0.4,0.8-0.7,1.1c-0.4,0.4-0.8,0.5-1.3,0.5c-0.6,0-1.1-0.2-1.4-0.7c-0.3-0.5-0.5-1-0.5-1.6
			c0-0.7,0.2-1.2,0.6-1.7s0.9-0.7,1.5-0.7C72.9,52.6,73.3,52.7,73.7,53.1z M71.3,53.4c-0.1,0.2-0.2,0.4-0.2,0.7h2.1
			c0-0.3-0.1-0.6-0.2-0.7c-0.2-0.3-0.4-0.4-0.8-0.4C71.8,52.9,71.5,53.1,71.3,53.4z"/>
		<path d="M76.7,58c-0.2,0.3-0.5,0.5-0.8,0.6l-0.1-0.2c0.3-0.2,0.5-0.4,0.6-0.6c0.1-0.2,0.2-0.4,0.2-0.5c0,0,0-0.1,0-0.1
			s-0.1,0-0.1,0l-0.3,0c-0.1,0-0.3,0-0.4-0.1c-0.1-0.1-0.2-0.2-0.2-0.4c0-0.1,0-0.3,0.1-0.4s0.2-0.2,0.5-0.2c0.2,0,0.4,0.1,0.6,0.2
			c0.2,0.2,0.2,0.4,0.2,0.7C77.1,57.4,77,57.7,76.7,58z"/>
		<path d="M80.7,55c0.3-0.2,0.9-0.5,1.8-0.8v-0.4c0-0.3,0-0.6-0.1-0.7c-0.1-0.2-0.3-0.3-0.7-0.3c-0.2,0-0.3,0-0.5,0.1
			C81.1,53,81,53.1,81,53.3c0,0,0,0.1,0,0.2c0,0.1,0,0.2,0,0.2c0,0.2-0.1,0.3-0.2,0.4c-0.1,0-0.2,0.1-0.2,0.1c-0.1,0-0.3,0-0.3-0.1
			c-0.1-0.1-0.1-0.2-0.1-0.3c0-0.2,0.1-0.5,0.4-0.7c0.3-0.2,0.7-0.4,1.2-0.4c0.6,0,1.1,0.2,1.3,0.6c0.1,0.2,0.2,0.6,0.2,1v2
			c0,0.2,0,0.3,0,0.4c0,0.1,0.1,0.2,0.3,0.2c0.1,0,0.1,0,0.2,0s0.1-0.1,0.3-0.2v0.3c-0.1,0.1-0.2,0.2-0.3,0.3
			c-0.2,0.1-0.4,0.2-0.6,0.2c-0.2,0-0.4-0.1-0.5-0.2c-0.1-0.1-0.2-0.3-0.2-0.5c-0.2,0.2-0.5,0.4-0.6,0.5c-0.3,0.2-0.6,0.3-0.8,0.3
			c-0.3,0-0.5-0.1-0.7-0.3c-0.2-0.2-0.3-0.4-0.3-0.7C80,55.7,80.2,55.3,80.7,55z M82.5,54.5c-0.4,0.1-0.7,0.3-0.9,0.4
			c-0.5,0.3-0.7,0.6-0.7,1c0,0.3,0.1,0.5,0.3,0.7c0.1,0.1,0.3,0.1,0.4,0.1c0.2,0,0.4-0.1,0.6-0.2c0.2-0.1,0.3-0.3,0.3-0.5V54.5z"/>
		<path d="M86.4,52.7v0.1c-0.1,0-0.2,0-0.3,0.1c-0.1,0-0.1,0.1-0.1,0.2c0,0.1,0.1,0.2,0.3,0.5c0.1,0.1,0.2,0.3,0.4,0.5
			c0.2-0.3,0.3-0.5,0.4-0.6c0.2-0.2,0.2-0.4,0.2-0.5c0-0.1,0-0.1-0.1-0.2s-0.2,0-0.3-0.1v-0.1h1.6v0.1c-0.2,0-0.3,0.1-0.5,0.1
			c-0.1,0.1-0.3,0.2-0.3,0.3l-0.8,1.2l1.3,2c0.2,0.3,0.3,0.4,0.4,0.5c0.1,0.1,0.2,0.1,0.4,0.1v0.1h-2V57l0.1,0c0.1,0,0.1,0,0.2-0.1
			c0,0,0.1-0.1,0.1-0.1c0-0.1-0.1-0.2-0.2-0.4c-0.1-0.1-0.1-0.2-0.3-0.4c-0.1-0.1-0.1-0.2-0.2-0.4c-0.1-0.2-0.2-0.3-0.3-0.4
			l-0.8,1.2c-0.1,0.1-0.2,0.2-0.2,0.3s0,0.1,0,0.1c0,0.1,0,0.1,0.1,0.1c0.1,0,0.2,0,0.3,0.1v0.1h-1.4V57c0.2,0,0.3-0.1,0.4-0.1
			s0.2-0.2,0.3-0.4l1.1-1.7l-0.9-1.4c-0.2-0.3-0.3-0.5-0.4-0.5s-0.2-0.1-0.5-0.1v-0.1H86.4z"/>
		<path d="M89.3,57c0.3,0,0.6-0.1,0.7-0.2c0.1-0.1,0.1-0.3,0.1-0.7v-2.3c0-0.2,0-0.4,0-0.4c0-0.1-0.2-0.2-0.3-0.2c0,0-0.1,0-0.1,0
			c0,0-0.1,0-0.3,0.1v-0.2l0.2-0.1c0.6-0.2,1-0.3,1.2-0.4c0.1,0,0.1-0.1,0.2-0.1c0,0,0,0,0,0.1v3.5c0,0.4,0,0.6,0.1,0.7
			c0.1,0.1,0.3,0.2,0.6,0.2v0.1h-2.4V57z M90,50.5c0.1-0.1,0.2-0.2,0.4-0.2c0.1,0,0.3,0,0.4,0.1c0.1,0.1,0.1,0.2,0.1,0.4
			c0,0.1,0,0.3-0.1,0.4c-0.1,0.1-0.2,0.1-0.4,0.1c-0.1,0-0.3,0-0.4-0.1s-0.1-0.2-0.1-0.4C89.9,50.7,89.9,50.6,90,50.5z"/>
		<path d="M92.4,55.6h0.2c0.1,0.4,0.2,0.7,0.3,0.9c0.2,0.4,0.6,0.5,1,0.5c0.2,0,0.4-0.1,0.6-0.2c0.1-0.1,0.2-0.3,0.2-0.5
			c0-0.1,0-0.3-0.1-0.4s-0.2-0.3-0.4-0.4l-0.5-0.3c-0.4-0.2-0.7-0.4-0.9-0.6c-0.2-0.2-0.3-0.5-0.3-0.8c0-0.4,0.1-0.7,0.4-0.9
			s0.6-0.4,1-0.4c0.2,0,0.4,0,0.6,0.1c0.2,0.1,0.3,0.1,0.3,0.1c0.1,0,0.1,0,0.1,0s0,0,0.1-0.1H95l0,1.4h-0.2
			c-0.1-0.3-0.2-0.6-0.3-0.7c-0.2-0.3-0.5-0.5-0.9-0.5c-0.2,0-0.4,0.1-0.5,0.2S93,53.3,93,53.5c0,0.3,0.2,0.6,0.7,0.8l0.6,0.3
			c0.7,0.4,1,0.8,1,1.3c0,0.4-0.1,0.7-0.4,0.9c-0.3,0.2-0.7,0.4-1.1,0.4c-0.2,0-0.4,0-0.7-0.1s-0.4-0.1-0.4-0.1c0,0-0.1,0-0.1,0
			c0,0-0.1,0.1-0.1,0.1h-0.1V55.6z"/>
		<path d="M39.4,65.3c0.4-0.4,0.9-0.7,1.6-0.7c0.6,0,1.2,0.2,1.6,0.6s0.6,1,0.6,1.7c0,0.6-0.2,1.2-0.6,1.7s-0.9,0.7-1.6,0.7
			c-0.6,0-1.2-0.2-1.6-0.7s-0.6-1-0.6-1.7C38.8,66.3,39,65.7,39.4,65.3z M40.2,65.1c-0.3,0.3-0.5,0.8-0.5,1.5c0,0.6,0.1,1.1,0.4,1.6
			c0.3,0.5,0.6,0.8,1.1,0.8c0.4,0,0.6-0.2,0.8-0.5s0.3-0.8,0.3-1.3c0-0.6-0.1-1.1-0.4-1.6c-0.3-0.5-0.6-0.7-1.1-0.7
			C40.6,64.9,40.4,65,40.2,65.1z"/>
		<path d="M45.1,64.6v3.1c0,0.2,0,0.4,0.1,0.5c0.1,0.2,0.3,0.4,0.7,0.4c0.2,0,0.4-0.1,0.6-0.2c0.1-0.1,0.2-0.2,0.4-0.3v-2.7
			c0-0.3,0-0.4-0.1-0.5s-0.3-0.1-0.6-0.1v-0.2h1.6v3.4c0,0.2,0,0.4,0.1,0.5c0.1,0.1,0.2,0.1,0.5,0.1v0.1c-0.2,0-0.3,0.1-0.4,0.1
			c-0.1,0-0.2,0.1-0.4,0.1c-0.1,0-0.3,0.1-0.6,0.2c0,0,0,0,0,0c0,0,0,0,0-0.1v-0.8c-0.2,0.3-0.4,0.5-0.6,0.6
			c-0.3,0.2-0.6,0.3-0.9,0.3c-0.3,0-0.6-0.1-0.8-0.3c-0.3-0.2-0.4-0.5-0.4-1v-2.5c0-0.3-0.1-0.4-0.2-0.5c-0.1-0.1-0.2-0.1-0.5-0.1
			v-0.1H45.1z"/>
		<path d="M51.1,64.7V65h-1l0,2.8c0,0.2,0,0.4,0.1,0.6c0.1,0.2,0.2,0.3,0.5,0.3c0.1,0,0.2,0,0.3-0.1s0.2-0.1,0.3-0.3l0.1,0.1
			l-0.1,0.1c-0.2,0.2-0.3,0.4-0.5,0.5s-0.4,0.1-0.5,0.1c-0.4,0-0.6-0.2-0.8-0.5c-0.1-0.2-0.1-0.4-0.1-0.8v-3h-0.5c0,0,0,0,0,0
			s0,0,0,0c0,0,0-0.1,0-0.1c0,0,0.1-0.1,0.1-0.1c0.2-0.2,0.4-0.3,0.5-0.5c0.1-0.1,0.3-0.4,0.7-0.9c0,0,0.1,0,0.1,0s0,0,0,0.1v1.2
			H51.1z"/>
		<path d="M54.7,65.3c0.4-0.4,0.9-0.7,1.6-0.7c0.6,0,1.2,0.2,1.6,0.6s0.6,1,0.6,1.7c0,0.6-0.2,1.2-0.6,1.7s-0.9,0.7-1.6,0.7
			c-0.6,0-1.2-0.2-1.6-0.7s-0.6-1-0.6-1.7C54.1,66.3,54.3,65.7,54.7,65.3z M55.5,65.1c-0.3,0.3-0.5,0.8-0.5,1.5
			c0,0.6,0.1,1.1,0.4,1.6c0.3,0.5,0.6,0.8,1.1,0.8c0.4,0,0.6-0.2,0.8-0.5s0.3-0.8,0.3-1.3c0-0.6-0.1-1.1-0.4-1.6
			c-0.3-0.5-0.6-0.7-1.1-0.7C55.9,64.9,55.6,65,55.5,65.1z"/>
		<path d="M59,69c0.3,0,0.6-0.1,0.7-0.2c0.1-0.1,0.2-0.3,0.2-0.7V65H59v-0.3h0.8c0-0.5,0.1-0.9,0.2-1.3c0.3-0.7,0.8-1,1.5-1
			c0.3,0,0.5,0.1,0.8,0.2s0.3,0.3,0.3,0.5c0,0.1,0,0.2-0.1,0.3c-0.1,0.1-0.2,0.1-0.3,0.1c-0.1,0-0.2,0-0.2-0.1
			c-0.1-0.1-0.2-0.2-0.2-0.3l-0.1-0.1c0-0.1-0.1-0.1-0.2-0.2c-0.1,0-0.1-0.1-0.3-0.1c-0.2,0-0.4,0.1-0.5,0.4c0,0.1-0.1,0.3-0.1,0.5
			v1.2h1.2V65h-1.2v3.1c0,0.4,0,0.6,0.1,0.7c0.1,0.1,0.4,0.2,0.8,0.2v0.1H59V69z"/>
		<path d="M64.7,71.2c0.3,0,0.5-0.1,0.6-0.2s0.1-0.3,0.1-0.5v-4.7c0-0.2,0-0.4-0.1-0.5c-0.1-0.1-0.2-0.1-0.3-0.1c0,0-0.1,0-0.1,0
			c0,0-0.1,0-0.1,0v-0.2l0.5-0.2c0,0,0.3-0.1,1-0.3c0,0,0,0,0,0c0,0,0,0,0,0.1v0.7c0.2-0.2,0.4-0.4,0.6-0.5c0.3-0.2,0.6-0.3,0.9-0.3
			c0.4,0,0.8,0.2,1.2,0.6c0.3,0.4,0.5,0.9,0.5,1.6c0,0.7-0.2,1.2-0.6,1.8c-0.4,0.5-0.9,0.8-1.5,0.8c-0.2,0-0.3,0-0.5-0.1
			c-0.2-0.1-0.4-0.2-0.6-0.4v1.6c0,0.3,0.1,0.5,0.2,0.6s0.3,0.1,0.7,0.2v0.2h-2.4V71.2z M66.6,68.8c0.2,0.1,0.4,0.2,0.6,0.2
			c0.4,0,0.7-0.2,0.9-0.5c0.2-0.3,0.4-0.8,0.4-1.5c0-0.6-0.1-1-0.4-1.3c-0.3-0.3-0.6-0.4-0.9-0.4c-0.2,0-0.5,0.1-0.7,0.2
			c-0.2,0.1-0.3,0.3-0.3,0.4v2.5C66.3,68.5,66.4,68.6,66.6,68.8z"/>
		<path d="M70.7,67c0.3-0.2,0.9-0.5,1.8-0.8v-0.4c0-0.3,0-0.6-0.1-0.7c-0.1-0.2-0.3-0.3-0.7-0.3c-0.2,0-0.3,0-0.5,0.1
			C71.1,65,71,65.1,71,65.3c0,0,0,0.1,0,0.2c0,0.1,0,0.2,0,0.2c0,0.2-0.1,0.3-0.2,0.4c-0.1,0-0.1,0.1-0.2,0.1c-0.1,0-0.3,0-0.3-0.1
			c-0.1-0.1-0.1-0.2-0.1-0.3c0-0.2,0.1-0.5,0.4-0.7c0.3-0.2,0.7-0.4,1.2-0.4c0.6,0,1.1,0.2,1.3,0.6c0.1,0.2,0.2,0.6,0.2,1v2
			c0,0.2,0,0.3,0,0.4c0,0.1,0.1,0.2,0.3,0.2c0.1,0,0.1,0,0.2,0s0.1-0.1,0.3-0.2v0.3c-0.1,0.1-0.2,0.2-0.3,0.3
			c-0.2,0.1-0.4,0.2-0.6,0.2c-0.2,0-0.4-0.1-0.5-0.2c-0.1-0.1-0.2-0.3-0.2-0.5c-0.2,0.2-0.5,0.4-0.6,0.5c-0.3,0.2-0.6,0.3-0.8,0.3
			c-0.3,0-0.5-0.1-0.7-0.3c-0.2-0.2-0.3-0.4-0.3-0.7C70,67.7,70.2,67.3,70.7,67z M72.5,66.5c-0.4,0.1-0.7,0.3-0.9,0.4
			c-0.5,0.3-0.7,0.6-0.7,1c0,0.3,0.1,0.5,0.3,0.7c0.1,0.1,0.3,0.1,0.4,0.1c0.2,0,0.4-0.1,0.6-0.2c0.2-0.1,0.3-0.3,0.3-0.5V66.5z"/>
		<path d="M74.1,71.2c0.3,0,0.5-0.1,0.6-0.2c0.1-0.1,0.1-0.3,0.1-0.5v-4.7c0-0.2,0-0.4-0.1-0.5c-0.1-0.1-0.2-0.1-0.3-0.1
			c0,0-0.1,0-0.1,0c0,0-0.1,0-0.1,0v-0.2l0.5-0.2c0,0,0.3-0.1,1-0.3c0,0,0,0,0,0c0,0,0,0,0,0.1v0.7c0.2-0.2,0.4-0.4,0.6-0.5
			c0.3-0.2,0.6-0.3,0.9-0.3c0.4,0,0.8,0.2,1.2,0.6c0.3,0.4,0.5,0.9,0.5,1.6c0,0.7-0.2,1.2-0.6,1.8c-0.4,0.5-0.9,0.8-1.5,0.8
			c-0.2,0-0.3,0-0.5-0.1c-0.2-0.1-0.4-0.2-0.6-0.4v1.6c0,0.3,0.1,0.5,0.2,0.6s0.3,0.1,0.7,0.2v0.2h-2.4V71.2z M76,68.8
			c0.2,0.1,0.4,0.2,0.6,0.2c0.4,0,0.7-0.2,0.9-0.5c0.2-0.3,0.4-0.8,0.4-1.5c0-0.6-0.1-1-0.4-1.3c-0.3-0.3-0.6-0.4-0.9-0.4
			c-0.2,0-0.5,0.1-0.7,0.2c-0.2,0.1-0.3,0.3-0.3,0.4v2.5C75.8,68.5,75.9,68.6,76,68.8z"/>
		<path d="M82.6,65.1c0.3,0.3,0.5,0.8,0.5,1.3H80c0,0.8,0.2,1.3,0.5,1.6c0.3,0.3,0.7,0.5,1.1,0.5c0.3,0,0.6-0.1,0.9-0.3
			s0.5-0.4,0.6-0.8l0.2,0.1c-0.1,0.4-0.4,0.8-0.8,1.1c-0.4,0.4-0.8,0.5-1.3,0.5c-0.6,0-1.1-0.2-1.4-0.7c-0.3-0.5-0.5-1-0.5-1.6
			c0-0.7,0.2-1.2,0.6-1.7s0.9-0.7,1.5-0.7C81.8,64.6,82.2,64.7,82.6,65.1z M80.2,65.4c-0.1,0.2-0.2,0.4-0.2,0.7h2.1
			c0-0.3-0.1-0.6-0.2-0.7c-0.2-0.3-0.4-0.4-0.8-0.4C80.7,64.9,80.4,65.1,80.2,65.4z"/>
		<path d="M83.6,69c0.3,0,0.5-0.1,0.6-0.2c0.1-0.1,0.1-0.2,0.1-0.5v-2.2c0-0.3,0-0.6-0.1-0.7c-0.1-0.1-0.2-0.2-0.3-0.2
			c0,0-0.1,0-0.1,0c-0.1,0-0.1,0-0.2,0v-0.2c0.2-0.1,0.4-0.1,0.6-0.2c0.2-0.1,0.3-0.1,0.4-0.1c0.2-0.1,0.3-0.1,0.5-0.2c0,0,0,0,0,0
			c0,0,0,0.1,0,0.1v0.8c0.2-0.3,0.4-0.5,0.6-0.7s0.4-0.2,0.6-0.2c0.2,0,0.3,0,0.4,0.1c0.1,0.1,0.2,0.2,0.2,0.4c0,0.1,0,0.2-0.1,0.3
			c-0.1,0.1-0.2,0.1-0.3,0.1c-0.1,0-0.2-0.1-0.4-0.2c-0.1-0.1-0.2-0.2-0.3-0.2c-0.1,0-0.3,0.1-0.4,0.3c-0.2,0.2-0.2,0.4-0.2,0.6v2.2
			c0,0.3,0.1,0.5,0.2,0.6C85.4,69,85.7,69,86,69v0.2h-2.4V69z"/>
	</g>
	<g>
		<path d="M38.6,114.3c0.4,0,0.6-0.1,0.7-0.2s0.1-0.4,0.1-0.8v-4.3c0-0.4-0.1-0.6-0.2-0.7c-0.1-0.1-0.3-0.2-0.7-0.2v-0.2h2.8
			c0.6,0,1.1,0.1,1.4,0.2c0.7,0.3,1.1,0.8,1.1,1.5c0,0.5-0.2,0.9-0.5,1.1s-0.8,0.4-1.3,0.5l2.1,2.5c0.1,0.2,0.3,0.3,0.4,0.3
			s0.3,0.1,0.5,0.1v0.2h-1.6l-2.5-3.1l-0.4,0v2c0,0.4,0.1,0.6,0.2,0.7c0.1,0.1,0.4,0.2,0.7,0.2v0.2h-2.8V114.3z M42.1,110.8
			c0.5-0.2,0.8-0.6,0.8-1.2c0-0.6-0.2-1-0.7-1.2c-0.3-0.1-0.6-0.2-1-0.2c-0.3,0-0.5,0-0.5,0.1c-0.1,0-0.1,0.1-0.1,0.3v2.5
			C41.2,111,41.7,110.9,42.1,110.8z"/>
		<path d="M48.7,110.3c0.3,0.3,0.5,0.8,0.5,1.3h-3.1c0,0.8,0.2,1.3,0.5,1.6c0.3,0.3,0.7,0.5,1.1,0.5c0.3,0,0.6-0.1,0.9-0.3
			s0.5-0.4,0.6-0.8l0.2,0.1c-0.1,0.4-0.4,0.8-0.7,1.1c-0.4,0.4-0.8,0.5-1.3,0.5c-0.6,0-1.1-0.2-1.4-0.7s-0.5-1-0.5-1.6
			c0-0.7,0.2-1.2,0.6-1.7s0.9-0.7,1.5-0.7C47.9,109.9,48.3,110,48.7,110.3z M46.4,110.7c-0.1,0.2-0.2,0.4-0.2,0.7h2.1
			c0-0.3-0.1-0.6-0.2-0.7c-0.2-0.3-0.4-0.4-0.8-0.4C46.8,110.2,46.5,110.4,46.4,110.7z"/>
		<path d="M51.8,109.9v0.2c-0.2,0-0.3,0-0.4,0.1s-0.1,0.1-0.1,0.2c0,0.1,0,0.1,0,0.1c0,0,0,0.1,0.1,0.2l1,2.5l0.9-2.2
			c0-0.1,0.1-0.2,0.1-0.3s0.1-0.2,0.1-0.3c0-0.1-0.1-0.2-0.2-0.3c-0.1,0-0.2,0-0.3-0.1v-0.2h1.4v0.2c-0.2,0-0.3,0.1-0.3,0.2
			c-0.1,0.1-0.2,0.3-0.3,0.6l-1.4,3.5c0,0.1,0,0.1-0.1,0.1s0,0-0.1,0c0,0-0.1,0-0.1-0.1c0,0,0-0.1-0.1-0.1l-1.5-3.6
			c-0.1-0.3-0.2-0.5-0.4-0.6c-0.1-0.1-0.2-0.1-0.4-0.1v-0.2H51.8z"/>
		<path d="M55.5,110.5c0.4-0.4,0.9-0.7,1.6-0.7c0.6,0,1.2,0.2,1.6,0.6s0.6,1,0.6,1.7c0,0.6-0.2,1.2-0.6,1.7s-0.9,0.7-1.6,0.7
			c-0.6,0-1.2-0.2-1.6-0.7c-0.4-0.5-0.6-1-0.6-1.7C54.9,111.5,55.1,111,55.5,110.5z M56.3,110.4c-0.3,0.3-0.5,0.8-0.5,1.5
			c0,0.6,0.1,1.1,0.4,1.6c0.3,0.5,0.6,0.8,1.1,0.8c0.4,0,0.6-0.2,0.8-0.5s0.3-0.8,0.3-1.3c0-0.6-0.1-1.1-0.4-1.6
			c-0.3-0.5-0.6-0.7-1.1-0.7C56.7,110.2,56.5,110.3,56.3,110.4z"/>
		<path d="M59.8,114.3c0.3,0,0.5-0.1,0.6-0.2c0.1-0.1,0.2-0.3,0.2-0.5v-4.8c0-0.2,0-0.4-0.1-0.4c-0.1-0.1-0.2-0.2-0.4-0.2
			c0,0-0.1,0-0.1,0c-0.1,0-0.1,0-0.2,0v-0.2c0.4-0.1,1-0.3,1.6-0.5c0,0,0,0,0,0c0,0,0,0.1,0,0.1v5.9c0,0.3,0,0.5,0.1,0.5
			c0.1,0.1,0.3,0.1,0.6,0.2v0.1h-2.4V114.3z"/>
		<path d="M64,109.9v3.1c0,0.2,0,0.4,0.1,0.5c0.1,0.2,0.3,0.4,0.7,0.4c0.2,0,0.4-0.1,0.6-0.2c0.1-0.1,0.2-0.2,0.4-0.3v-2.7
			c0-0.3,0-0.4-0.1-0.5s-0.3-0.1-0.6-0.1v-0.2h1.6v3.4c0,0.2,0,0.4,0.1,0.5c0.1,0.1,0.2,0.1,0.5,0.1v0.1c-0.2,0-0.3,0.1-0.4,0.1
			c-0.1,0-0.2,0.1-0.4,0.1c-0.1,0-0.3,0.1-0.6,0.2c0,0,0,0,0,0c0,0,0,0,0-0.1v-0.8c-0.2,0.3-0.4,0.5-0.6,0.6
			c-0.3,0.2-0.6,0.3-0.9,0.3c-0.3,0-0.6-0.1-0.8-0.3c-0.3-0.2-0.4-0.5-0.4-1v-2.5c0-0.3-0.1-0.4-0.2-0.5c-0.1-0.1-0.2-0.1-0.5-0.1
			v-0.1H64z"/>
		<path d="M70,110v0.4h-1l0,2.8c0,0.2,0,0.4,0.1,0.6c0.1,0.2,0.2,0.3,0.5,0.3c0.1,0,0.2,0,0.3-0.1c0.1-0.1,0.2-0.1,0.3-0.3l0.1,0.1
			l-0.1,0.1c-0.2,0.2-0.3,0.4-0.5,0.5s-0.4,0.1-0.5,0.1c-0.4,0-0.6-0.2-0.8-0.5c-0.1-0.2-0.1-0.4-0.1-0.8v-3h-0.5c0,0,0,0,0,0
			c0,0,0,0,0,0c0,0,0-0.1,0-0.1c0,0,0.1-0.1,0.1-0.1c0.2-0.2,0.4-0.3,0.5-0.5c0.1-0.1,0.3-0.4,0.7-0.9c0,0,0.1,0,0.1,0
			c0,0,0,0,0,0.1v1.2H70z"/>
		<path d="M73.7,110.3c0.3,0.3,0.5,0.8,0.5,1.3h-3.1c0,0.8,0.2,1.3,0.5,1.6c0.3,0.3,0.7,0.5,1.1,0.5c0.3,0,0.6-0.1,0.9-0.3
			s0.5-0.4,0.6-0.8l0.2,0.1c-0.1,0.4-0.4,0.8-0.7,1.1c-0.4,0.4-0.8,0.5-1.3,0.5c-0.6,0-1.1-0.2-1.4-0.7c-0.3-0.5-0.5-1-0.5-1.6
			c0-0.7,0.2-1.2,0.6-1.7s0.9-0.7,1.5-0.7C72.9,109.9,73.3,110,73.7,110.3z M71.3,110.7c-0.1,0.2-0.2,0.4-0.2,0.7h2.1
			c0-0.3-0.1-0.6-0.2-0.7c-0.2-0.3-0.4-0.4-0.8-0.4C71.8,110.2,71.5,110.4,71.3,110.7z"/>
		<path d="M76.7,115.3c-0.2,0.3-0.5,0.5-0.8,0.6l-0.1-0.2c0.3-0.2,0.5-0.4,0.6-0.6c0.1-0.2,0.2-0.4,0.2-0.5c0,0,0-0.1,0-0.1
			s-0.1,0-0.1,0l-0.3,0c-0.1,0-0.3,0-0.4-0.1c-0.1-0.1-0.2-0.2-0.2-0.4c0-0.1,0-0.3,0.1-0.4s0.2-0.2,0.5-0.2c0.2,0,0.4,0.1,0.6,0.2
			c0.2,0.2,0.2,0.4,0.2,0.7C77.1,114.7,77,115,76.7,115.3z"/>
		<path d="M80.7,112.3c0.3-0.2,0.9-0.5,1.8-0.8v-0.4c0-0.3,0-0.6-0.1-0.7c-0.1-0.2-0.3-0.3-0.7-0.3c-0.2,0-0.3,0-0.5,0.1
			c-0.1,0.1-0.2,0.2-0.2,0.4c0,0,0,0.1,0,0.2c0,0.1,0,0.2,0,0.2c0,0.2-0.1,0.3-0.2,0.4c-0.1,0-0.2,0.1-0.2,0.1c-0.1,0-0.3,0-0.3-0.1
			c-0.1-0.1-0.1-0.2-0.1-0.3c0-0.2,0.1-0.5,0.4-0.7c0.3-0.2,0.7-0.4,1.2-0.4c0.6,0,1.1,0.2,1.3,0.6c0.1,0.2,0.2,0.6,0.2,1v2
			c0,0.2,0,0.3,0,0.4c0,0.1,0.1,0.2,0.3,0.2c0.1,0,0.1,0,0.2,0s0.1-0.1,0.3-0.2v0.3c-0.1,0.1-0.2,0.2-0.3,0.3
			c-0.2,0.1-0.4,0.2-0.6,0.2c-0.2,0-0.4-0.1-0.5-0.2c-0.1-0.1-0.2-0.3-0.2-0.5c-0.2,0.2-0.5,0.4-0.6,0.5c-0.3,0.2-0.6,0.3-0.8,0.3
			c-0.3,0-0.5-0.1-0.7-0.3c-0.2-0.2-0.3-0.4-0.3-0.7C80,113,80.2,112.6,80.7,112.3z M82.5,111.7c-0.4,0.1-0.7,0.3-0.9,0.4
			c-0.5,0.3-0.7,0.6-0.7,1c0,0.3,0.1,0.5,0.3,0.7c0.1,0.1,0.3,0.1,0.4,0.1c0.2,0,0.4-0.1,0.6-0.2c0.2-0.1,0.3-0.3,0.3-0.5V111.7z"/>
		<path d="M86.4,110v0.1c-0.1,0-0.2,0-0.3,0.1c-0.1,0-0.1,0.1-0.1,0.2c0,0.1,0.1,0.2,0.3,0.5c0.1,0.1,0.2,0.3,0.4,0.5
			c0.2-0.3,0.3-0.5,0.4-0.6c0.2-0.2,0.2-0.4,0.2-0.5c0-0.1,0-0.1-0.1-0.2s-0.2,0-0.3-0.1V110h1.6v0.1c-0.2,0-0.3,0.1-0.5,0.1
			c-0.1,0.1-0.3,0.2-0.3,0.3l-0.8,1.2l1.3,2c0.2,0.3,0.3,0.4,0.4,0.5c0.1,0.1,0.2,0.1,0.4,0.1v0.1h-2v-0.1l0.1,0
			c0.1,0,0.1,0,0.2-0.1c0,0,0.1-0.1,0.1-0.1c0-0.1-0.1-0.2-0.2-0.4c-0.1-0.1-0.1-0.2-0.3-0.4c-0.1-0.1-0.1-0.2-0.2-0.4
			c-0.1-0.2-0.2-0.3-0.3-0.4l-0.8,1.2c-0.1,0.1-0.2,0.2-0.2,0.3s0,0.1,0,0.1c0,0.1,0,0.1,0.1,0.1c0.1,0,0.2,0,0.3,0.1v0.1h-1.4v-0.1
			c0.2,0,0.3-0.1,0.4-0.1s0.2-0.2,0.3-0.4l1.1-1.7l-0.9-1.4c-0.2-0.3-0.3-0.5-0.4-0.5s-0.2-0.1-0.5-0.1V110H86.4z"/>
		<path d="M89.3,114.3c0.3,0,0.6-0.1,0.7-0.2c0.1-0.1,0.1-0.3,0.1-0.7v-2.3c0-0.2,0-0.4,0-0.4c0-0.1-0.2-0.2-0.3-0.2
			c0,0-0.1,0-0.1,0c0,0-0.1,0-0.3,0.1v-0.2l0.2-0.1c0.6-0.2,1-0.3,1.2-0.4c0.1,0,0.1-0.1,0.2-0.1c0,0,0,0,0,0.1v3.5
			c0,0.4,0,0.6,0.1,0.7c0.1,0.1,0.3,0.2,0.6,0.2v0.1h-2.4V114.3z M90,107.8c0.1-0.1,0.2-0.2,0.4-0.2c0.1,0,0.3,0,0.4,0.1
			c0.1,0.1,0.1,0.2,0.1,0.4c0,0.1,0,0.3-0.1,0.4c-0.1,0.1-0.2,0.1-0.4,0.1c-0.1,0-0.3,0-0.4-0.1s-0.1-0.2-0.1-0.4
			C89.9,108,89.9,107.9,90,107.8z"/>
		<path d="M92.4,112.9h0.2c0.1,0.4,0.2,0.7,0.3,0.9c0.2,0.4,0.6,0.5,1,0.5c0.2,0,0.4-0.1,0.6-0.2c0.1-0.1,0.2-0.3,0.2-0.5
			c0-0.1,0-0.3-0.1-0.4s-0.2-0.3-0.4-0.4l-0.5-0.3c-0.4-0.2-0.7-0.4-0.9-0.6c-0.2-0.2-0.3-0.5-0.3-0.8c0-0.4,0.1-0.7,0.4-0.9
			s0.6-0.4,1-0.4c0.2,0,0.4,0,0.6,0.1c0.2,0.1,0.3,0.1,0.3,0.1c0.1,0,0.1,0,0.1,0s0,0,0.1-0.1H95l0,1.4h-0.2
			c-0.1-0.3-0.2-0.6-0.3-0.7c-0.2-0.3-0.5-0.5-0.9-0.5c-0.2,0-0.4,0.1-0.5,0.2s-0.2,0.3-0.2,0.5c0,0.3,0.2,0.6,0.7,0.8l0.6,0.3
			c0.7,0.4,1,0.8,1,1.3c0,0.4-0.1,0.7-0.4,0.9c-0.3,0.2-0.7,0.4-1.1,0.4c-0.2,0-0.4,0-0.7-0.1s-0.4-0.1-0.4-0.1c0,0-0.1,0-0.1,0
			c0,0-0.1,0.1-0.1,0.1h-0.1V112.9z"/>
		<path d="M38.7,126.3c0.3,0,0.6-0.1,0.7-0.2c0.1-0.1,0.1-0.3,0.1-0.7v-2.3c0-0.2,0-0.4,0-0.4c0-0.1-0.2-0.2-0.3-0.2
			c0,0-0.1,0-0.1,0s-0.1,0-0.3,0.1v-0.2l0.2-0.1c0.6-0.2,1-0.3,1.2-0.4c0.1,0,0.1-0.1,0.2-0.1c0,0,0,0,0,0.1v3.5
			c0,0.4,0,0.6,0.1,0.7s0.3,0.2,0.6,0.2v0.1h-2.4V126.3z M39.5,119.8c0.1-0.1,0.2-0.2,0.4-0.2c0.1,0,0.3,0,0.4,0.1s0.1,0.2,0.1,0.4
			c0,0.1,0,0.3-0.1,0.4s-0.2,0.1-0.4,0.1c-0.1,0-0.3,0-0.4-0.1s-0.1-0.2-0.1-0.4C39.3,120,39.4,119.9,39.5,119.8z"/>
		<path d="M41.5,126.3c0.2,0,0.4-0.1,0.5-0.2c0.1-0.1,0.1-0.3,0.1-0.6v-2.5c0-0.2,0-0.4-0.1-0.4c-0.1-0.1-0.2-0.2-0.4-0.2
			c0,0-0.1,0-0.1,0s-0.1,0-0.1,0v-0.2c0.1,0,0.4-0.1,0.9-0.3l0.5-0.2c0,0,0,0,0,0s0,0,0,0.1v0.7c0.3-0.3,0.5-0.5,0.7-0.6
			c0.3-0.2,0.5-0.2,0.8-0.2c0.2,0,0.4,0.1,0.6,0.2c0.4,0.2,0.5,0.7,0.5,1.3v2.3c0,0.2,0,0.4,0.1,0.5s0.2,0.2,0.5,0.2v0.1h-2.1v-0.1
			c0.2,0,0.4-0.1,0.5-0.2c0.1-0.1,0.1-0.3,0.1-0.6v-2.1c0-0.3-0.1-0.5-0.2-0.7c-0.1-0.2-0.3-0.3-0.6-0.3c-0.2,0-0.4,0.1-0.6,0.2
			c-0.1,0.1-0.3,0.2-0.4,0.4v2.7c0,0.2,0.1,0.4,0.2,0.5c0.1,0.1,0.3,0.1,0.5,0.1v0.1h-2.1V126.3z"/>
		<path d="M48.9,128.5c0.3,0,0.5-0.1,0.6-0.2c0.1-0.1,0.1-0.3,0.1-0.5v-4.7c0-0.2,0-0.4-0.1-0.5c-0.1-0.1-0.2-0.1-0.3-0.1
			c0,0-0.1,0-0.1,0s-0.1,0-0.1,0v-0.2l0.5-0.2c0,0,0.3-0.1,1-0.3c0,0,0,0,0,0c0,0,0,0,0,0.1v0.7c0.2-0.2,0.4-0.4,0.6-0.5
			c0.3-0.2,0.6-0.3,0.9-0.3c0.4,0,0.8,0.2,1.2,0.6s0.5,0.9,0.5,1.6c0,0.7-0.2,1.2-0.6,1.8s-0.9,0.8-1.5,0.8c-0.2,0-0.3,0-0.5-0.1
			c-0.2-0.1-0.4-0.2-0.6-0.4v1.6c0,0.3,0.1,0.5,0.2,0.6s0.3,0.1,0.7,0.2v0.2h-2.4V128.5z M50.8,126c0.2,0.1,0.4,0.2,0.6,0.2
			c0.4,0,0.7-0.2,0.9-0.5s0.4-0.8,0.4-1.5c0-0.6-0.1-1-0.4-1.3s-0.6-0.4-0.9-0.4c-0.2,0-0.5,0.1-0.7,0.2c-0.2,0.1-0.3,0.3-0.3,0.4
			v2.5C50.5,125.8,50.6,125.9,50.8,126z"/>
		<path d="M54.9,124.3c0.3-0.2,0.9-0.5,1.8-0.8v-0.4c0-0.3,0-0.6-0.1-0.7c-0.1-0.2-0.3-0.3-0.7-0.3c-0.2,0-0.3,0-0.5,0.1
			c-0.1,0.1-0.2,0.2-0.2,0.4c0,0,0,0.1,0,0.2c0,0.1,0,0.2,0,0.2c0,0.2-0.1,0.3-0.2,0.4c-0.1,0-0.1,0.1-0.2,0.1c-0.1,0-0.3,0-0.3-0.1
			c-0.1-0.1-0.1-0.2-0.1-0.3c0-0.2,0.1-0.5,0.4-0.7c0.3-0.2,0.7-0.4,1.2-0.4c0.6,0,1.1,0.2,1.3,0.6c0.1,0.2,0.2,0.6,0.2,1v2
			c0,0.2,0,0.3,0,0.4c0,0.1,0.1,0.2,0.3,0.2c0.1,0,0.1,0,0.2,0s0.1-0.1,0.3-0.2v0.3c-0.1,0.1-0.2,0.2-0.3,0.3
			c-0.2,0.1-0.4,0.2-0.6,0.2c-0.2,0-0.4-0.1-0.5-0.2c-0.1-0.1-0.2-0.3-0.2-0.5c-0.2,0.2-0.5,0.4-0.6,0.5c-0.3,0.2-0.6,0.3-0.8,0.3
			c-0.3,0-0.5-0.1-0.7-0.3c-0.2-0.2-0.3-0.4-0.3-0.7C54.2,125,54.4,124.6,54.9,124.3z M56.7,123.7c-0.4,0.1-0.7,0.3-0.9,0.4
			c-0.5,0.3-0.7,0.6-0.7,1c0,0.3,0.1,0.5,0.3,0.7c0.1,0.1,0.3,0.1,0.4,0.1c0.2,0,0.4-0.1,0.6-0.2c0.2-0.1,0.3-0.3,0.3-0.5V123.7z"/>
		<path d="M58.3,128.5c0.3,0,0.5-0.1,0.6-0.2c0.1-0.1,0.1-0.3,0.1-0.5v-4.7c0-0.2,0-0.4-0.1-0.5c-0.1-0.1-0.2-0.1-0.3-0.1
			c0,0-0.1,0-0.1,0c0,0-0.1,0-0.1,0v-0.2l0.5-0.2c0,0,0.3-0.1,1-0.3c0,0,0,0,0,0c0,0,0,0,0,0.1v0.7c0.2-0.2,0.4-0.4,0.6-0.5
			c0.3-0.2,0.6-0.3,0.9-0.3c0.4,0,0.8,0.2,1.2,0.6c0.3,0.4,0.5,0.9,0.5,1.6c0,0.7-0.2,1.2-0.6,1.8c-0.4,0.5-0.9,0.8-1.5,0.8
			c-0.2,0-0.3,0-0.5-0.1c-0.2-0.1-0.4-0.2-0.6-0.4v1.6c0,0.3,0.1,0.5,0.2,0.6s0.3,0.1,0.7,0.2v0.2h-2.4V128.5z M60.2,126
			c0.2,0.1,0.4,0.2,0.6,0.2c0.4,0,0.7-0.2,0.9-0.5c0.2-0.3,0.4-0.8,0.4-1.5c0-0.6-0.1-1-0.4-1.3c-0.3-0.3-0.6-0.4-0.9-0.4
			c-0.2,0-0.5,0.1-0.7,0.2c-0.2,0.1-0.3,0.3-0.3,0.4v2.5C59.9,125.8,60,125.9,60.2,126z"/>
		<path d="M66.7,122.3c0.3,0.3,0.5,0.8,0.5,1.3h-3.1c0,0.8,0.2,1.3,0.5,1.6c0.3,0.3,0.7,0.5,1.1,0.5c0.3,0,0.6-0.1,0.9-0.3
			s0.5-0.4,0.6-0.8l0.2,0.1c-0.1,0.4-0.4,0.8-0.8,1.1c-0.4,0.4-0.8,0.5-1.3,0.5c-0.6,0-1.1-0.2-1.4-0.7c-0.3-0.5-0.5-1-0.5-1.6
			c0-0.7,0.2-1.2,0.6-1.7s0.9-0.7,1.5-0.7C66,121.9,66.4,122,66.7,122.3z M64.4,122.7c-0.1,0.2-0.2,0.4-0.2,0.7h2.1
			c0-0.3-0.1-0.6-0.2-0.7c-0.2-0.3-0.4-0.4-0.8-0.4C64.9,122.2,64.6,122.4,64.4,122.7z"/>
		<path d="M67.7,126.3c0.3,0,0.5-0.1,0.6-0.2c0.1-0.1,0.1-0.2,0.1-0.5v-2.2c0-0.3,0-0.6-0.1-0.7c-0.1-0.1-0.2-0.2-0.3-0.2
			c0,0-0.1,0-0.1,0c-0.1,0-0.1,0-0.2,0v-0.2c0.2-0.1,0.4-0.1,0.6-0.2c0.2-0.1,0.3-0.1,0.4-0.1c0.2-0.1,0.3-0.1,0.5-0.2c0,0,0,0,0,0
			c0,0,0,0.1,0,0.1v0.8c0.2-0.3,0.4-0.5,0.6-0.7s0.4-0.2,0.6-0.2c0.2,0,0.3,0,0.4,0.1c0.1,0.1,0.2,0.2,0.2,0.4c0,0.1,0,0.2-0.1,0.3
			c-0.1,0.1-0.2,0.1-0.3,0.1c-0.1,0-0.2-0.1-0.4-0.2c-0.1-0.1-0.2-0.2-0.3-0.2c-0.1,0-0.3,0.1-0.4,0.3c-0.2,0.2-0.2,0.4-0.2,0.6v2.2
			c0,0.3,0.1,0.5,0.2,0.6c0.1,0.1,0.3,0.2,0.6,0.2v0.2h-2.4V126.3z"/>
	</g>
	<polyline fill="#FFFFFF" stroke="#000000" points="16,179.8 5.7,179.8 23.7,179.8 	"/>
	<polygon fill="#FFFFFF" stroke="#000000" points="15,182.7 15,177 23.7,182.7 23.7,177 	"/>
	<line fill="#FFFFFF" stroke="#000000" x1="19.3" y1="189.2" x2="19.3" y2="168.3"/>
</g>
</svg>
