<?xml version="1.0" encoding="utf-8"?>
<!-- Generator: Adobe Illustrator 18.1.1, SVG Export Plug-In . SVG Version: 6.00 Build 0)  -->
<svg version="1.1" id="Layer_1" xmlns="http://www.w3.org/2000/svg" xmlns:xlink="http://www.w3.org/1999/xlink" x="0px" y="0px"
	 viewBox="-235.1 294.3 197.6 204.7" enable-background="new -235.1 294.3 197.6 204.7" xml:space="preserve">
<g id="Layer_1_1_">
	<g>
		<g>
			<polyline fill="#FFFFFF" stroke="#000000" stroke-width="0.5" points="-158.8,483.5 -158.8,493.3 -178.4,493.3 -178.4,483.5 			
				"/>
			<path fill="#FFFFFF" stroke="#000000" stroke-width="0.5" d="M-178.4,483.5c0-5.4,4.4-9.8,9.8-9.8c5.4,0,9.8,4.4,9.8,9.8"/>
			<ellipse stroke="#FFFFFF" stroke-width="0.5" cx="-168.6" cy="483.5" rx="1.8" ry="1.9"/>
		</g>
		<line fill="none" stroke="#000000" stroke-width="0.5" x1="-175.6" y1="493.3" x2="-177" y2="498.9"/>
		<line fill="none" stroke="#000000" stroke-width="0.5" x1="-163" y1="493.3" x2="-164.4" y2="498.9"/>
		<line fill="none" stroke="#000000" stroke-width="0.5" x1="-167.2" y1="493.3" x2="-168.6" y2="498.9"/>
		<line fill="none" stroke="#000000" stroke-width="0.5" x1="-171.4" y1="493.3" x2="-172.8" y2="498.9"/>
	</g>
	
		<rect x="-256.1" y="409.3" transform="matrix(0.2404 0.9707 -0.9707 0.2404 261.8558 495.3321)" fill="#FFFFFF" stroke="#000000" stroke-width="0.5" width="141.1" height="11.3"/>
	<circle fill="#FFFFFF" stroke="#000000" stroke-width="0.5" cx="-168.6" cy="483.5" r="5.6"/>
	<path d="M-169,481.8c1-0.2,2,0.3,2.2,1.3c0.2,0.9-0.4,1.9-1.4,2.2c-1,0.2-2-0.3-2.2-1.3C-170.6,483-170,482-169,481.8z"/>
	
		<rect x="-203.6" y="351.3" transform="matrix(-0.9828 -0.1848 0.1848 -0.9828 -356.8264 680.5687)" fill="#FFFFFF" stroke="#000000" stroke-width="0.5" width="113.8" height="11.3"/>
	<circle fill="#FFFFFF" stroke="#000000" stroke-width="0.5" cx="-202.6" cy="346.5" r="5.6"/>
	<ellipse cx="-202.6" cy="346.5" rx="1.8" ry="1.9"/>
	<g>
		<line fill="none" stroke="#000000" x1="-88.7" y1="356.4" x2="-92.9" y2="378.5"/>
		<polygon points="-89.3,359.2 -90,363.3 -74.7,366.2 		"/>
		<polygon points="-91.6,371.6 -76.2,374.5 -92.4,375.8 		"/>
	</g>
</g>
<g id="Layer_2">
	<line fill="none" stroke="#000000" stroke-dasharray="2" x1="-168.6" y1="483.5" x2="-105.9" y2="483.5"/>
	<g enable-background="new    ">
		<path d="M-66.2,357.9c-0.5,0.5-0.9,1-1.2,1.5c-0.5,0.8-1,1.7-1.3,2.8c-0.3,1-0.5,1.9-0.6,2.7c-0.1,0.9-0.2,1.6-0.2,2.2
			c0,0.9,0,1.6,0.1,2.2c0.1,0.6,0.3,1.3,0.6,2.3l-0.3,0.1c-0.6-1-1-2-1.3-3c-0.3-1-0.4-2-0.4-3c0-1.3,0.2-2.5,0.7-3.5
			c0.6-1.5,1.9-3.1,3.6-4.6L-66.2,357.9z"/>
		<path d="M-66.2,367.7c0.1-0.1,0.3-0.1,0.4-0.1c0.1,0,0.1,0,0.2,0s0.1,0,0.2,0.1l0.3,0.2c0,0,0.1,0,0.1,0c0,0,0.1,0,0.1,0
			c0.1,0,0.2,0,0.3-0.1c0.1-0.1,0.3-0.3,0.6-0.7c0.2-0.3,0.6-0.9,1.4-1.9c0,0-0.1-0.3-0.2-0.9c-0.1-0.5-0.2-1-0.3-1.4
			c-0.1-0.4-0.2-0.6-0.3-0.8c-0.1-0.1-0.2-0.2-0.5-0.2c-0.1,0-0.2,0-0.4,0.1c-0.1,0-0.3,0.1-0.5,0.1l-0.1-0.2l0.9-0.3
			c0.2-0.1,0.4-0.1,0.6-0.2c0.2,0,0.4-0.1,0.5-0.1c0.2,0,0.4,0.1,0.5,0.2c0.2,0.2,0.3,0.6,0.4,1.3l0.2,0.9c0.5-0.7,0.9-1.3,1.1-1.6
			c0.2-0.3,0.5-0.5,0.7-0.6c0.2-0.1,0.4-0.2,0.6-0.2c0.2,0,0.3,0,0.4,0.1c0.2,0.1,0.3,0.3,0.3,0.5c0,0.2-0.1,0.3-0.2,0.4
			c-0.1,0.1-0.2,0.2-0.4,0.2c-0.1,0-0.1,0-0.2,0s-0.1,0-0.2-0.1l-0.2-0.1c-0.1,0-0.1,0-0.2-0.1s-0.1,0-0.1,0c-0.2,0-0.6,0.3-1,0.9
			c-0.4,0.6-0.6,1-0.6,1.1c0,0.1,0,0.3,0.1,0.8c0.1,0.4,0.2,0.9,0.3,1.4c0.1,0.5,0.2,0.8,0.3,1c0.1,0.3,0.3,0.4,0.4,0.4
			c0.1,0,0.3-0.1,0.4-0.2s0.4-0.5,0.7-0.9l0.2,0.1c-0.2,0.4-0.5,0.8-0.7,1.1c-0.5,0.6-0.9,0.8-1.3,0.8c-0.3,0-0.5-0.1-0.6-0.4
			c-0.1-0.2-0.2-0.4-0.3-0.7l-0.5-2l-1.7,2.2c-0.3,0.4-0.6,0.6-0.7,0.8c-0.2,0.1-0.4,0.2-0.6,0.2c-0.3,0-0.6-0.1-0.7-0.3
			c-0.1-0.1-0.1-0.2-0.1-0.4C-66.4,367.9-66.3,367.8-66.2,367.7z"/>
		<path d="M-56.9,367.3c0.1-0.2,0.3-0.2,0.6-0.2c0.3,0,0.5,0.1,0.7,0.3c0.2,0.2,0.3,0.5,0.3,0.8c0,0.5-0.2,1-0.6,1.5
			c-0.4,0.4-0.8,0.8-1.3,1l-0.2,0.1l-0.2-0.3c0.3-0.2,0.6-0.4,0.8-0.6c0.3-0.3,0.5-0.6,0.5-0.8c0-0.1,0-0.1,0-0.2
			c0-0.1-0.1-0.1-0.1-0.2l-0.2-0.2c-0.2-0.2-0.3-0.4-0.4-0.5c0-0.1-0.1-0.3-0.1-0.5C-57.1,367.6-57,367.4-56.9,367.3z"/>
		<path d="M-50.6,370.9c0.1-0.1,0.3-0.2,0.5-0.2c0.1,0,0.3,0,0.4,0.1c0.1,0.1,0.2,0.1,0.3,0.2l0.1,0.1c0,0,0.1,0,0.1,0.1
			c0,0,0.1,0,0.1,0c0.3,0,0.7-0.3,1.3-1s0.9-1.2,0.9-1.5c0-0.3-0.1-0.9-0.3-1.8c-0.2-0.9-0.4-1.7-0.6-2.3c-0.3-1-0.5-1.6-0.7-2
			c-0.2-0.3-0.5-0.5-1-0.5c0,0-0.1,0-0.2,0s-0.2,0-0.4,0v-0.3l2.2-0.4l0.2,0c0.1,0,0.4,0.6,0.8,1.8c0.3,1.1,0.6,1.9,0.6,2.4l0.3,1.9
			c0.6-0.9,1-1.7,1.2-2.2c0.5-1,0.8-1.7,0.8-2.1c0-0.1,0-0.2,0-0.3s-0.1-0.2-0.2-0.2l-0.1-0.1c-0.1,0-0.2-0.1-0.3-0.2
			c-0.1-0.1-0.2-0.3-0.2-0.5c0-0.2,0.1-0.3,0.2-0.4c0.1-0.1,0.3-0.2,0.5-0.2c0.3,0,0.5,0.1,0.7,0.2c0.2,0.2,0.2,0.4,0.2,0.8
			c0,0.6-0.3,1.5-0.9,2.8c-0.5,1-1,1.9-1.6,2.8c-0.7,1.1-1.4,2-1.9,2.6c-0.9,1-1.6,1.5-2.1,1.5c-0.2,0-0.4-0.1-0.6-0.2
			c-0.2-0.1-0.3-0.3-0.3-0.5C-50.8,371.2-50.7,371-50.6,370.9z"/>
		<path d="M-42.8,371.4c0.6-0.6,1-1.1,1.3-1.6c0.5-0.8,0.9-1.7,1.2-2.7c0.3-0.9,0.5-1.8,0.6-2.6c0.1-0.9,0.2-1.7,0.2-2.4
			c0-1-0.1-1.8-0.2-2.5c-0.2-0.7-0.3-1.3-0.6-1.8l0.3-0.1c0.5,0.8,0.9,1.8,1.2,2.8c0.3,1,0.4,2.1,0.4,3.1c0,1.2-0.2,2.3-0.5,3.2
			c-0.6,1.7-1.9,3.3-3.8,4.9L-42.8,371.4z"/>
	</g>
	<ellipse cx="-80.8" cy="369.4" rx="1.8" ry="1.9"/>
	<line fill="none" stroke="#000000" stroke-dasharray="2" x1="-202.6" y1="346.5" x2="-215.5" y2="294.4"/>
	<line fill="none" stroke="#000000" stroke-dasharray="2" x1="-168.6" y1="483.5" x2="-181.5" y2="431.4"/>
	<line fill="none" stroke="#000000" stroke-dasharray="2" x1="-202.6" y1="346.5" x2="-165" y2="353.6"/>
</g>
<g>
	<path fill="none" stroke="#000000" d="M-165.9,463.7c9.8,1.3,17.3,9.7,17.3,19.8"/>
	<path d="M-165.2,463.8l1.3,2.9l-0.1,0l-4.1-2.3c-1.5-0.5-3-1.1-4.4-1.6c1.6-0.1,3.1-0.3,4.7-0.4l4.6-1.2l0.1,0.1L-165.2,463.8z"/>
</g>
<g enable-background="new    ">
	<path d="M-147.5,456.4c1.1,0,2,0.5,2.6,1.4c0.6,0.9,0.9,2.3,0.9,4c0,1.9-0.3,3.3-0.9,4.3c-0.6,1-1.5,1.5-2.6,1.5
		c-1.2,0-2.1-0.5-2.7-1.4c-0.6-1-0.9-2.4-0.9-4.3c0-1.8,0.3-3.1,0.9-4.1C-149.5,456.9-148.6,456.4-147.5,456.4z M-145.6,461.4
		c0-0.1,0-0.2,0-0.3c0-0.1,0-0.2,0-0.3c0-1.4-0.2-2.4-0.5-3c-0.3-0.6-0.8-1-1.5-1c-0.7,0-1.2,0.4-1.5,1.1s-0.5,1.9-0.5,3.5H-145.6z
		 M-149.5,462v0.4c0,1.8,0.1,3.1,0.4,3.8c0.3,0.7,0.8,1.1,1.5,1.1c0.7,0,1.2-0.4,1.5-1.1s0.4-2.1,0.4-4.2H-149.5z"/>
</g>
<g enable-background="new    ">
	<path d="M-140.6,464.5C-140.6,464.5-140.6,464.5-140.6,464.5l0,5.3c0,0.2,0.1,0.4,0.2,0.4c0.1,0.1,0.3,0.1,0.7,0.1v0.1h-2.5v-0.1
		c0.4,0,0.6-0.1,0.7-0.1c0.1-0.1,0.2-0.2,0.2-0.5v-4.1c0-0.1,0-0.2-0.1-0.3c0-0.1-0.1-0.1-0.2-0.1c-0.1,0-0.2,0-0.3,0.1
		c-0.1,0-0.2,0.1-0.3,0.1v-0.1L-140.6,464.5L-140.6,464.5C-140.6,464.5-140.6,464.5-140.6,464.5z"/>
</g>
<g enable-background="new    ">
	<path d="M-230.8,358c1.1,0,2,0.5,2.6,1.4s0.9,2.3,0.9,4c0,1.9-0.3,3.3-0.9,4.3c-0.6,1-1.5,1.5-2.6,1.5c-1.2,0-2.1-0.5-2.7-1.4
		c-0.6-1-0.9-2.4-0.9-4.3c0-1.8,0.3-3.1,0.9-4.1C-232.8,358.5-231.9,358-230.8,358z M-228.9,363c0-0.1,0-0.2,0-0.3
		c0-0.1,0-0.2,0-0.3c0-1.4-0.2-2.4-0.5-3c-0.3-0.6-0.8-1-1.5-1c-0.7,0-1.2,0.4-1.5,1.1c-0.3,0.7-0.5,1.9-0.5,3.5H-228.9z
		 M-232.8,363.6v0.4c0,1.8,0.1,3.1,0.4,3.8c0.3,0.7,0.8,1.1,1.5,1.1c0.7,0,1.2-0.4,1.5-1.1c0.3-0.7,0.4-2.1,0.4-4.2H-232.8z"/>
</g>
<g enable-background="new    ">
	<path d="M-226.3,372c1.1-1.1,1.8-1.9,2.2-2.5c0.4-0.5,0.6-1,0.6-1.5c0-0.4-0.1-0.8-0.4-1c-0.2-0.2-0.5-0.3-0.8-0.3
		c-0.4,0-0.7,0.1-1,0.4c-0.1,0.2-0.3,0.4-0.4,0.7l-0.2,0c0.1-0.7,0.4-1.1,0.7-1.4s0.7-0.4,1.1-0.4c0.5,0,0.9,0.2,1.2,0.5
		c0.3,0.3,0.5,0.7,0.5,1.1c0,0.5-0.2,0.9-0.5,1.4c-0.3,0.4-1.1,1.2-2.2,2.4h2c0.3,0,0.5,0,0.6-0.1s0.2-0.2,0.4-0.5l0.1,0.1l-0.5,1.2
		h-3.5V372z"/>
</g>
<g>
	<path fill="none" stroke="#000000" d="M-184.7,359.3c-4,5.6-10.5,9.2-17.9,9.2c-12.1,0-22-9.8-22-22c0-10.3,7.1-19,16.7-21.4"/>
	<path d="M-185.1,359.9l-2.9-0.2l0-0.1l3.7-2.4c1.1-1,2.2-2,3.3-2.9c-0.6,1.3-1.2,2.7-1.7,4l-1.1,4.3l-0.1,0L-185.1,359.9z"/>
</g>
</svg>
