<?xml version="1.0" encoding="utf-8"?>
<!-- Generator: Adobe Illustrator 18.1.1, SVG Export Plug-In . SVG Version: 6.00 Build 0)  -->
<svg version="1.1" id="Layer_1" xmlns="http://www.w3.org/2000/svg" xmlns:xlink="http://www.w3.org/1999/xlink" x="0px" y="0px"
	 viewBox="0 0 259.2 184.3" enable-background="new 0 0 259.2 184.3" xml:space="preserve">
<rect x="154" y="56.9" transform="matrix(0.802 0.5973 -0.5973 0.802 98.5251 -88.344)" fill="none" stroke="#000000" stroke-miterlimit="10" width="57" height="95"/>
<polyline fill="none" stroke="#000000" stroke-miterlimit="10" points="188,49.3 227.6,43.9 233.8,83.4 "/>
<path fill="none" stroke="#000000" stroke-miterlimit="10" d="M148.2,123.8c-1.2,1.5-3.3,1.9-4.9,0.7l0,0c-1.6-1.2-1.9-3.3-0.7-4.9
	l11.3-15.2c1.2-1.6,3.3-1.9,4.9-0.7l0,0c1.6,1.2,1.9,3.3,0.7,4.9L148.2,123.8z"/>
<path fill="none" stroke="#000000" stroke-miterlimit="10" d="M179.5,147.1c-1.2,1.6-3.3,1.9-4.9,0.7l0,0c-1.6-1.2-1.9-3.3-0.7-4.9
	l11.3-15.2c1.2-1.5,3.3-1.9,4.9-0.7l0,0c1.6,1.2,1.9,3.3,0.7,4.9L179.5,147.1z"/>
<line fill="none" stroke="#000000" stroke-miterlimit="10" x1="74.9" y1="57.3" x2="244.9" y2="183.9"/>
<path fill="none" stroke="#000000" stroke-miterlimit="10" d="M201,95.4c-0.2,1.9-1.9,3.3-3.8,3.1l0,0c-1.9-0.2-3.3-1.9-3.1-3.8
	l2-18.9c0.2-1.9,1.9-3.3,3.8-3.1l0,0c1.9,0.2,3.3,1.9,3.1,3.8L201,95.4z"/>
<line fill="none" stroke="#000000" stroke-miterlimit="10" x1="207.5" y1="0.1" x2="188.5" y2="181.1"/>
<line fill="none" stroke="#000000" stroke-miterlimit="10" x1="0.1" y1="64.8" x2="259.2" y2="91.9"/>
<circle cx="98.9" cy="75.2" r="4"/>
<circle fill="#BE2026" cx="167.6" cy="127" r="4"/>
<g>
	<g>
		<line fill="none" stroke="#BE2026" stroke-miterlimit="10" x1="167.6" y1="127" x2="192.7" y2="93.4"/>
		<g>
			<polygon fill="#BE2026" points="196.9,87.7 194.2,98.1 192.3,93.8 187.7,93.2 			"/>
		</g>
	</g>
</g>
<g>
	<g>
		<line fill="none" stroke="#BE2026" stroke-miterlimit="10" x1="164.4" y1="124.6" x2="130.8" y2="99.6"/>
		<g>
			<polygon fill="#BE2026" points="125.1,95.3 135.5,98 131.2,99.9 130.6,104.5 			"/>
		</g>
	</g>
</g>
<g>
	<path d="M48.6,81.2c0.6-0.1,1.5-0.2,2.3-0.2c1.3,0,2.1,0.2,2.7,0.8c0.5,0.4,0.7,1.1,0.7,1.8c0,1.2-0.8,2.1-1.8,2.4v0
		c0.7,0.3,1.2,0.9,1.4,1.9c0.3,1.3,0.5,2.2,0.7,2.6h-1.3c-0.2-0.3-0.4-1.1-0.6-2.3c-0.3-1.3-0.8-1.8-1.9-1.8h-1.1v4.1h-1.2V81.2z
		 M49.9,85.5h1.2c1.3,0,2.1-0.7,2.1-1.8c0-1.2-0.9-1.8-2.2-1.8c-0.6,0-1,0.1-1.2,0.1V85.5z"/>
	<path d="M62.3,87.1c0,2.5-1.7,3.6-3.4,3.6c-1.8,0-3.2-1.3-3.2-3.5c0-2.3,1.5-3.6,3.4-3.6C61,83.6,62.3,85,62.3,87.1z M56.9,87.2
		c0,1.5,0.9,2.6,2.1,2.6c1.2,0,2.1-1.1,2.1-2.6c0-1.1-0.6-2.6-2-2.6C57.6,84.5,56.9,85.9,56.9,87.2z"/>
	<path d="M65.4,81.8v1.9h1.8v0.9h-1.8v3.7c0,0.8,0.2,1.3,0.9,1.3c0.3,0,0.6,0,0.7-0.1l0.1,0.9c-0.2,0.1-0.6,0.2-1.1,0.2
		c-0.6,0-1-0.2-1.3-0.5c-0.4-0.4-0.5-1-0.5-1.8v-3.7h-1.1v-0.9h1.1v-1.6L65.4,81.8z"/>
	<path d="M72.3,90.6l-0.1-0.9h0c-0.4,0.5-1.1,1-2.1,1c-1.4,0-2.1-1-2.1-1.9c0-1.6,1.5-2.5,4.1-2.5v-0.1c0-0.6-0.2-1.6-1.5-1.6
		c-0.6,0-1.3,0.2-1.8,0.5l-0.3-0.8c0.6-0.4,1.4-0.6,2.2-0.6c2.1,0,2.6,1.4,2.6,2.8v2.5c0,0.6,0,1.2,0.1,1.6H72.3z M72.1,87.1
		c-1.3,0-2.9,0.2-2.9,1.5c0,0.8,0.5,1.2,1.2,1.2c0.9,0,1.4-0.6,1.6-1.1c0-0.1,0.1-0.3,0.1-0.4V87.1z"/>
	<path d="M76.7,81.8v1.9h1.8v0.9h-1.8v3.7c0,0.8,0.2,1.3,0.9,1.3c0.3,0,0.6,0,0.7-0.1l0.1,0.9c-0.2,0.1-0.6,0.2-1.1,0.2
		c-0.6,0-1-0.2-1.3-0.5c-0.4-0.4-0.5-1-0.5-1.8v-3.7h-1.1v-0.9h1.1v-1.6L76.7,81.8z"/>
	<path d="M81.2,81.9c0,0.4-0.3,0.8-0.8,0.8c-0.4,0-0.7-0.3-0.7-0.8c0-0.4,0.3-0.8,0.8-0.8C80.9,81.1,81.2,81.4,81.2,81.9z
		 M79.8,90.6v-6.8h1.2v6.8H79.8z"/>
	<path d="M89.2,87.1c0,2.5-1.7,3.6-3.4,3.6c-1.8,0-3.2-1.3-3.2-3.5c0-2.3,1.5-3.6,3.4-3.6C87.9,83.6,89.2,85,89.2,87.1z M83.9,87.2
		c0,1.5,0.9,2.6,2.1,2.6c1.2,0,2.1-1.1,2.1-2.6c0-1.1-0.6-2.6-2-2.6C84.5,84.5,83.9,85.9,83.9,87.2z"/>
	<path d="M90.8,85.6c0-0.7,0-1.3-0.1-1.8h1.1l0.1,1.1h0c0.3-0.6,1.1-1.3,2.2-1.3c0.9,0,2.4,0.6,2.4,2.9v4h-1.2v-3.9
		c0-1.1-0.4-2-1.6-2c-0.8,0-1.4,0.6-1.7,1.3c-0.1,0.2-0.1,0.4-0.1,0.6v4.1h-1.2V85.6z"/>
	<path d="M53.4,107.1c-0.3,0.2-1,0.4-1.9,0.4c-2,0-3.4-1.4-3.4-3.5c0-2.1,1.4-3.6,3.6-3.6c0.7,0,1.4,0.2,1.7,0.4l-0.3,1
		c-0.3-0.2-0.8-0.3-1.4-0.3c-1.6,0-2.4,1.1-2.4,2.6c0,1.6,1,2.5,2.4,2.5c0.7,0,1.2-0.2,1.5-0.3L53.4,107.1z"/>
	<path d="M55.5,104.2c0,1.7,1.1,2.4,2.3,2.4c0.9,0,1.4-0.2,1.9-0.4l0.2,0.9c-0.4,0.2-1.2,0.4-2.3,0.4c-2.1,0-3.3-1.4-3.3-3.4
		c0-2,1.2-3.7,3.2-3.7c2.2,0,2.8,1.9,2.8,3.2c0,0.3,0,0.4,0,0.6H55.5z M59.1,103.3c0-0.8-0.3-2-1.7-2c-1.2,0-1.8,1.1-1.9,2H59.1z"/>
	<path d="M61.8,102.4c0-0.7,0-1.3-0.1-1.8h1.1l0.1,1.1h0c0.3-0.6,1.1-1.3,2.2-1.3c0.9,0,2.4,0.6,2.4,2.9v4h-1.2v-3.9
		c0-1.1-0.4-2-1.6-2c-0.8,0-1.4,0.6-1.7,1.3c-0.1,0.2-0.1,0.4-0.1,0.6v4.1h-1.2V102.4z"/>
	<path d="M71,98.6v1.9h1.8v0.9H71v3.7c0,0.8,0.2,1.3,0.9,1.3c0.3,0,0.6,0,0.7-0.1l0.1,0.9c-0.2,0.1-0.6,0.2-1.1,0.2
		c-0.6,0-1-0.2-1.3-0.5c-0.4-0.4-0.5-1-0.5-1.8v-3.7h-1.1v-0.9h1.1V99L71,98.6z"/>
	<path d="M74.8,104.2c0,1.7,1.1,2.4,2.3,2.4c0.9,0,1.4-0.2,1.9-0.4l0.2,0.9c-0.4,0.2-1.2,0.4-2.3,0.4c-2.1,0-3.3-1.4-3.3-3.4
		c0-2,1.2-3.7,3.2-3.7c2.2,0,2.8,1.9,2.8,3.2c0,0.3,0,0.4,0,0.6H74.8z M78.4,103.3c0-0.8-0.3-2-1.7-2c-1.2,0-1.8,1.1-1.9,2H78.4z"/>
	<path d="M81.1,102.7c0-0.8,0-1.5-0.1-2.1h1.1l0,1.3h0.1c0.3-0.9,1.1-1.5,1.9-1.5c0.1,0,0.2,0,0.4,0v1.2c-0.1,0-0.3,0-0.4,0
		c-0.9,0-1.5,0.7-1.7,1.6c0,0.2-0.1,0.4-0.1,0.6v3.6h-1.2V102.7z"/>
</g>
<g>
	<path fill="#BE2026" d="M97.6,132c0.5-0.1,1.4-0.2,2.2-0.2c1.2,0,2,0.2,2.6,0.7c0.5,0.4,0.8,0.9,0.8,1.7c0,0.9-0.6,1.7-1.6,2.1v0
		c0.9,0.2,1.9,1,1.9,2.4c0,0.8-0.3,1.4-0.8,1.9c-0.7,0.6-1.7,0.9-3.3,0.9c-0.8,0-1.5-0.1-1.9-0.1V132z M98.9,135.9h1.1
		c1.3,0,2-0.7,2-1.6c0-1.1-0.8-1.5-2.1-1.5c-0.6,0-0.9,0-1.1,0.1V135.9z M98.9,140.4c0.2,0,0.6,0.1,1,0.1c1.3,0,2.4-0.5,2.4-1.8
		c0-1.3-1.1-1.8-2.4-1.8h-1V140.4z"/>
	<path fill="#BE2026" d="M111.4,137.9c0,2.5-1.7,3.6-3.4,3.6c-1.8,0-3.2-1.3-3.2-3.5c0-2.3,1.5-3.6,3.4-3.6
		C110.1,134.4,111.4,135.8,111.4,137.9z M106,138c0,1.5,0.9,2.6,2.1,2.6c1.2,0,2.1-1.1,2.1-2.6c0-1.1-0.6-2.6-2-2.6
		C106.6,135.3,106,136.7,106,138z"/>
	<path fill="#BE2026" d="M118.8,131.4v8.2c0,0.6,0,1.3,0.1,1.8h-1.1l-0.1-1.2h0c-0.4,0.8-1.2,1.3-2.3,1.3c-1.6,0-2.9-1.4-2.9-3.4
		c0-2.3,1.4-3.6,3-3.6c1,0,1.7,0.5,2,1h0v-4H118.8z M117.6,137.3c0-0.2,0-0.4-0.1-0.5c-0.2-0.8-0.9-1.4-1.8-1.4c-1.3,0-2,1.1-2,2.6
		c0,1.4,0.7,2.5,2,2.5c0.8,0,1.6-0.5,1.8-1.5c0-0.2,0.1-0.3,0.1-0.5V137.3z"/>
	<path fill="#BE2026" d="M121.3,134.6l1.5,4c0.2,0.4,0.3,1,0.4,1.4h0c0.1-0.4,0.3-0.9,0.4-1.4l1.3-4h1.3l-1.8,4.8
		c-0.9,2.3-1.5,3.5-2.3,4.2c-0.6,0.5-1.2,0.7-1.5,0.8l-0.3-1c0.3-0.1,0.7-0.3,1.1-0.6c0.3-0.3,0.8-0.7,1-1.4
		c0.1-0.1,0.1-0.2,0.1-0.3s0-0.2-0.1-0.3l-2.5-6.2H121.3z"/>
	<path fill="#BE2026" d="M130.5,141.3v-5.8h-1v-0.9h1v-0.3c0-1,0.2-1.8,0.8-2.4c0.5-0.4,1.1-0.6,1.7-0.6c0.4,0,0.8,0.1,1.1,0.2
		l-0.2,1c-0.2-0.1-0.4-0.2-0.8-0.2c-1.1,0-1.3,0.9-1.3,2v0.4h1.6v0.9h-1.6v5.8H130.5z"/>
	<path fill="#BE2026" d="M134.5,136.7c0-0.8,0-1.5-0.1-2.1h1.1l0,1.3h0.1c0.3-0.9,1.1-1.5,1.9-1.5c0.1,0,0.2,0,0.4,0v1.2
		c-0.1,0-0.3,0-0.4,0c-0.9,0-1.5,0.7-1.7,1.6c0,0.2-0.1,0.4-0.1,0.6v3.6h-1.2V136.7z"/>
	<path fill="#BE2026" d="M142.7,141.3l-0.1-0.9h0c-0.4,0.5-1.1,1-2.1,1c-1.4,0-2.1-1-2.1-1.9c0-1.6,1.5-2.5,4.1-2.5v-0.1
		c0-0.6-0.2-1.6-1.5-1.6c-0.6,0-1.3,0.2-1.8,0.5l-0.3-0.8c0.6-0.4,1.4-0.6,2.2-0.6c2.1,0,2.6,1.4,2.6,2.8v2.5c0,0.6,0,1.2,0.1,1.6
		H142.7z M142.6,137.9c-1.3,0-2.9,0.2-2.9,1.5c0,0.8,0.5,1.2,1.2,1.2c0.9,0,1.4-0.6,1.6-1.1c0-0.1,0.1-0.3,0.1-0.4V137.9z"/>
	<path fill="#BE2026" d="M145.7,136.4c0-0.7,0-1.3-0.1-1.8h1.1l0.1,1.1h0c0.4-0.6,1-1.2,2.1-1.2c0.9,0,1.6,0.6,1.9,1.4h0
		c0.2-0.4,0.5-0.7,0.8-0.9c0.4-0.3,0.9-0.5,1.5-0.5c0.9,0,2.2,0.6,2.2,2.9v4h-1.2v-3.8c0-1.3-0.5-2.1-1.5-2.1
		c-0.7,0-1.2,0.5-1.5,1.1c-0.1,0.2-0.1,0.4-0.1,0.6v4.2H150v-4.1c0-1.1-0.5-1.9-1.4-1.9c-0.8,0-1.3,0.6-1.5,1.2
		c-0.1,0.2-0.1,0.4-0.1,0.6v4.1h-1.2V136.4z"/>
	<path fill="#BE2026" d="M158.1,138.2c0,1.7,1.1,2.4,2.3,2.4c0.9,0,1.4-0.2,1.9-0.4l0.2,0.9c-0.4,0.2-1.2,0.4-2.3,0.4
		c-2.1,0-3.3-1.4-3.3-3.4c0-2,1.2-3.7,3.2-3.7c2.2,0,2.8,1.9,2.8,3.2c0,0.3,0,0.4,0,0.6H158.1z M161.7,137.3c0-0.8-0.3-2-1.7-2
		c-1.2,0-1.8,1.1-1.9,2H161.7z"/>
</g>
</svg>
